<svg width="22" height="24" viewBox="0 0 22 24"  xmlns="http://www.w3.org/2000/svg">
<path fill-rule="evenodd" clip-rule="evenodd" d="M4.685 7.9152H17.403V18.2792C17.403 18.8942 16.904 19.3942 16.289 19.3942H15.015V22.5502C15.0179 22.9319 14.8692 23.2992 14.6014 23.5713C14.3336 23.8434 13.9687 23.998 13.587 24.0012C13.3978 23.9999 13.2107 23.9613 13.0365 23.8877C12.8622 23.814 12.7041 23.7068 12.5713 23.572C12.4385 23.4373 12.3336 23.2777 12.2625 23.1023C12.1914 22.927 12.1556 22.7394 12.157 22.5502V19.3942H9.932V22.5502C9.93345 22.7394 9.8976 22.927 9.82651 23.1023C9.75542 23.2777 9.65047 23.4373 9.51767 23.572C9.38487 23.7068 9.22681 23.814 9.05254 23.8877C8.87827 23.9613 8.69119 23.9999 8.502 24.0012C8.31289 23.9998 8.12593 23.9611 7.95177 23.8874C7.77761 23.8137 7.61967 23.7064 7.48698 23.5717C7.35428 23.4369 7.24942 23.2774 7.17839 23.1021C7.10736 22.9268 7.07155 22.7393 7.073 22.5502V19.3942H5.8C5.185 19.3942 4.685 18.8942 4.685 18.2792V7.9152ZM2.193 7.8302C1.396 7.8302 0.75 8.4862 0.75 9.2962V15.0232C0.75 15.8312 1.396 16.4882 2.193 16.4882C2.99 16.4882 3.636 15.8312 3.636 15.0232V9.2962C3.636 8.4862 2.99 7.8302 2.193 7.8302ZM17.403 6.8702H4.685C4.842 5.0602 6.018 3.5012 7.71 2.5982L6.5 0.8212C6.45879 0.764294 6.42943 0.699697 6.41364 0.631234C6.39786 0.562772 6.39597 0.491837 6.4081 0.422634C6.42024 0.35343 6.44613 0.287365 6.48426 0.228354C6.52239 0.169343 6.57198 0.118585 6.63009 0.079089C6.68819 0.0395928 6.75364 0.0121614 6.82254 -0.0015798C6.89144 -0.015321 6.9624 -0.0150925 7.03121 -0.000907824C7.10002 0.0132769 7.16529 0.0411292 7.22314 0.0809988C7.28099 0.120868 7.33025 0.171944 7.368 0.2312L8.686 2.1672C10.2138 1.63785 11.8752 1.63785 13.403 2.1672L14.721 0.2312C14.7597 0.174272 14.8093 0.125532 14.8669 0.0877622C14.9245 0.0499927 14.9889 0.0239335 15.0566 0.0110726C15.1242 -0.00178831 15.1937 -0.00119913 15.2612 0.0128065C15.3286 0.0268121 15.3926 0.05396 15.4495 0.0926999C15.5064 0.13144 15.5552 0.181013 15.5929 0.23859C15.6307 0.296166 15.6568 0.360618 15.6696 0.428266C15.6825 0.495913 15.6819 0.565431 15.6679 0.632851C15.6539 0.700271 15.6267 0.764272 15.588 0.8212L14.38 2.5972C16.072 3.4992 17.246 5.0582 17.403 6.8712V6.8702ZM9.065 4.4092C9.06513 4.22275 8.99119 4.04389 8.85945 3.91196C8.72771 3.78003 8.54895 3.70583 8.3625 3.7057C8.17605 3.70557 7.99719 3.77951 7.86526 3.91125C7.73333 4.04299 7.65913 4.22175 7.659 4.4082C7.659 4.59465 7.73307 4.77346 7.8649 4.9053C7.99674 5.03713 8.17555 5.1112 8.362 5.1112C8.54845 5.1112 8.72726 5.03713 8.8591 4.9053C8.99093 4.77346 9.065 4.59465 9.065 4.4082V4.4092ZM14.519 4.4092C14.519 4.31675 14.5008 4.2252 14.4654 4.13979C14.43 4.05438 14.3782 3.97677 14.3128 3.9114C14.2474 3.84602 14.1698 3.79417 14.0844 3.75879C13.999 3.72341 13.9074 3.7052 13.815 3.7052C13.7225 3.7052 13.631 3.72341 13.5456 3.75879C13.4602 3.79417 13.3826 3.84602 13.3172 3.9114C13.2518 3.97677 13.2 4.05438 13.1646 4.13979C13.1292 4.2252 13.111 4.31675 13.111 4.4092C13.111 4.59591 13.1852 4.77498 13.3172 4.907C13.4492 5.03903 13.6283 5.1132 13.815 5.1132C14.0017 5.1132 14.1808 5.03903 14.3128 4.907C14.4448 4.77498 14.519 4.59591 14.519 4.4092ZM19.897 7.8292C19.1 7.8292 18.453 8.4852 18.453 9.2952V15.0242C18.453 15.8342 19.1 16.4902 19.897 16.4902C20.694 16.4902 21.338 15.8332 21.338 15.0242V9.2942C21.338 8.4852 20.694 7.8282 19.897 7.8282V7.8292Z" />
</svg>
