<svg width="48" height="24" viewBox="0 0 48 24"  xmlns="http://www.w3.org/2000/svg">
<g clip-path="url(#clip0_7_15)">
<path fill-rule="evenodd" clip-rule="evenodd" d="M5.685 7.91401H18.403V18.278C18.403 18.893 17.904 19.393 17.289 19.393H16.015V22.549C16.0179 22.9308 15.8692 23.298 15.6014 23.5701C15.3336 23.8422 14.9687 23.9968 14.587 24C14.3978 23.9987 14.2107 23.9601 14.0365 23.8865C13.8622 23.8128 13.7041 23.7056 13.5713 23.5708C13.4385 23.4361 13.3336 23.2765 13.2625 23.1011C13.1914 22.9258 13.1555 22.7382 13.157 22.549V19.393H10.932V22.549C10.9334 22.7382 10.8976 22.9258 10.8265 23.1011C10.7554 23.2765 10.6505 23.4361 10.5177 23.5708C10.3849 23.7056 10.2268 23.8128 10.0525 23.8865C9.87827 23.9601 9.69119 23.9987 9.502 24C9.31289 23.9986 9.12593 23.9599 8.95177 23.8862C8.77761 23.8125 8.61967 23.7052 8.48698 23.5705C8.35428 23.4357 8.24942 23.2762 8.17839 23.1009C8.10736 22.9257 8.07155 22.7381 8.073 22.549V19.393H6.8C6.185 19.393 5.685 18.893 5.685 18.278V7.91401ZM3.193 7.82901C2.396 7.82901 1.75 8.48501 1.75 9.29501V15.022C1.75 15.83 2.396 16.487 3.193 16.487C3.99 16.487 4.636 15.83 4.636 15.022V9.29501C4.636 8.48501 3.99 7.82901 3.193 7.82901V7.82901ZM18.403 6.86901H5.685C5.842 5.05901 7.018 3.50001 8.71 2.59701L7.5 0.82001C7.45879 0.763104 7.42943 0.698507 7.41364 0.630044C7.39786 0.561581 7.39597 0.490647 7.4081 0.421443C7.42023 0.35224 7.44613 0.286175 7.48426 0.227164C7.52239 0.168153 7.57198 0.117395 7.63009 0.0778988C7.68819 0.0384026 7.75364 0.0109712 7.82254 -0.00276998C7.89144 -0.0165112 7.9624 -0.0162827 8.03121 -0.00209801C8.10002 0.0120867 8.16529 0.039939 8.22314 0.0798086C8.28099 0.119678 8.33025 0.170754 8.368 0.23001L9.686 2.16601C11.2138 1.63666 12.8752 1.63666 14.403 2.16601L15.721 0.23001C15.7597 0.173082 15.8093 0.124341 15.8669 0.086572C15.9245 0.0488025 15.9889 0.0227433 16.0566 0.00988242C16.1242 -0.00297849 16.1937 -0.00238931 16.2612 0.0116163C16.3286 0.025622 16.3926 0.0527698 16.4495 0.0915097C16.5064 0.13025 16.5552 0.179823 16.5929 0.2374C16.6307 0.294976 16.6568 0.359428 16.6696 0.427075C16.6825 0.494723 16.6819 0.564241 16.6679 0.631661C16.6539 0.699081 16.6267 0.763082 16.588 0.82001L15.38 2.59601C17.072 3.49801 18.246 5.05701 18.403 6.87001V6.86901ZM10.065 4.40801C10.0651 4.22156 9.99119 4.0427 9.85945 3.91077C9.72771 3.77884 9.54895 3.70464 9.3625 3.70451C9.17605 3.70438 8.99719 3.77832 8.86526 3.91006C8.73333 4.0418 8.65913 4.22056 8.659 4.40701C8.659 4.59346 8.73307 4.77227 8.8649 4.90411C8.99674 5.03594 9.17555 5.11001 9.362 5.11001C9.54845 5.11001 9.72726 5.03594 9.8591 4.90411C9.99093 4.77227 10.065 4.59346 10.065 4.40701V4.40801ZM15.519 4.40801C15.519 4.31556 15.5008 4.22401 15.4654 4.1386C15.43 4.05319 15.3782 3.97558 15.3128 3.91021C15.2474 3.84483 15.1698 3.79298 15.0844 3.7576C14.999 3.72222 14.9075 3.70401 14.815 3.70401C14.7225 3.70401 14.631 3.72222 14.5456 3.7576C14.4602 3.79298 14.3826 3.84483 14.3172 3.91021C14.2518 3.97558 14.2 4.05319 14.1646 4.1386C14.1292 4.22401 14.111 4.31556 14.111 4.40801C14.111 4.59472 14.1852 4.77379 14.3172 4.90581C14.4492 5.03784 14.6283 5.11201 14.815 5.11201C15.0017 5.11201 15.1808 5.03784 15.3128 4.90581C15.4448 4.77379 15.519 4.59472 15.519 4.40801V4.40801ZM20.897 7.82801C20.1 7.82801 19.453 8.48401 19.453 9.29401V15.023C19.453 15.833 20.1 16.489 20.897 16.489C21.694 16.489 22.338 15.832 22.338 15.023V9.29301C22.338 8.48401 21.694 7.82701 20.897 7.82701V7.82801Z"/>
</g>
<path d="M39.2996 3.82775C39.7532 3.30492 40.0991 2.69763 40.3174 2.04075C40.5356 1.38387 40.622 0.690347 40.5715 0C39.1788 0.112417 37.8861 0.767416 36.9717 1.82388C36.5339 2.33022 36.2021 2.91926 35.996 3.55614C35.7899 4.19301 35.7136 4.86477 35.7718 5.53163C36.4511 5.53729 37.1227 5.38656 37.7344 5.09109C38.3461 4.79563 38.8817 4.36336 39.2996 3.82775ZM42.3234 12.7552C42.3314 11.8357 42.5736 10.9335 43.0271 10.1336C43.4806 9.33368 44.1304 8.66253 44.9152 8.18346C44.4199 7.46979 43.7651 6.88134 43.0028 6.46478C42.2405 6.04822 41.3916 5.815 40.5235 5.78362C38.6516 5.59163 36.9237 6.87554 35.9278 6.87554C34.9319 6.87554 33.528 5.80761 31.9681 5.83161C30.9483 5.86521 29.9546 6.16253 29.084 6.69458C28.2134 7.22663 27.4955 7.97525 27.0004 8.86741C24.8885 12.5392 26.4604 17.9988 28.5723 20.9626C29.5322 22.4145 30.7321 24.0584 32.316 23.9984C33.8999 23.9384 34.4159 23.0145 36.2518 23.0145C38.0876 23.0145 38.6516 23.9984 40.2115 23.9624C41.7714 23.9264 42.8753 22.4745 43.8833 21.0226C44.5973 19.9685 45.155 18.8167 45.5392 17.6028C44.5882 17.1973 43.7769 16.522 43.2054 15.6605C42.6339 14.799 42.3272 13.789 42.3234 12.7552Z" />
<defs>
<clipPath id="clip0_7_15">
<rect width="24" height="24" fill="white"/>
</clipPath>
</defs>
</svg>
