<svg width="20" height="21" viewBox="0 0 20 21" xmlns="http://www.w3.org/2000/svg">
<path d="M5.72 15.4554L7.481 14.9474L18.084 4.21736C18.1676 4.13165 18.2142 4.01649 18.2136 3.89674C18.2131 3.777 18.1654 3.66227 18.081 3.57736L17.446 2.93536C17.405 2.8932 17.3559 2.85963 17.3018 2.83662C17.2477 2.8136 17.1895 2.80161 17.1306 2.80133C17.0718 2.80105 17.0135 2.81249 16.9591 2.83499C16.9048 2.85749 16.8554 2.89059 16.814 2.93236L6.239 13.6344L5.719 15.4544L5.72 15.4554ZM18.703 1.66336L19.338 2.30636C20.214 3.19336 20.222 4.62436 19.354 5.50236L8.428 16.5604L4.664 17.6444C4.4342 17.7087 4.18826 17.6792 3.98016 17.5624C3.77206 17.4456 3.6188 17.251 3.554 17.0214C3.50578 16.8562 3.50509 16.6809 3.552 16.5154L4.647 12.6754L15.544 1.64636C15.7512 1.43772 15.9979 1.27242 16.2696 1.16011C16.5414 1.0478 16.8328 0.990727 17.1269 0.992216C17.4209 0.993705 17.7117 1.05373 17.9823 1.16878C18.2529 1.28384 18.4979 1.45163 18.703 1.66236V1.66336ZM7.184 2.81636C7.68 2.81636 8.082 3.22336 8.082 3.72536C8.08279 3.84403 8.06018 3.96169 8.01547 4.07161C7.97076 4.18154 7.90481 4.28157 7.82141 4.36599C7.73801 4.45041 7.63879 4.51757 7.52942 4.56362C7.42004 4.60966 7.30267 4.6337 7.184 4.63436H3.592C2.6 4.63436 1.796 5.44836 1.796 6.45136V17.3574C1.796 18.3614 2.6 19.1754 3.592 19.1754H14.368C15.36 19.1754 16.165 18.3614 16.165 17.3574V13.7224C16.165 13.2204 16.567 12.8134 17.063 12.8134C17.559 12.8134 17.961 13.2204 17.961 13.7234V17.3574C17.961 19.3654 16.352 20.9934 14.368 20.9934H3.592C1.608 20.9934 0 19.3654 0 17.3574V6.45136C0 4.44436 1.608 2.81636 3.592 2.81636H7.184Z" />
</svg>
