<svg width="24" height="24" viewBox="0 0 24 24"  xmlns="http://www.w3.org/2000/svg">
<path d="M18.8824 1.81641C18.3722 1.8151 17.8822 2.01637 17.5202 2.37602L17.0408 2.85808C17.0212 2.87463 17.0027 2.89232 16.9852 2.91107L16.7448 3.15146C16.7007 3.19372 16.6629 3.24202 16.6324 3.29491L15.561 4.46453C15.5543 4.47255 15.5479 4.48074 15.5416 4.48908L12.0353 7.99535L6.28417 2.2442C6.04151 2.00834 5.71529 1.87822 5.37691 1.88232C5.03765 1.87754 4.71037 2.0077 4.46707 2.2442L1.36532 5.34723C1.13087 5.59212 1 5.91805 1 6.25708C1 6.5961 1.13087 6.92204 1.36532 7.16692L1.36791 7.16951L7.17334 12.8547L3.60504 16.423C3.49906 16.4495 3.40151 16.5023 3.3215 16.5767C3.2415 16.6511 3.18164 16.7445 3.14753 16.8482L1.20894 22.7933C1.17213 22.9066 1.16738 23.0279 1.1952 23.1438C1.22303 23.2596 1.28235 23.3655 1.36661 23.4498C1.45086 23.5341 1.55678 23.5934 1.67265 23.6212C1.78851 23.649 1.90982 23.6443 2.02315 23.6075L7.96816 21.6689C8.10152 21.6245 8.21676 21.5378 8.29643 21.422L12.0198 17.6986L17.6469 23.4485L17.6495 23.4511C17.8944 23.6855 18.2203 23.8164 18.5593 23.8164C18.8984 23.8164 19.2243 23.6855 19.4692 23.4511L22.5709 20.3493C22.8056 20.1048 22.9366 19.779 22.9366 19.4401C22.9366 19.1012 22.8056 18.7755 22.5709 18.5309L16.8792 12.8392L20.5768 9.1417C20.6414 9.07715 20.6916 8.99962 20.7241 8.91424L21.5215 8.18145C21.5224 8.18059 21.5232 8.17973 21.5241 8.17887C21.5762 8.14984 21.624 8.11374 21.6662 8.0716L21.9053 7.83121C21.9269 7.81234 21.9472 7.79204 21.9661 7.77047L22.4404 7.29616C22.7987 6.93333 22.9996 6.44392 22.9996 5.93398C22.9996 5.42404 22.7987 4.93463 22.4404 4.5718L20.2433 2.37602C20.0646 2.19796 19.8525 2.05688 19.6192 1.96086C19.3859 1.86484 19.1347 1.81575 18.8824 1.81641ZM18.8811 3.07262C19.0323 3.07262 19.1861 3.14629 19.3296 3.28974L21.5267 5.48681C21.8149 5.77501 21.8149 6.09424 21.5267 6.38244L21.0394 6.87226C21.0368 6.87482 21.0342 6.8774 21.0317 6.88001L21.0007 6.90715L20.0895 7.74075L17.0757 4.72688L17.9364 3.78473L18.434 3.28974C18.5787 3.14629 18.7286 3.07262 18.8811 3.07262ZM5.37562 3.16309L11.1216 8.90907L8.08965 11.941L7.14362 11.0105L9.35361 8.80051L8.07414 7.52104L5.84993 9.74654L4.51876 8.44122L5.41569 7.54559L4.13621 6.26871L3.22766 7.17726L2.28551 6.25578L5.37691 3.16438L5.37562 3.16309ZM16.0417 5.81637L16.8495 6.62412L5.57594 17.8977L4.7682 17.0899L16.0417 5.81637ZM18.129 7.90488L19.0582 8.83282L7.78464 20.1064L6.85541 19.1771L18.129 7.90488ZM15.9655 13.753L21.652 19.4395L18.5606 22.5322L17.7451 21.7012L19.9254 19.5209L18.6459 18.2414L16.4799 20.4088L15.0867 18.9859L15.9888 18.0851L14.7093 16.8056L13.8227 17.6909L12.9335 16.7849L15.9655 13.753ZM4.04962 18.2505L6.56592 20.7681L3.25739 21.8459L2.97048 21.5577L4.04962 18.2505Z" />
</svg>
