<svg width="92" height="16" xmlns="http://www.w3.org/2000/svg" fill="none" viewBox="0 0 92 16"><path d="m10.078 9.188 1.75-8.563h1.961L11.164 12h-1.89L7.108 3.695 4.9 12H3L.375.625h1.96l1.767 8.547L6.272.625H7.93l2.148 8.563zm8.595 2.968c-1.203 0-2.18-.377-2.93-1.133-.744-.76-1.116-1.77-1.116-3.03v-.235c0-.844.16-1.597.484-2.258.328-.667.786-1.185 1.375-1.555a3.625 3.625 0 0 1 1.97-.554c1.15 0 2.038.367 2.663 1.101.63.735.945 1.774.945 3.117v.766h-5.523c.057.698.29 1.25.695 1.656.411.406.927.61 1.547.61.87 0 1.578-.352 2.125-1.055l1.023.976a3.44 3.44 0 0 1-1.36 1.18c-.562.276-1.194.414-1.898.414zm-.226-7.242c-.52 0-.943.182-1.266.547-.31.373-.514.88-.602 1.531h3.617v-.14c-.042-.637-.21-1.116-.508-1.439-.297-.329-.708-.493-1.234-.493zM23.59 4l-.969-.602c.47-.682.71-1.403.727-2.164V0h1.664v1.078c0 .537-.138 1.078-.414 1.625-.271.542-.607.974-1.008 1.297zm7.65 1.281a4.698 4.698 0 0 0-.773-.062c-.87 0-1.456.333-1.758 1V12h-1.9V3.547h1.814l.047.945c.458-.734 1.093-1.1 1.906-1.1.27 0 .495.035.672.108l-.008 1.781zm4.916 6.875c-1.203 0-2.18-.377-2.93-1.133-.745-.76-1.117-1.77-1.117-3.03v-.235c0-.844.161-1.597.484-2.258a3.737 3.737 0 0 1 1.375-1.555 3.625 3.625 0 0 1 1.97-.554c1.15 0 2.04.367 2.663 1.101.63.735.945 1.774.945 3.117v.766h-5.523c.057.698.29 1.25.695 1.656.412.406.927.61 1.547.61.87 0 1.578-.352 2.125-1.055l1.023.976a3.441 3.441 0 0 1-1.359 1.18c-.562.276-1.195.414-1.898.414zm-.227-7.242c-.52 0-.943.182-1.265.547-.318.37-.52.879-.61 1.53h3.617v-.14c-.04-.636-.21-1.115-.508-1.438-.296-.33-.708-.493-1.234-.493zM54.525 12h-1.969V6.945H47.47V12h-1.976V.625h1.976v4.734h5.086V.625h1.97V12zm4.33 0h-1.899V3.547h1.899V12zM56.839 1.352c0-.292.091-.534.273-.727.188-.193.454-.29.797-.29.344 0 .61.097.797.29a1 1 0 0 1 .28.727.99.99 0 0 1-.28.718c-.187.188-.453.282-.797.282-.349 0-.616-.094-.8-.282a1.005 1.005 0 0 1-.276-.718zm8.666 3.93a4.697 4.697 0 0 0-.774-.063c-.87 0-1.455.333-1.758 1V12h-1.898V3.547h1.813l.046.945c.459-.734 1.094-1.1 1.907-1.1.27 0 .494.035.672.108l-.008 1.781zM68.873 12h-1.898V3.547h1.898V12zM66.858 1.352c0-.292.09-.534.273-.727.188-.193.453-.29.797-.29.344 0 .61.097.797.29a1 1 0 0 1 .281.727.99.99 0 0 1-.281.718c-.188.188-.453.282-.797.282-.344 0-.61-.094-.797-.282a1.006 1.006 0 0 1-.273-.718zm6.001 2.195.05.976c.623-.755 1.443-1.132 2.46-1.132 1.759 0 2.655 1.007 2.688 3.023V12H76.16V6.523c0-.536-.117-.932-.352-1.187-.228-.26-.605-.39-1.13-.39-.767 0-1.337.346-1.712 1.038V12h-1.9V3.547h1.79zm6.96 4.164c0-1.313.303-2.36.92-3.14.62-.787 1.44-1.18 2.46-1.18.962 0 1.719.336 2.272 1.007l.086-.851h1.712v8.195c0 1.11-.346 1.985-1.04 2.625-.687.64-1.616.961-2.788.961a4.49 4.49 0 0 1-1.82-.39c-.589-.256-1.037-.592-1.344-1.008l.897-1.14c.584.692 1.302 1.038 2.157 1.038.63 0 1.127-.172 1.492-.515.363-.34.546-.84.546-1.5v-.57c-.547.609-1.276.913-2.188.913-.99 0-1.8-.393-2.43-1.18-.625-.786-.937-1.874-.937-3.265zm1.89.164c0 .849.17 1.518.512 2.008.35.484.83.726 1.445.726.767 0 1.335-.328 1.705-.984v-3.72c-.36-.64-.922-.96-1.688-.96-.625 0-1.112.248-1.46.743-.345.494-.516 1.223-.516 2.187zm9.68.773h-1.63L89.58.625h2.001l-.187 8.023zm-1.868 2.454c0-.297.096-.542.29-.735.191-.198.454-.297.788-.297.333 0 .596.1.79.297a1 1 0 0 1 .288.735.99.99 0 0 1-.28.718c-.189.193-.455.29-.798.29-.344 0-.61-.097-.797-.29a.99.99 0 0 1-.28-.718z" fill="url(#a)"/><defs><linearGradient id="a" x1="1.5" x2="91.5" y1="7" y2="7" gradientUnits="userSpaceOnUse"><stop offset="0" stop-color="#6A5EFF"/><stop offset=".222" stop-color="#C375FF"/><stop offset=".534" stop-color="#75BDFF"/><stop offset=".805" stop-color="#FF847C"/><stop offset="1" stop-color="#FFCE9C"/></linearGradient></defs></svg>