<svg width="92" height="16" viewBox="0 0 92 16" fill="none" xmlns="http://www.w3.org/2000/svg">
<path d="M10.0781 9.1875L11.8281 0.625H13.7891L11.1641 12H9.27344L7.10938 3.69531L4.89844 12H3L0.375 0.625H2.33594L4.10156 9.17188L6.27344 0.625H7.92969L10.0781 9.1875ZM18.6734 12.1562C17.4703 12.1562 16.4937 11.7786 15.7437 11.0234C14.999 10.263 14.6266 9.2526 14.6266 7.99219V7.75781C14.6266 6.91406 14.788 6.16146 15.1109 5.5C15.4391 4.83333 15.8974 4.3151 16.4859 3.94531C17.0745 3.57552 17.7307 3.39062 18.4547 3.39062C19.6057 3.39062 20.4937 3.75781 21.1187 4.49219C21.749 5.22656 22.0641 6.26562 22.0641 7.60938V8.375H16.5406C16.5979 9.07292 16.8297 9.625 17.2359 10.0312C17.6474 10.4375 18.163 10.6406 18.7828 10.6406C19.6526 10.6406 20.3609 10.2891 20.9078 9.58594L21.9312 10.5625C21.5927 11.0677 21.1396 11.4609 20.5719 11.7422C20.0094 12.0182 19.3766 12.1562 18.6734 12.1562ZM18.4469 4.91406C17.926 4.91406 17.5042 5.09635 17.1812 5.46094C16.8635 5.82552 16.6604 6.33333 16.5719 6.98438H20.1891V6.84375C20.1474 6.20833 19.9781 5.72917 19.6812 5.40625C19.3844 5.07812 18.9729 4.91406 18.4469 4.91406ZM23.5891 4L22.6203 3.39844C23.0891 2.71615 23.3312 1.99479 23.3469 1.23438V0H25.0109V1.07812C25.0109 1.61458 24.8729 2.15625 24.5969 2.70312C24.326 3.24479 23.9901 3.67708 23.5891 4ZM31.2391 5.28125C30.9891 5.23958 30.7313 5.21875 30.4656 5.21875C29.5958 5.21875 29.0099 5.55208 28.7078 6.21875V12H26.8094V3.54688H28.6219L28.6688 4.49219C29.1271 3.75781 29.7625 3.39062 30.575 3.39062C30.8458 3.39062 31.0698 3.42708 31.2469 3.5L31.2391 5.28125ZM36.1547 12.1562C34.9516 12.1562 33.975 11.7786 33.225 11.0234C32.4802 10.263 32.1078 9.2526 32.1078 7.99219V7.75781C32.1078 6.91406 32.2693 6.16146 32.5922 5.5C32.9203 4.83333 33.3786 4.3151 33.9672 3.94531C34.5557 3.57552 35.212 3.39062 35.9359 3.39062C37.087 3.39062 37.975 3.75781 38.6 4.49219C39.2302 5.22656 39.5453 6.26562 39.5453 7.60938V8.375H34.0219C34.0792 9.07292 34.3109 9.625 34.7172 10.0312C35.1286 10.4375 35.6443 10.6406 36.2641 10.6406C37.1339 10.6406 37.8422 10.2891 38.3891 9.58594L39.4125 10.5625C39.074 11.0677 38.6208 11.4609 38.0531 11.7422C37.4906 12.0182 36.8578 12.1562 36.1547 12.1562ZM35.9281 4.91406C35.4073 4.91406 34.9854 5.09635 34.6625 5.46094C34.3448 5.82552 34.1417 6.33333 34.0531 6.98438H37.6703V6.84375C37.6286 6.20833 37.4594 5.72917 37.1625 5.40625C36.8656 5.07812 36.4542 4.91406 35.9281 4.91406ZM54.525 12H52.5563V6.94531H47.4703V12H45.4938V0.625H47.4703V5.35938H52.5563V0.625H54.525V12ZM58.8547 12H56.9562V3.54688H58.8547V12ZM56.8391 1.35156C56.8391 1.0599 56.9302 0.817708 57.1125 0.625C57.3 0.432292 57.5656 0.335938 57.9094 0.335938C58.2531 0.335938 58.5187 0.432292 58.7062 0.625C58.8937 0.817708 58.9875 1.0599 58.9875 1.35156C58.9875 1.63802 58.8937 1.8776 58.7062 2.07031C58.5187 2.25781 58.2531 2.35156 57.9094 2.35156C57.5656 2.35156 57.3 2.25781 57.1125 2.07031C56.9302 1.8776 56.8391 1.63802 56.8391 1.35156ZM65.5047 5.28125C65.2547 5.23958 64.9969 5.21875 64.7313 5.21875C63.8615 5.21875 63.2755 5.55208 62.9734 6.21875V12H61.075V3.54688H62.8875L62.9344 4.49219C63.3927 3.75781 64.0281 3.39062 64.8406 3.39062C65.1115 3.39062 65.3354 3.42708 65.5125 3.5L65.5047 5.28125ZM68.8734 12H66.975V3.54688H68.8734V12ZM66.8578 1.35156C66.8578 1.0599 66.949 0.817708 67.1312 0.625C67.3187 0.432292 67.5844 0.335938 67.9281 0.335938C68.2719 0.335938 68.5375 0.432292 68.725 0.625C68.9125 0.817708 69.0062 1.0599 69.0062 1.35156C69.0062 1.63802 68.9125 1.8776 68.725 2.07031C68.5375 2.25781 68.2719 2.35156 67.9281 2.35156C67.5844 2.35156 67.3187 2.25781 67.1312 2.07031C66.949 1.8776 66.8578 1.63802 66.8578 1.35156ZM72.8594 3.54688L72.9141 4.52344C73.5391 3.76823 74.3594 3.39062 75.375 3.39062C77.1354 3.39062 78.0312 4.39844 78.0625 6.41406V12H76.1641V6.52344C76.1641 5.98698 76.0469 5.59115 75.8125 5.33594C75.5833 5.07552 75.2057 4.94531 74.6797 4.94531C73.9141 4.94531 73.3438 5.29167 72.9688 5.98438V12H71.0703V3.54688H72.8594ZM79.8219 7.71094C79.8219 6.39844 80.1292 5.35156 80.7438 4.57031C81.3635 3.78385 82.1839 3.39062 83.2047 3.39062C84.1682 3.39062 84.926 3.72656 85.4781 4.39844L85.5641 3.54688H87.275V11.7422C87.275 12.8516 86.9286 13.7266 86.2359 14.3672C85.5484 15.0078 84.6188 15.3281 83.4469 15.3281C82.8271 15.3281 82.2203 15.1979 81.6266 14.9375C81.038 14.6823 80.5901 14.3464 80.2828 13.9297L81.1813 12.7891C81.7646 13.4818 82.4833 13.8281 83.3375 13.8281C83.9677 13.8281 84.4651 13.6562 84.8297 13.3125C85.1943 12.974 85.3766 12.474 85.3766 11.8125V11.2422C84.8297 11.8516 84.1005 12.1562 83.1891 12.1562C82.1995 12.1562 81.3896 11.763 80.7594 10.9766C80.1344 10.1901 79.8219 9.10156 79.8219 7.71094ZM81.7125 7.875C81.7125 8.72396 81.8844 9.39323 82.2281 9.88281C82.5771 10.3672 83.0589 10.6094 83.6734 10.6094C84.4391 10.6094 85.0068 10.2812 85.3766 9.625V5.90625C85.0172 5.26562 84.4547 4.94531 83.6891 4.94531C83.0641 4.94531 82.5771 5.19271 82.2281 5.6875C81.8844 6.18229 81.7125 6.91146 81.7125 7.875ZM91.3938 8.64844H89.7609L89.5813 0.625H91.5813L91.3938 8.64844ZM89.5266 11.1016C89.5266 10.8047 89.6229 10.5599 89.8156 10.3672C90.0083 10.1693 90.2714 10.0703 90.6047 10.0703C90.938 10.0703 91.201 10.1693 91.3938 10.3672C91.5865 10.5599 91.6828 10.8047 91.6828 11.1016C91.6828 11.388 91.5891 11.6276 91.4016 11.8203C91.2141 12.013 90.9484 12.1094 90.6047 12.1094C90.2609 12.1094 89.9953 12.013 89.8078 11.8203C89.6203 11.6276 89.5266 11.388 89.5266 11.1016Z" fill="url(#paint0_linear)"/>
<defs>
<linearGradient id="paint0_linear" x1="1.5" y1="7" x2="91.5" y2="7" gradientUnits="userSpaceOnUse">
<stop stop-color="#9400D4"/>
<stop offset="0.0001" stop-color="#271AC5"/>
<stop offset="0.221875" stop-color="#720FBE"/>
<stop offset="0.534375" stop-color="#256EFB"/>
<stop offset="0.805208" stop-color="#EB392D"/>
<stop offset="1" stop-color="#EF871D"/>
</linearGradient>
</defs>
</svg>
