<svg width="16" height="19" viewBox="0 0 16 19" xmlns="http://www.w3.org/2000/svg">
<path d="M15.1998 0.398438H11.5998V1.59844H4.3998V0.398438H0.799805V18.3984H4.3998V17.1984H11.5998V18.3984H15.1998V0.398438ZM3.1998 1.59844V2.79844H1.9998V1.59844H3.1998ZM13.9998 1.59844V2.79844H12.7998V1.59844H13.9998ZM11.5998 2.79844V8.79844H4.3998V2.79844H11.5998ZM3.1998 3.99844V5.19844H1.9998V3.99844H3.1998ZM13.9998 3.99844V5.19844H12.7998V3.99844H13.9998ZM3.1998 6.39844V7.59844H1.9998V6.39844H3.1998ZM13.9998 6.39844V7.59844H12.7998V6.39844H13.9998ZM3.1998 8.79844V9.99844H1.9998V8.79844H3.1998ZM13.9998 8.79844V9.99844H12.7998V8.79844H13.9998ZM11.5998 9.99844V15.9984H4.3998V9.99844H11.5998ZM3.1998 11.1984V12.3984H1.9998V11.1984H3.1998ZM13.9998 11.1984V12.3984H12.7998V11.1984H13.9998ZM3.1998 13.5984V14.7984H1.9998V13.5984H3.1998ZM13.9998 13.5984V14.7984H12.7998V13.5984H13.9998ZM3.1998 15.9984V17.1984H1.9998V15.9984H3.1998ZM13.9998 15.9984V17.1984H12.7998V15.9984H13.9998Z" />
</svg>
