<svg width="322" height="244" viewBox="0 0 322 244" fill="none" xmlns="http://www.w3.org/2000/svg">
    <g clip-path="url(#clip0)">
        <path d="M125.124 20.959H125.563C123.144 14.0701 116.643 9.12109 108.989 9.12109C101.327 9.12109 94.8351 14.0701 92.4158 20.959H90.9521C85.5195 20.959 81.1113 25.3734 81.1113 30.8138V33.2021H134.965V30.8138C134.965 25.3734 130.565 20.959 125.124 20.959Z" fill="white" stroke="black" stroke-width="2.4232" stroke-miterlimit="10" stroke-linecap="round" stroke-linejoin="round"/>
        <path d="M123.85 21.9327H124.16C122.429 17.0096 117.789 13.4746 112.321 13.4746C106.854 13.4746 102.214 17.0096 100.483 21.9327H99.4415C95.5585 21.9327 92.416 25.0883 92.416 28.9682V30.6753H130.884V28.9682C130.884 25.0797 127.733 21.9327 123.85 21.9327Z" fill="#118E8E"/>
        <path d="M45.0544 208.407H45.4935C43.0742 201.518 36.5825 196.578 28.92 196.578C21.2574 196.578 14.7657 201.527 12.3464 208.416H10.8828C5.45012 208.416 1.04199 212.83 1.04199 218.271V220.659H54.8952V218.271C54.8952 212.822 50.4957 208.407 45.0544 208.407Z" fill="white" stroke="black" stroke-width="2.4232" stroke-miterlimit="10" stroke-linecap="round" stroke-linejoin="round"/>
        <path d="M43.7804 209.382H44.0904C42.3598 204.459 37.7192 200.924 32.2521 200.924C26.785 200.924 22.1444 204.459 20.4139 209.382H19.3721C15.4892 209.382 12.3467 212.538 12.3467 216.417V218.133H50.8145V216.426C50.8145 212.538 47.6634 209.382 43.7804 209.382Z" fill="#118E8E"/>
        <path d="M267.295 93.7375H267.734C265.314 86.8486 258.823 81.9082 251.16 81.9082C243.498 81.9082 237.006 86.8572 234.587 93.7461H233.123C227.69 93.7461 223.282 98.1605 223.282 103.601V105.989H277.135V103.601C277.135 98.1519 272.736 93.7375 267.295 93.7375Z" fill="white" stroke="black" stroke-width="2.4232" stroke-miterlimit="10" stroke-linecap="round" stroke-linejoin="round"/>
        <path d="M266.021 94.712H266.331C264.6 89.7889 259.959 86.2539 254.492 86.2539C249.025 86.2539 244.385 89.7889 242.654 94.712H241.612C237.729 94.712 234.587 97.8676 234.587 101.747V103.463H273.055V101.756C273.055 97.8676 269.904 94.712 266.021 94.712Z" fill="#118E8E"/>
        <path d="M176.403 195.596V198.863H173.14" stroke="black" stroke-width="2.4232" stroke-linecap="round" stroke-linejoin="round"/>
        <path d="M166.519 198.863H77.1514" stroke="black" stroke-width="2.4232" stroke-linecap="round" stroke-linejoin="round" stroke-dasharray="7.69 7.69"/>
        <path d="M73.8451 198.863H70.582V195.596" stroke="black" stroke-width="2.4232" stroke-linecap="round" stroke-linejoin="round"/>
        <path d="M70.582 189.086V110.963C70.582 108.643 72.4589 106.764 74.7749 106.764H172.219C174.535 106.764 176.412 108.643 176.412 110.963V192.345" stroke="black" stroke-width="2.4232" stroke-linecap="round" stroke-linejoin="round" stroke-dasharray="7.55 7.55"/>
        <path d="M210.463 171.291H104.642V83.3903C104.642 81.071 106.519 79.1914 108.834 79.1914H206.278C208.594 79.1914 210.471 81.071 210.471 83.3903V171.291H210.463Z" fill="#118E8E"/>
        <path d="M189.446 185.8H83.6255V97.9C83.6255 95.5807 85.5024 93.7012 87.8184 93.7012H185.262C187.578 93.7012 189.455 95.5807 189.455 97.9V185.8H189.446Z" fill="white" stroke="black" stroke-width="2.4232" stroke-miterlimit="10" stroke-linecap="round" stroke-linejoin="round"/>
        <path d="M189.446 111.574H83.6255V97.9C83.6255 95.5807 85.5024 93.7012 87.8184 93.7012H185.262C187.578 93.7012 189.455 95.5807 189.455 97.9V111.574H189.446Z" fill="#F1F6F8" stroke="black" stroke-width="2.4232" stroke-miterlimit="10" stroke-linecap="round" stroke-linejoin="round"/>
        <path d="M120.854 158.582L125.52 171.394" stroke="black" stroke-width="2.4232" stroke-miterlimit="10" stroke-linecap="round" stroke-linejoin="round"/>
        <path d="M125.812 157.686L130.186 169.687" stroke="black" stroke-width="2.4232" stroke-miterlimit="10" stroke-linecap="round" stroke-linejoin="round"/>
        <path d="M130.522 159.211L118.529 163.591" stroke="black" stroke-width="2.4232" stroke-miterlimit="10" stroke-linecap="round" stroke-linejoin="round"/>
        <path d="M132.218 163.885L121.025 167.972" stroke="black" stroke-width="2.4232" stroke-miterlimit="10" stroke-linecap="round" stroke-linejoin="round"/>
        <path d="M140.044 140.303L149.653 149.709" stroke="black" stroke-width="2.7044" stroke-miterlimit="10" stroke-linecap="round"/>
        <path d="M140.156 149.813L149.541 140.191" stroke="black" stroke-width="2.7044" stroke-miterlimit="10" stroke-linecap="round"/>
        <path d="M163.747 140.027L173.355 149.425" stroke="black" stroke-width="2.7044" stroke-miterlimit="10" stroke-linecap="round"/>
        <path d="M163.858 149.538L173.243 139.916" stroke="black" stroke-width="2.7044" stroke-miterlimit="10" stroke-linecap="round"/>
        <path d="M139.545 180.405C139.433 170.688 147.208 162.713 156.911 162.601C166.614 162.489 174.578 170.274 174.69 179.991L139.545 180.405Z" fill="#F1F6F8"/>
        <path d="M139.545 180.405C139.433 170.688 147.208 162.713 156.911 162.601C166.614 162.489 174.578 170.274 174.69 179.991L139.545 180.405Z" stroke="black" stroke-width="2.4232" stroke-miterlimit="10" stroke-linecap="round" stroke-linejoin="round"/>
        <path d="M165.167 192.863C162.257 192.898 159.872 190.561 159.838 187.647L159.717 177.525L170.264 177.404L170.385 187.526C170.41 190.441 168.077 192.829 165.167 192.863Z" fill="#FEAAA8"/>
        <path d="M165.167 192.863C162.257 192.898 159.872 190.561 159.838 187.647L159.717 177.525L170.264 177.404L170.385 187.526C170.41 190.441 168.077 192.829 165.167 192.863Z" stroke="black" stroke-width="2.4232" stroke-miterlimit="10" stroke-linecap="round" stroke-linejoin="round"/>
        <path d="M96.0151 103.375C96.0151 104.651 94.982 105.686 93.7078 105.686C92.4335 105.686 91.4004 104.651 91.4004 103.375C91.4004 102.099 92.4335 101.064 93.7078 101.064C94.982 101.064 96.0151 102.099 96.0151 103.375Z" fill="#FFCA04"/>
        <path d="M107.354 103.375C107.354 104.651 106.321 105.686 105.047 105.686C103.772 105.686 102.739 104.651 102.739 103.375C102.739 102.099 103.772 101.064 105.047 101.064C106.321 101.064 107.354 102.099 107.354 103.375Z" fill="#FEAAA8"/>
        <path d="M118.693 103.375C118.693 104.651 117.66 105.686 116.385 105.686C115.111 105.686 114.078 104.651 114.078 103.375C114.078 102.099 115.111 101.064 116.385 101.064C117.66 101.064 118.693 102.099 118.693 103.375Z" fill="#118E8E"/>
        <path d="M93.7076 101.065C94.9818 101.065 96.015 102.1 96.015 103.376C96.015 104.652 94.9818 105.686 93.7076 105.686C92.4334 105.686 91.4002 104.652 91.4002 103.376C91.3916 102.1 92.4248 101.065 93.7076 101.065ZM93.7076 99.9785C91.8307 99.9785 90.3154 101.505 90.3154 103.384C90.3154 105.264 91.8393 106.781 93.7076 106.781C95.5845 106.781 97.1084 105.255 97.1084 103.384C97.0998 101.505 95.5759 99.9785 93.7076 99.9785Z" fill="black"/>
        <path d="M105.046 101.065C106.321 101.065 107.354 102.1 107.354 103.376C107.354 104.652 106.321 105.686 105.046 105.686C103.772 105.686 102.739 104.652 102.739 103.376C102.73 102.1 103.763 101.065 105.046 101.065ZM105.046 99.9785C103.169 99.9785 101.646 101.505 101.646 103.384C101.646 105.264 103.169 106.781 105.046 106.781C106.923 106.781 108.438 105.255 108.438 103.384C108.438 101.505 106.915 99.9785 105.046 99.9785Z" fill="black"/>
        <path d="M116.377 101.065C117.651 101.065 118.684 102.1 118.684 103.376C118.684 104.652 117.651 105.686 116.377 105.686C115.103 105.686 114.07 104.652 114.07 103.376C114.07 102.1 115.103 101.065 116.377 101.065ZM116.377 99.9785C114.5 99.9785 112.976 101.505 112.976 103.384C112.976 105.264 114.5 106.781 116.377 106.781C118.254 106.781 119.769 105.255 119.769 103.384C119.778 101.505 118.254 99.9785 116.377 99.9785Z" fill="black"/>
        <path d="M50.9605 65.8369C50.5473 64.4229 50.4181 63.0261 50.5645 61.6466C50.7109 60.2671 51.15 58.9393 51.8818 57.6633C52.6136 56.3959 53.6381 55.2492 54.9726 54.2232C56.6859 52.904 58.2959 52.0418 59.8026 51.6366C61.3093 51.2227 62.6782 51.102 63.918 51.2658C65.1578 51.4297 66.234 51.8004 67.1553 52.3781C68.0765 52.9557 68.8083 53.5938 69.3421 54.2921C70.2289 55.4475 70.8143 56.5252 71.0812 57.4995C71.3567 58.4824 71.4687 59.4049 71.4342 60.2844C71.3998 61.1552 71.2448 61.9915 70.9951 62.7847C70.7369 63.5779 70.513 64.3453 70.315 65.0868C70.117 65.8369 70.0223 66.587 70.0136 67.3629C70.0136 68.1303 70.2375 68.9235 70.6938 69.7167L71.7528 71.0962L66.8711 74.8554L65.6227 73.2258C64.8995 72.1309 64.4346 71.1049 64.2194 70.1565C64.0041 69.208 63.9266 68.3114 63.9869 67.4837C64.0386 66.656 64.1677 65.8714 64.3743 65.1385C64.581 64.4056 64.7446 63.6986 64.8823 63.0261C65.0115 62.345 65.0373 61.6897 64.9598 61.0603C64.8823 60.4309 64.581 59.8015 64.0558 59.1635C63.2034 58.0513 62.2994 57.4391 61.3524 57.327C60.4053 57.215 59.441 57.5254 58.4767 58.2668C57.8224 58.7669 57.3575 59.3273 57.082 59.9395C56.8065 60.5516 56.6773 61.1897 56.7032 61.8449C56.729 62.5002 56.884 63.1641 57.1767 63.8452C57.4694 64.5263 57.8655 65.1902 58.3648 65.8455L53.0441 69.9323C52.0626 68.6131 51.3652 67.2422 50.9605 65.8369ZM73.7158 73.0448L77.9948 78.6232L72.3124 82.9945L68.0334 77.4161L73.7158 73.0448Z" fill="black"/>
        <path d="M55.0501 97.9457C54.2752 97.5232 53.6209 96.98 53.1043 96.3248C52.5791 95.6695 52.2003 94.9194 51.9764 94.0658C51.744 93.2122 51.7009 92.2811 51.8301 91.2809C52.0023 89.9876 52.3208 88.9358 52.7857 88.1167C53.2507 87.2976 53.7844 86.6596 54.3785 86.2026C54.9726 85.7457 55.5925 85.4439 56.2296 85.2973C56.8667 85.1508 57.4521 85.1076 57.9773 85.1766C58.8469 85.2887 59.5529 85.5043 60.0867 85.7974C60.6205 86.0992 61.0682 86.444 61.4212 86.832C61.7742 87.22 62.0669 87.6425 62.2994 88.0822C62.5232 88.5305 62.7557 88.953 62.9881 89.3496C63.2206 89.7549 63.5047 90.117 63.8319 90.4446C64.159 90.7722 64.5895 91.0137 65.1233 91.1602L66.1565 91.2982L65.6743 94.9797L64.4432 94.8418C63.6683 94.6866 63.0312 94.4452 62.5404 94.1348C62.0497 93.8158 61.6364 93.4709 61.3006 93.1002C60.9735 92.7208 60.698 92.3328 60.4655 91.9362C60.2417 91.5396 60.0092 91.1602 59.7767 90.8154C59.5443 90.4705 59.2774 90.1773 58.9761 89.9445C58.6747 89.7117 58.2787 89.5738 57.7793 89.5221C56.9442 89.41 56.2985 89.5393 55.8421 89.8928C55.3858 90.2463 55.1103 90.7895 55.0156 91.5223C54.9467 92.0138 54.9898 92.4535 55.1362 92.8329C55.2825 93.2122 55.4978 93.5399 55.7819 93.8072C56.0746 94.0744 56.419 94.2986 56.8323 94.4624C57.2455 94.6262 57.6932 94.7469 58.184 94.8073L57.6846 98.8079C56.7031 98.6613 55.8249 98.3768 55.0501 97.9457ZM67.8181 91.3154L72.0196 91.8672L71.46 96.1523L67.2585 95.6005L67.8181 91.3154Z" fill="black"/>
        <path d="M84.5382 65.4578C84.8481 64.6301 85.2872 63.9058 85.8554 63.2937C86.4237 62.6815 87.1124 62.1987 87.9217 61.8452C88.7311 61.4917 89.6437 61.3106 90.651 61.302C91.9511 61.2848 93.0445 61.4486 93.9141 61.7935C94.7922 62.1383 95.4982 62.5781 96.032 63.104C96.5744 63.6299 96.9619 64.199 97.1943 64.8111C97.4354 65.4233 97.5559 65.9923 97.5645 66.5269C97.5731 67.4063 97.4698 68.1306 97.2546 68.7082C97.0307 69.2773 96.7552 69.7687 96.4195 70.1826C96.0837 70.5878 95.7135 70.9413 95.3088 71.2258C94.9042 71.519 94.5167 71.8035 94.1551 72.0966C93.7935 72.3898 93.475 72.7174 93.1908 73.0882C92.9153 73.4589 92.7431 73.9245 92.6743 74.4763L92.6915 75.5195L88.9807 75.5713L88.9635 74.3297C89.0066 73.5365 89.1529 72.8726 89.394 72.3381C89.6351 71.8035 89.9192 71.3465 90.2377 70.9672C90.5649 70.5878 90.9093 70.2602 91.2709 69.9757C91.6325 69.6998 91.9683 69.4152 92.2782 69.1393C92.5882 68.8634 92.8378 68.553 93.0187 68.2168C93.2081 67.8805 93.2855 67.4667 93.2597 66.9752C93.2511 66.1303 93.0359 65.5095 92.614 65.1129C92.1921 64.7163 91.6239 64.518 90.8921 64.5266C90.4013 64.5352 89.9708 64.6387 89.6178 64.837C89.2648 65.0353 88.9721 65.294 88.7483 65.6216C88.5244 65.9492 88.3608 66.3286 88.2575 66.7597C88.1542 67.1908 88.1025 67.6564 88.1112 68.1478L84.0732 68.1995C84.0732 67.1994 84.2282 66.2855 84.5382 65.4578ZM92.9326 77.1577L92.9928 81.3997L88.6794 81.46L88.6191 77.2181L92.9326 77.1577Z" fill="black"/>
        <path d="M314.742 188.527H297.824C297.42 188.527 297.084 188.855 297.084 189.269C297.084 189.674 297.411 190.01 297.824 190.01H314.742C315.147 190.01 315.483 189.683 315.483 189.269C315.483 188.864 315.147 188.527 314.742 188.527Z" fill="black"/>
        <path d="M292.444 188.527H289.137C288.733 188.527 288.397 188.855 288.397 189.269C288.397 189.683 288.724 190.01 289.137 190.01H292.444C292.848 190.01 293.184 189.683 293.184 189.269C293.184 188.855 292.848 188.527 292.444 188.527Z" fill="black"/>
        <path d="M306.796 194.433C306.796 194.838 306.468 195.174 306.055 195.174H303.937C303.533 195.174 303.197 194.847 303.197 194.433C303.197 194.028 303.524 193.691 303.937 193.691H306.055C306.46 193.691 306.796 194.028 306.796 194.433ZM300.975 194.433C300.975 194.838 300.648 195.174 300.235 195.174H296.533C296.128 195.174 295.792 194.847 295.792 194.433C295.792 194.028 296.12 193.691 296.533 193.691H300.235C300.648 193.691 300.975 194.028 300.975 194.433ZM293.571 194.433C293.571 194.838 293.244 195.174 292.831 195.174H289.129C288.724 195.174 288.388 194.847 288.388 194.433C288.388 194.028 288.715 193.691 289.129 193.691H292.831C293.244 193.691 293.571 194.028 293.571 194.433Z" fill="black"/>
        <path d="M317.894 203.82C317.489 203.82 317.153 204.148 317.153 204.562V206.278C317.153 206.683 317.48 207.019 317.894 207.019C318.298 207.019 318.634 206.691 318.634 206.278V204.562C318.634 204.148 318.307 203.82 317.894 203.82Z" fill="black"/>
        <path d="M315.965 202.098H314.252C313.847 202.098 313.511 202.425 313.511 202.839C313.511 203.253 313.847 203.581 314.252 203.581H315.965C316.37 203.581 316.705 203.253 316.705 202.839C316.705 202.425 316.37 202.098 315.965 202.098Z" fill="black"/>
        <path d="M317.894 198.527C317.489 198.527 317.153 198.855 317.153 199.269V200.985C317.153 201.39 317.48 201.726 317.894 201.726C318.298 201.726 318.634 201.398 318.634 200.985V199.269C318.634 198.864 318.307 198.527 317.894 198.527Z" fill="black"/>
        <path d="M321.552 201.977H319.839C319.434 201.977 319.099 202.304 319.099 202.718C319.099 203.123 319.426 203.46 319.839 203.46H321.552C321.957 203.46 322.293 203.132 322.293 202.718C322.293 202.304 321.957 201.977 321.552 201.977Z" fill="black"/>
        <path d="M57.2194 15.6309C56.8148 15.6309 56.479 15.9585 56.479 16.3723V18.0881C56.479 18.4933 56.8062 18.8296 57.2194 18.8296C57.6241 18.8296 57.9599 18.502 57.9599 18.0881V16.3723C57.9599 15.9585 57.6327 15.6309 57.2194 15.6309Z" fill="black"/>
        <path d="M55.2824 13.9062H53.569C53.1644 13.9062 52.8286 14.2339 52.8286 14.6477C52.8286 15.053 53.1558 15.3892 53.569 15.3892H55.2824C55.687 15.3892 56.0228 15.0616 56.0228 14.6477C56.0228 14.2339 55.6956 13.9062 55.2824 13.9062Z" fill="black"/>
        <path d="M57.2194 10.3457C56.8148 10.3457 56.479 10.6733 56.479 11.0872V12.8029C56.479 13.2082 56.8062 13.5444 57.2194 13.5444C57.6241 13.5444 57.9599 13.2168 57.9599 12.8029V11.0872C57.9599 10.6733 57.6327 10.3457 57.2194 10.3457Z" fill="black"/>
        <path d="M60.8785 13.7852H59.1652C58.7606 13.7852 58.4248 14.1128 58.4248 14.5266C58.4248 14.9319 58.752 15.2681 59.1652 15.2681H60.8785C61.2832 15.2681 61.619 14.9405 61.619 14.5266C61.619 14.1214 61.2832 13.7852 60.8785 13.7852Z" fill="black"/>
        <path d="M165.959 7.79352H182.877C183.282 7.79352 183.618 7.46588 183.618 7.05203C183.618 6.6468 183.29 6.31055 182.877 6.31055H165.959C165.555 6.31055 165.219 6.63818 165.219 7.05203C165.219 7.45726 165.555 7.79352 165.959 7.79352Z" fill="black"/>
        <path d="M188.258 7.79352H191.564C191.969 7.79352 192.305 7.46588 192.305 7.05203C192.305 6.6468 191.977 6.31055 191.564 6.31055H188.258C187.853 6.31055 187.518 6.63818 187.518 7.05203C187.518 7.46588 187.853 7.79352 188.258 7.79352Z" fill="black"/>
        <path d="M173.906 1.88797C173.906 1.48274 174.233 1.14648 174.646 1.14648H176.764C177.169 1.14648 177.505 1.47412 177.505 1.88797C177.505 2.2932 177.177 2.62945 176.764 2.62945H174.646C174.242 2.62945 173.906 2.30182 173.906 1.88797ZM179.726 1.88797C179.726 1.48274 180.053 1.14648 180.466 1.14648H184.168C184.573 1.14648 184.909 1.47412 184.909 1.88797C184.909 2.2932 184.582 2.62945 184.168 2.62945H180.466C180.053 2.62945 179.726 2.30182 179.726 1.88797ZM187.122 1.88797C187.122 1.48274 187.449 1.14648 187.862 1.14648H191.564C191.969 1.14648 192.305 1.47412 192.305 1.88797C192.305 2.2932 191.977 2.62945 191.564 2.62945H187.862C187.457 2.62945 187.122 2.30182 187.122 1.88797Z" fill="black"/>
        <path d="M294.191 28.848C294.596 28.848 294.932 28.5203 294.932 28.1065V26.3821C294.932 25.9769 294.604 25.6406 294.191 25.6406C293.786 25.6406 293.451 25.9683 293.451 26.3821V28.0979C293.451 28.5117 293.786 28.848 294.191 28.848Z" fill="black"/>
        <path d="M296.128 30.5728H297.841C298.246 30.5728 298.582 30.2452 298.582 29.8313C298.582 29.4261 298.255 29.0898 297.841 29.0898H296.128C295.723 29.0898 295.388 29.4175 295.388 29.8313C295.388 30.2366 295.723 30.5728 296.128 30.5728Z" fill="black"/>
        <path d="M294.191 34.1323C294.596 34.1323 294.932 33.8047 294.932 33.3908V31.6751C294.932 31.2698 294.604 30.9336 294.191 30.9336C293.786 30.9336 293.451 31.2612 293.451 31.6751V33.3908C293.451 33.7961 293.786 34.1323 294.191 34.1323Z" fill="black"/>
        <path d="M290.541 30.6939H292.254C292.659 30.6939 292.994 30.3663 292.994 29.9524C292.994 29.5472 292.667 29.2109 292.254 29.2109H290.541C290.136 29.2109 289.8 29.5386 289.8 29.9524C289.8 30.3576 290.127 30.6939 290.541 30.6939Z" fill="black"/>
        <path d="M20.8439 56.7759H37.7619C38.1665 56.7759 38.5023 56.4483 38.5023 56.0345C38.5023 55.6292 38.1751 55.293 37.7619 55.293H20.8439C20.4393 55.293 20.1035 55.6206 20.1035 56.0345C20.1035 56.4483 20.4307 56.7759 20.8439 56.7759Z" fill="black"/>
        <path d="M12.1481 56.7759H15.4542C15.8589 56.7759 16.1947 56.4483 16.1947 56.0345C16.1947 55.6292 15.8675 55.293 15.4542 55.293H12.1481C11.7435 55.293 11.4077 55.6206 11.4077 56.0345C11.4077 56.4483 11.7435 56.7759 12.1481 56.7759Z" fill="black"/>
        <path d="M287.432 91.3926C287.432 91.3926 287.785 93.9102 284.85 93.8498C284.85 93.8498 287.372 93.8757 287.303 96.2381C287.303 96.2381 287.527 94.3844 289.843 93.9619C289.843 93.9619 287.889 94.4102 287.432 91.3926Z" fill="black"/>
        <path d="M147.956 0C147.956 0 148.309 2.5176 145.374 2.45724C145.374 2.45724 147.896 2.48311 147.827 4.84551C147.827 4.84551 148.051 2.9918 150.367 2.56933C150.367 2.56933 148.413 3.01767 147.956 0Z" fill="black"/>
        <path d="M7.79187 90.418C7.79187 90.418 8.14487 92.9356 5.20898 92.8752C5.20898 92.8752 7.7316 92.9011 7.66273 95.2635C7.66273 95.2635 7.88658 93.4098 10.2026 92.9873C10.2026 92.9873 8.24818 93.4356 7.79187 90.418Z" fill="black"/>
        <path d="M31.2358 189.639C31.2358 188.268 32.3465 187.156 33.7154 187.156C35.0843 187.156 36.195 188.268 36.195 189.639C36.195 191.01 35.0843 192.122 33.7154 192.122C32.3465 192.114 31.2358 191.002 31.2358 189.639ZM32.467 189.639C32.467 190.329 33.0266 190.89 33.7154 190.89C34.4042 190.89 34.9638 190.329 34.9638 189.639C34.9638 188.95 34.4042 188.389 33.7154 188.389C33.0266 188.381 32.467 188.941 32.467 189.639Z" fill="black"/>
        <path d="M243.386 141.217C243.386 139.847 244.496 138.734 245.865 138.734C247.234 138.734 248.345 139.847 248.345 141.217C248.345 142.588 247.234 143.701 245.865 143.701C244.496 143.701 243.386 142.588 243.386 141.217ZM244.608 141.217C244.608 141.907 245.168 142.468 245.857 142.468C246.545 142.468 247.105 141.907 247.105 141.217C247.105 140.528 246.545 139.967 245.857 139.967C245.168 139.967 244.608 140.528 244.608 141.217Z" fill="black"/>
        <path d="M168.095 215.436C168.095 214.065 169.205 212.953 170.574 212.953C171.943 212.953 173.054 214.065 173.054 215.436C173.054 216.807 171.943 217.919 170.574 217.919C169.205 217.919 168.095 216.807 168.095 215.436ZM169.326 215.436C169.326 216.126 169.886 216.686 170.574 216.686C171.263 216.686 171.823 216.126 171.823 215.436C171.823 214.746 171.263 214.186 170.574 214.186C169.886 214.186 169.326 214.746 169.326 215.436Z" fill="black"/>
        <path d="M128.749 48.0241C128.749 46.6532 129.859 45.541 131.228 45.541C132.597 45.541 133.708 46.6532 133.708 48.0241C133.708 49.395 132.597 50.5072 131.228 50.5072C129.859 50.5072 128.749 49.395 128.749 48.0241ZM129.971 48.0241C129.971 48.7139 130.531 49.2743 131.22 49.2743C131.908 49.2743 132.468 48.7139 132.468 48.0241C132.468 47.3344 131.908 46.7739 131.22 46.7739C130.531 46.7739 129.971 47.3344 129.971 48.0241Z" fill="black"/>
        <path d="M215.869 35.8164H213.123C212.787 35.8164 212.512 36.0923 212.512 36.4286C212.512 36.7648 212.787 37.0407 213.123 37.0407H215.869C216.205 37.0407 216.481 36.7648 216.481 36.4286C216.481 36.0923 216.205 35.8164 215.869 35.8164Z" fill="black"/>
        <path d="M234.38 35.8164H220.338C220.002 35.8164 219.727 36.0923 219.727 36.4286C219.727 36.7648 220.002 37.0407 220.338 37.0407H234.38C234.716 37.0407 234.991 36.7648 234.991 36.4286C234.991 36.0923 234.716 35.8164 234.38 35.8164Z" fill="black"/>
        <path d="M227.777 40.7137C227.777 41.05 227.501 41.3259 227.165 41.3259H225.409C225.073 41.3259 224.798 41.05 224.798 40.7137C224.798 40.3775 225.073 40.1016 225.409 40.1016H227.165C227.501 40.1016 227.777 40.3775 227.777 40.7137ZM222.955 40.7137C222.955 41.05 222.68 41.3259 222.344 41.3259H219.27C218.934 41.3259 218.659 41.05 218.659 40.7137C218.659 40.3775 218.934 40.1016 219.27 40.1016H222.344C222.68 40.1016 222.955 40.3775 222.955 40.7137ZM216.808 40.7137C216.808 41.05 216.532 41.3259 216.197 41.3259H213.123C212.787 41.3259 212.512 41.05 212.512 40.7137C212.512 40.3775 212.787 40.1016 213.123 40.1016H216.197C216.532 40.1016 216.808 40.3775 216.808 40.7137Z" fill="black"/>
        <path d="M45.4848 166.377C45.149 166.377 44.8735 166.653 44.8735 166.989V168.42C44.8735 168.757 45.149 169.033 45.4848 169.033C45.8206 169.033 46.0961 168.757 46.0961 168.42V166.989C46.1047 166.653 45.8292 166.377 45.4848 166.377Z" fill="black"/>
        <path d="M43.8834 164.945H42.4628C42.1271 164.945 41.8516 165.221 41.8516 165.557C41.8516 165.894 42.1271 166.17 42.4628 166.17H43.8834C44.2192 166.17 44.4947 165.894 44.4947 165.557C44.4947 165.221 44.2192 164.945 43.8834 164.945Z" fill="black"/>
        <path d="M45.4848 161.988C45.149 161.988 44.8735 162.264 44.8735 162.6V164.023C44.8735 164.359 45.149 164.635 45.4848 164.635C45.8206 164.635 46.0961 164.359 46.0961 164.023V162.6C46.1047 162.264 45.8292 161.988 45.4848 161.988Z" fill="black"/>
        <path d="M48.5239 164.842H47.0947C46.7589 164.842 46.4834 165.118 46.4834 165.454C46.4834 165.79 46.7589 166.066 47.0947 166.066H48.5153C48.851 166.066 49.1266 165.79 49.1266 165.454C49.1266 165.118 48.8597 164.842 48.5239 164.842Z" fill="black"/>
        <path d="M235.078 118.947C234.742 118.947 234.466 119.223 234.466 119.559V120.991C234.466 121.327 234.742 121.603 235.078 121.603C235.413 121.603 235.689 121.327 235.689 120.991V119.559C235.698 119.215 235.422 118.947 235.078 118.947Z" fill="black"/>
        <path d="M233.476 117.516H232.056C231.72 117.516 231.444 117.792 231.444 118.128C231.444 118.464 231.72 118.74 232.056 118.74H233.476C233.812 118.74 234.087 118.464 234.087 118.128C234.087 117.792 233.812 117.516 233.476 117.516Z" fill="black"/>
        <path d="M235.078 114.559C234.742 114.559 234.466 114.835 234.466 115.171V116.593C234.466 116.93 234.742 117.206 235.078 117.206C235.413 117.206 235.689 116.93 235.689 116.593V115.171C235.698 114.835 235.422 114.559 235.078 114.559Z" fill="black"/>
        <path d="M238.108 117.412H236.687C236.352 117.412 236.076 117.688 236.076 118.024C236.076 118.361 236.352 118.636 236.687 118.636H238.108C238.444 118.636 238.719 118.361 238.719 118.024C238.719 117.688 238.452 117.412 238.108 117.412Z" fill="black"/>
        <path d="M159.545 59.6211C159.21 59.6211 158.934 59.897 158.934 60.2332V61.6645C158.934 62.0007 159.21 62.2766 159.545 62.2766C159.881 62.2766 160.157 62.0007 160.157 61.6645V60.2332C160.165 59.897 159.89 59.6211 159.545 59.6211Z" fill="black"/>
        <path d="M157.944 58.1895H156.523C156.188 58.1895 155.912 58.4654 155.912 58.8016C155.912 59.1379 156.188 59.4138 156.523 59.4138H157.944C158.28 59.4138 158.555 59.1379 158.555 58.8016C158.555 58.4654 158.28 58.1895 157.944 58.1895Z" fill="black"/>
        <path d="M159.545 55.2324C159.21 55.2324 158.934 55.5083 158.934 55.8446V57.2672C158.934 57.6034 159.21 57.8793 159.545 57.8793C159.881 57.8793 160.157 57.6034 160.157 57.2672V55.8446C160.165 55.5083 159.89 55.2324 159.545 55.2324Z" fill="black"/>
        <path d="M162.576 58.0957H161.155C160.819 58.0957 160.544 58.3716 160.544 58.7079C160.544 59.0441 160.819 59.32 161.155 59.32H162.576C162.912 59.32 163.187 59.0441 163.187 58.7079C163.196 58.3716 162.92 58.0957 162.576 58.0957Z" fill="black"/>
        <path d="M201.035 194.33C200.699 194.33 200.424 194.606 200.424 194.942V196.373C200.424 196.71 200.699 196.986 201.035 196.986C201.371 196.986 201.646 196.71 201.646 196.373V194.942C201.655 194.606 201.38 194.33 201.035 194.33Z" fill="black"/>
        <path d="M199.434 192.898H198.013C197.677 192.898 197.402 193.174 197.402 193.511C197.402 193.847 197.677 194.123 198.013 194.123H199.434C199.77 194.123 200.045 193.847 200.045 193.511C200.045 193.174 199.77 192.898 199.434 192.898Z" fill="black"/>
        <path d="M201.035 189.941C200.699 189.941 200.424 190.217 200.424 190.554V191.976C200.424 192.312 200.699 192.588 201.035 192.588C201.371 192.588 201.646 192.312 201.646 191.976V190.554C201.655 190.217 201.38 189.941 201.035 189.941Z" fill="black"/>
        <path d="M204.066 192.795H202.645C202.309 192.795 202.034 193.071 202.034 193.407C202.034 193.743 202.309 194.019 202.645 194.019H204.066C204.401 194.019 204.677 193.743 204.677 193.407C204.685 193.071 204.41 192.795 204.066 192.795Z" fill="black"/>
        <path d="M234.561 174.447H248.603C248.939 174.447 249.215 174.171 249.215 173.835C249.215 173.499 248.939 173.223 248.603 173.223H234.561C234.225 173.223 233.95 173.499 233.95 173.835C233.941 174.171 234.217 174.447 234.561 174.447Z" fill="black"/>
        <path d="M227.346 174.447H230.093C230.428 174.447 230.704 174.171 230.704 173.835C230.704 173.499 230.428 173.223 230.093 173.223H227.346C227.01 173.223 226.735 173.499 226.735 173.835C226.735 174.171 227.01 174.447 227.346 174.447Z" fill="black"/>
        <path d="M49.3418 234.836H63.3841C63.7198 234.836 63.9953 234.56 63.9953 234.223C63.9953 233.887 63.7198 233.611 63.3841 233.611H49.3418C49.006 233.611 48.7305 233.887 48.7305 234.223C48.7305 234.56 49.006 234.836 49.3418 234.836Z" fill="black"/>
        <path d="M42.1269 234.836H44.8734C45.2092 234.836 45.4847 234.56 45.4847 234.223C45.4847 233.887 45.2092 233.611 44.8734 233.611H42.1269C41.7911 233.611 41.5156 233.887 41.5156 234.223C41.5156 234.56 41.7911 234.836 42.1269 234.836Z" fill="black"/>
        <path d="M207.027 208.762C206.622 208.762 206.287 209.089 206.287 209.503V211.219C206.287 211.624 206.614 211.96 207.027 211.96C207.432 211.96 207.767 211.633 207.767 211.219V209.503C207.767 209.089 207.44 208.762 207.027 208.762Z" fill="black"/>
        <path d="M205.09 207.037H203.377C202.972 207.037 202.636 207.365 202.636 207.779C202.636 208.184 202.963 208.52 203.377 208.52H205.09C205.495 208.52 205.83 208.192 205.83 207.779C205.83 207.365 205.503 207.037 205.09 207.037Z" fill="black"/>
        <path d="M207.027 203.477C206.622 203.477 206.287 203.804 206.287 204.218V205.934C206.287 206.339 206.614 206.675 207.027 206.675C207.432 206.675 207.767 206.348 207.767 205.934V204.218C207.767 203.804 207.44 203.477 207.027 203.477Z" fill="black"/>
        <path d="M210.686 206.916H208.973C208.568 206.916 208.232 207.244 208.232 207.658C208.232 208.063 208.56 208.399 208.973 208.399H210.686C211.091 208.399 211.427 208.071 211.427 207.658C211.427 207.252 211.091 206.916 210.686 206.916Z" fill="black"/>
    </g>
    <defs>
        <clipPath id="clip0">
            <rect width="322" height="244" fill="white"/>
        </clipPath>
    </defs>
</svg>
