<svg width="36" height="36" viewBox="0 0 36 36" fill="none" xmlns="http://www.w3.org/2000/svg">
<path fill-rule="evenodd" clip-rule="evenodd" d="M26.5238 16.5714C26.5238 22.068 22.068 26.5238 16.5714 26.5238C11.0749 26.5238 6.61905 22.068 6.61905 16.5714C6.61905 11.0749 11.0749 6.61905 16.5714 6.61905C22.068 6.61905 26.5238 11.0749 26.5238 16.5714ZM25.0022 27.2072C22.6867 29.0451 19.7573 30.1429 16.5714 30.1429C9.07613 30.1429 3 24.0667 3 16.5714C3 9.07613 9.07613 3 16.5714 3C24.0667 3 30.1429 9.07613 30.1429 16.5714C30.1429 19.7574 29.045 22.6869 27.207 25.0024L33.0001 30.7955L30.7953 33.0003L25.0022 27.2072Z" fill="#018786"/>
</svg>
