<svg width="56" height="56" viewBox="0 0 56 56" fill="none" xmlns="http://www.w3.org/2000/svg">
<path d="M6 8C6 5.79086 7.79086 4 10 4H46C48.2091 4 50 5.79086 50 8V41L44.5 46.5L39 52H10C7.79086 52 6 50.2091 6 48V8Z" fill="#FCC83A"/>
<g clip-path="url(#clip0)">
<path d="M44.1586 14.432L43.1463 13.728C42.2251 13.0884 41.0876 12.8407 39.9838 13.0393C38.8801 13.238 37.9003 13.8668 37.26 14.7875L23.0448 35.2441L21.226 44.8464C21.0142 45.9823 21.6489 46.4209 22.636 45.825L31.0035 40.7753L45.2181 20.3183C46.5524 18.4011 46.0762 15.7663 44.1586 14.432ZM34.0924 20.9557L35.5162 21.9448L25.7459 36.0052L24.322 35.0152L34.0924 20.9557ZM36.2691 22.4684L38.367 23.9267L28.5971 37.9866L26.4993 36.5288L36.2691 22.4684ZM25.269 43.1664L22.8035 41.4514L23.8773 35.8235L30.1671 40.1936L25.269 43.1664ZM30.7739 39.4998L29.3509 38.5096L39.1203 24.4498L40.5442 25.4398L30.7739 39.4998ZM41.1144 24.6194L34.6622 20.1364L35.7775 18.5309L42.2296 23.0139L41.1144 24.6194Z" fill="#FBD97B"/>
</g>
<path d="M39 52L29 52L34.5 46.5L40 41L39 52Z" fill="#9B7714"/>
<path d="M39 42C39 41.4477 39.4477 41 40 41H50L44.5 46.5L39 52V42Z" fill="#FFE9BD"/>
<defs>
<clipPath id="clip0">
<rect width="31.2878" height="31.2878" fill="white" transform="translate(15 16.5424) rotate(-10.2032)"/>
</clipPath>
</defs>
</svg>
