<svg width="40" height="40" viewBox="0 0 40 40" fill="none" xmlns="http://www.w3.org/2000/svg">
<g clip-path="url(#clip0)">
<path d="M40 20.0273C39.9971 21.0164 39.9212 22.004 39.7728 22.9819C39.6659 23.7477 39.5141 24.5066 39.3182 25.2546C39.1682 25.8114 38.9955 26.3546 38.8 26.891C38.4965 27.7229 38.1366 28.5331 37.7228 29.316C36.1347 32.3434 33.7971 34.9132 30.9332 36.7801C28.0692 38.6469 24.7745 39.7485 21.3637 39.9796C20.9091 40.0114 20.4546 40.0273 20 40.0273C19.5455 40.0273 19.091 40.0114 18.6364 39.9796C14.4835 39.6987 10.5218 38.1291 7.30334 35.4896C4.08491 32.8501 1.7702 29.2722 0.681868 25.2546C0.485988 24.5066 0.334211 23.7477 0.227323 22.9819C-0.180385 20.2517 -0.0184964 17.4667 0.702798 14.8021C1.42409 12.1375 2.68917 9.65113 4.41841 7.49941C6.14764 5.34768 8.30359 3.57723 10.7505 2.29949C13.1975 1.02174 15.8824 0.264379 18.6364 0.075071C18.7614 0.0637074 18.8864 0.0568893 19.0114 0.0500711C19.3387 0.0273438 19.6682 0.0273438 20 0.0273438C20.4546 0.0273438 20.9091 0.0432529 21.3637 0.075071C21.466 0.075071 21.566 0.0750711 21.666 0.0977984C26.6643 0.51559 31.3232 2.79623 34.7191 6.4876C38.1149 10.179 39.9998 15.0116 40 20.0273Z" fill="white" fill-opacity="0.87"/>
<path d="M39.7722 22.9492C39.6653 23.714 39.5135 24.4718 39.3176 25.2187H0.681276C0.485396 24.4718 0.333619 23.714 0.22673 22.9492H39.7722Z" fill="#121212"/>
<path d="M21.3639 0.0750033V39.923C20.9094 39.9547 20.4548 39.9706 20.0003 39.9706C19.5457 39.9706 19.0912 39.9547 18.6366 39.923V0.0750033C18.7616 0.0636558 18.8866 0.0568474 19.0116 0.0500389C19.3389 0.0273438 19.6684 0.0273438 20.0003 0.0273438C20.4548 0.0273438 20.9094 0.0432303 21.3639 0.0750033Z" fill="#121212"/>
<path d="M38.7911 26.8529C38.4876 27.6836 38.1277 28.4927 37.7139 29.2744L35.1184 25.2188L33.6661 22.9493L21.3639 3.72664L19.0116 0.0500389C19.3389 0.0273438 19.6684 0.0273438 20.0002 0.0273438C20.4548 0.0273438 20.9093 0.0432303 21.3639 0.0750033C21.4661 0.0750033 21.5661 0.0750034 21.6661 0.0976985L36.2934 22.9493L37.7457 25.2188L38.7911 26.8529Z" fill="#121212"/>
</g>
<defs>
<clipPath id="clip0">
<rect width="40" height="40" fill="white"/>
</clipPath>
</defs>
</svg>
