<svg width="40" height="40" viewBox="0 0 40 40"  xmlns="http://www.w3.org/2000/svg">
    <g clip-path="url(#clip0)">
        <path d="M40.0004 20.0287C39.9974 21.0178 39.9215 22.0053 39.7731 22.9832C39.6662 23.749 39.5144 24.5079 39.3186 25.2559C39.1686 25.8127 38.9958 26.3559 38.8004 26.8923C38.4968 27.7242 38.1369 28.5344 37.7231 29.3173C36.135 32.3447 33.7974 34.9145 30.9335 36.7814C28.0695 38.6483 24.7749 39.7498 21.364 39.9809C20.9095 40.0127 20.4549 40.0287 20.0004 40.0287C19.5458 40.0287 19.0913 40.0127 18.6367 39.9809C14.4839 39.7 10.5221 38.1304 7.30366 35.4909C4.08523 32.8514 1.77052 29.2735 0.682188 25.2559C0.486308 24.5079 0.334532 23.749 0.227643 22.9832C-0.180065 20.253 -0.018176 17.468 0.703118 14.8034C1.42441 12.1388 2.68949 9.65244 4.41873 7.50072C6.14797 5.349 8.30391 3.57854 10.7509 2.3008C13.1978 1.02305 15.8828 0.265692 18.6367 0.0763833C18.7617 0.0650197 18.8867 0.0582015 19.0117 0.0513834C19.339 0.0286561 19.6686 0.028656 20.0004 0.028656C20.4549 0.028656 20.9095 0.0445651 21.364 0.0763833C21.4663 0.0763833 21.5663 0.0763834 21.6663 0.0991106C26.6646 0.516902 31.3235 2.79754 34.7194 6.48891C38.1153 10.1803 40.0001 15.0129 40.0004 20.0287Z" />
        <path d="M39.7725 22.9492C39.6656 23.714 39.5138 24.4718 39.318 25.2187H0.681596C0.485716 24.4718 0.33394 23.714 0.227051 22.9492H39.7725Z" fill="white" stroke="white" stroke-width="0.25" stroke-miterlimit="10"/>
        <path d="M21.3635 0.074866V39.9228C20.909 39.9546 20.4544 39.9705 19.9999 39.9705C19.5453 39.9705 19.0908 39.9546 18.6362 39.9228V0.074866C18.7612 0.0635185 18.8862 0.0567101 19.0112 0.0499015C19.3385 0.0272065 19.668 0.0272064 19.9999 0.0272064C20.4544 0.0272064 20.909 0.043093 21.3635 0.074866Z" fill="white" stroke="white" stroke-width="0.25" stroke-miterlimit="10"/>
        <path d="M38.7908 26.8527C38.4872 27.6835 38.1273 28.4925 37.7135 29.2743L35.118 25.2187L33.6658 22.9492L21.3635 3.7265L19.0112 0.0499015C19.3385 0.0272065 19.668 0.0272064 19.9999 0.0272064C20.4544 0.0272064 20.909 0.043093 21.3635 0.074866C21.4658 0.074866 21.5658 0.0748661 21.6658 0.0975611L36.293 22.9492L37.7453 25.2187L38.7908 26.8527Z" fill="white" stroke="white" stroke-width="0.25" stroke-miterlimit="10"/>
    </g>
    <defs>
        <clipPath id="clip0">
            <rect width="40" height="40" fill="white"/>
        </clipPath>
    </defs>
</svg>
