<svg width="24" height="24" viewBox="0 0 24 24" fill="none" xmlns="http://www.w3.org/2000/svg">
<path d="M21.8997 18.0006H21.333V17.4339C21.333 17.2306 21.2522 17.0356 21.1085 16.8918C20.9647 16.748 20.7697 16.6672 20.5663 16.6672H18.6663V11.7539H15.9997V16.6672H13.333V11.7539H10.6663V16.6672H7.99967V11.7539H5.33301V16.6672H3.43301C3.22968 16.6672 3.03467 16.748 2.89089 16.8918C2.74711 17.0356 2.66634 17.2306 2.66634 17.4339V18.0006H2.09967C1.89634 18.0006 1.70134 18.0813 1.55756 18.2251C1.41378 18.3689 1.33301 18.5639 1.33301 18.7672V20.6672H22.6663V18.7672C22.6663 18.5639 22.5856 18.3689 22.4418 18.2251C22.298 18.0813 22.103 18.0006 21.8997 18.0006Z" fill="#018786"/>
<path d="M19.9996 8.99865C19.2937 9.00178 18.5952 8.85481 17.9504 8.56747C17.3056 8.28013 16.7292 7.85899 16.2596 7.33198H14.7662L12.1662 5.83865L9.56624 7.33198H7.42624L11.9062 4.75865C11.9873 4.71184 12.0793 4.68719 12.1729 4.68719C12.2665 4.68719 12.3585 4.71184 12.4396 4.75865L15.7729 6.67198C15.2656 5.87277 14.9973 4.94524 14.9996 3.99865V3.67865L11.9996 1.94531L1.66624 7.88531C1.58657 7.92699 1.51616 7.98435 1.45923 8.05395C1.4023 8.12354 1.36004 8.20394 1.33499 8.29029C1.30994 8.37664 1.30262 8.46717 1.31346 8.55642C1.3243 8.64568 1.35309 8.73182 1.39808 8.80967C1.44308 8.88751 1.50336 8.95545 1.57529 9.00939C1.64722 9.06333 1.72932 9.10217 1.81665 9.12356C1.90398 9.14495 1.99474 9.14846 2.08346 9.13386C2.17218 9.11927 2.25703 9.08688 2.33291 9.03865L3.33291 8.45198V10.6653H20.6662V8.94531C20.4455 8.97789 20.2227 8.99571 19.9996 8.99865Z" fill="#018786"/>
<path d="M21.293 8.82609L21.6663 9.03943C21.7838 9.1059 21.9187 9.13515 22.0531 9.1233C22.1876 9.11146 22.3153 9.05909 22.4193 8.97311C22.5233 8.88713 22.5988 8.77159 22.6358 8.64178C22.6728 8.51196 22.6694 8.37399 22.6263 8.24609C22.2127 8.50379 21.7635 8.69922 21.293 8.82609Z" fill="#018786"/>
<path d="M20.0003 7.33464C21.8413 7.33464 23.3337 5.84225 23.3337 4.0013C23.3337 2.16035 21.8413 0.667969 20.0003 0.667969C18.1594 0.667969 16.667 2.16035 16.667 4.0013C16.667 5.84225 18.1594 7.33464 20.0003 7.33464Z" fill="#018786"/>
</svg>
