<svg width="24" height="24" viewBox="0 0 24 24" fill="none" xmlns="http://www.w3.org/2000/svg">
<path d="M19.2595 1.86966C18.1522 0.607519 16.1505 0.0664062 13.5897 0.0664062H6.15766C5.9043 0.0664156 5.65925 0.156807 5.46657 0.321328C5.27389 0.48585 5.14621 0.71371 5.10651 0.963943L2.01194 20.5905C1.95043 20.9775 2.25011 21.3279 2.64237 21.3279H7.23067L8.38298 14.019L8.34722 14.2479C8.42931 13.7312 8.87117 13.3502 9.3944 13.3502H11.5747C15.858 13.3502 19.2119 11.6104 20.1916 6.57764C20.2207 6.42879 20.2459 6.28392 20.2677 6.14238C20.144 6.0769 20.144 6.0769 20.2677 6.14238C20.5594 4.28222 20.2657 3.01602 19.2595 1.86966Z" fill="#27346A"/>
<path d="M10.1386 5.47229C10.2641 5.41256 10.4013 5.38161 10.5402 5.38169H16.3668C17.0568 5.38169 17.7003 5.42659 18.2884 5.52124C18.4529 5.54748 18.6167 5.57881 18.7793 5.61517C19.0098 5.66604 19.2376 5.72828 19.4619 5.80169C19.751 5.89825 20.0203 6.0107 20.2678 6.14238C20.5594 4.28151 20.2657 3.01602 19.2595 1.86966C18.1515 0.607519 16.1505 0.0664062 13.5897 0.0664062H6.15702C5.63371 0.0664062 5.18852 0.447386 5.10651 0.963943L2.01194 20.5897C1.95043 20.9774 2.25011 21.3274 2.64174 21.3274H7.23067L9.62137 6.16686C9.64488 6.01784 9.70424 5.87677 9.79434 5.75578C9.88445 5.63479 10.0026 5.5375 10.1386 5.47229Z" fill="#27346A"/>
<path d="M20.195 6.57588C19.2153 11.6079 15.8615 13.3484 11.5781 13.3484H9.39715C8.87392 13.3484 8.43199 13.7295 8.35069 14.2461L6.91713 23.3339C6.86356 23.6726 7.1255 23.9795 7.46817 23.9795H11.336C11.5575 23.9795 11.7718 23.9004 11.9403 23.7564C12.1087 23.6125 12.2203 23.4132 12.2549 23.1944L12.2926 22.9973L13.0216 18.3772L13.0685 18.1219C13.1031 17.903 13.2147 17.7038 13.3831 17.5598C13.5516 17.4159 13.7658 17.3368 13.9874 17.3367H14.5662C18.313 17.3367 21.2468 15.8145 22.1041 11.4122C22.462 9.57247 22.2768 8.03647 21.3302 6.95758C21.043 6.6308 20.6865 6.36092 20.2711 6.14062C20.2486 6.28288 20.2242 6.42704 20.195 6.57588Z" fill="#2790C3"/>
<path d="M19.2421 5.73088C19.0894 5.68628 18.9352 5.64678 18.7798 5.61247C18.6171 5.5767 18.4534 5.54558 18.2889 5.51917C17.7002 5.42389 17.0571 5.37891 16.3665 5.37891H10.5406C10.4016 5.37859 10.2643 5.40981 10.1391 5.47022C10.0029 5.53523 9.8846 5.63246 9.79445 5.75349C9.7043 5.87451 9.64502 6.01569 9.62172 6.16479L8.38342 14.0163L8.34766 14.2452C8.42911 13.7285 8.87097 13.3475 9.39428 13.3475H11.5753C15.8585 13.3475 19.2123 11.6077 20.1921 6.57494C20.2212 6.42609 20.2457 6.28185 20.2682 6.13968C20.0201 6.00871 19.7516 5.89554 19.4624 5.79962C19.3894 5.77543 19.316 5.75252 19.2422 5.73088" fill="#1F264F"/>
</svg>
