<svg width="24" height="24" viewBox="0 0 24 24" fill="none" xmlns="http://www.w3.org/2000/svg">
<path fill-rule="evenodd" clip-rule="evenodd" d="M12.6887 15.9547V12.4927C12.6887 11.3692 13.4977 10.4557 14.4944 10.4557H21.1254V8.29866C21.1254 7.27566 20.5551 6.42066 19.7744 6.14166V6.14316L17.4435 6.12216L17.4153 6.03516H6.95272L6.75366 6.10716L3.06331 6.10416L3.05625 6.07266C2.15837 6.25266 1.43555 7.11666 1.43555 8.22816V20.1577C1.43555 21.4057 2.35037 22.4902 3.39931 22.4902H19.2308C20.2798 22.4902 21.1268 21.4762 21.1268 20.2282V18.0487H14.4958C13.4991 18.0487 12.6887 17.0782 12.6887 15.9547Z" fill="#018786"/>
<path fill-rule="evenodd" clip-rule="evenodd" d="M22.5823 12.0938H15.5136C14.7668 12.0938 14.1611 12.7958 14.1611 13.6613V14.8853C14.1611 15.7493 14.7668 16.4513 15.5136 16.4513H22.5823C23.3291 16.4513 23.9362 15.7493 23.9362 14.8853V13.6613C23.9362 12.7943 23.3291 12.0938 22.5823 12.0938ZM18.3964 15.0263H15.4854V13.5023H18.3964V15.0263Z" fill="#018786"/>
<path fill-rule="evenodd" clip-rule="evenodd" d="M6.95423 6.03462L16.3156 2.63112L17.4168 6.03462H19.2309C19.4215 6.03462 19.6022 6.07812 19.7759 6.13962L17.8149 0.078125L2.89258 5.35962L3.05775 6.07362C3.16928 6.05112 3.28364 6.03612 3.3994 6.03612H6.95423V6.03462Z" fill="#018786"/>
</svg>
