<svg width="48" height="48" viewBox="0 0 48 48" fill="none" xmlns="http://www.w3.org/2000/svg">
<rect width="48" height="48" rx="24" fill="url(#paint0_linear)"/>
<path d="M24 10.9688C16.8161 10.9688 10.9714 16.8134 10.9714 23.9973V29.3951C10.9714 30.7292 12.1401 31.8145 13.5771 31.8145H14.88C15.2255 31.8145 15.5569 31.6772 15.8013 31.4329C16.0456 31.1885 16.1829 30.8571 16.1829 30.5116V23.811C16.1829 23.4655 16.0456 23.1341 15.8013 22.8898C15.5569 22.6454 15.2255 22.5082 14.88 22.5082H13.697C14.4214 17.4661 18.7599 13.5745 24 13.5745C29.2401 13.5745 33.5786 17.4661 34.303 22.5082H33.12C32.7745 22.5082 32.4431 22.6454 32.1987 22.8898C31.9544 23.1341 31.8171 23.4655 31.8171 23.811V31.8145C31.8171 33.2515 30.6485 34.4202 29.2114 34.4202H26.6057V33.1173H21.3943V37.0259H29.2114C32.0855 37.0259 34.4229 34.6886 34.4229 31.8145C35.8599 31.8145 37.0286 30.7292 37.0286 29.3951V23.9973C37.0286 16.8134 31.184 10.9688 24 10.9688Z" fill="white"/>
<defs>
<linearGradient id="paint0_linear" x1="4.5" y1="7.5" x2="40.5" y2="41.5" gradientUnits="userSpaceOnUse">
<stop stop-color="#3ADF54"/>
<stop offset="1" stop-color="#2092E4"/>
</linearGradient>
</defs>
</svg>
