<svg width="120" height="120" viewBox="0 0 120 120" fill="none" xmlns="http://www.w3.org/2000/svg">
    <path d="M76.5985 23.4033L96.583 43.3878L92.8605 47.1107L72.876 27.1262L76.5985 23.4033Z" fill="black" fill-opacity="0.12"/>
    <path d="M78.2321 11.7673C79.2086 10.791 80.7916 10.791 81.7681 11.7673L108.232 38.2318C109.209 39.2081 109.209 40.791 108.232 41.7673L104.697 45.3028C103.721 46.2791 102.138 46.2791 101.161 45.3028L74.6966 18.8384C73.7206 17.862 73.7206 16.2791 74.6966 15.3028L78.2321 11.7673Z" fill="black" fill-opacity="0.12"/>
    <path fill-rule="evenodd" clip-rule="evenodd" d="M27.4997 15.0003C26.119 15.0003 24.9997 16.1196 24.9997 17.5003V25.0003H19.9998V17.5003C19.9998 13.3582 23.3576 10.0003 27.4997 10.0003H52.4997C56.6417 10.0003 59.9997 13.3582 59.9997 17.5003V25.0003H54.9997V17.5003C54.9997 16.1196 53.8802 15.0003 52.4997 15.0003H27.4997Z" fill="black" fill-opacity="0.12"/>
    <path fill-rule="evenodd" clip-rule="evenodd" d="M20 25C14.4772 25 10 29.4772 10 35V100C10 105.523 14.4772 110 20 110H85C90.523 110 95 105.523 95 100V55.715C95 53.0645 93.948 50.5225 92.0745 48.6473L81.719 38.2813L71.3665 27.929C69.491 26.0536 66.9475 25 64.2955 25H20ZM60.0001 45L35 75H45L40 95L65.0001 65H55L60.0001 45Z" fill="black" fill-opacity="0.12"/>
</svg>
