<svg width="100" height="24" viewBox="0 0 100 24" fill="none" xmlns="http://www.w3.org/2000/svg">
    <rect width="100" height="24" rx="4" fill="#212121" fill-opacity="0.08"/>
    <path d="M18.314 8L20 9.68593L19.686 10L18 8.31407L18.314 8Z" fill="black" fill-opacity="0.6"/>
    <path d="M18.4877 6.08368C18.5993 5.97211 18.7802 5.97211 18.8918 6.08368L21.9163 9.1082C22.0279 9.21977 22.0279 9.40068 21.9163 9.51225L21.5122 9.91632C21.4007 10.0279 21.2198 10.0279 21.1082 9.91632L18.0837 6.89181C17.9721 6.78023 17.9721 6.59932 18.0837 6.48775L18.4877 6.08368Z" fill="black" fill-opacity="0.6"/>
    <path fill-rule="evenodd" clip-rule="evenodd" d="M11.9375 6.66667C11.7649 6.66667 11.625 6.81591 11.625 7V8H11V7C11 6.44771 11.4197 6 11.9375 6H15.0625C15.5802 6 16 6.44771 16 7V8H15.375V7C15.375 6.81591 15.2351 6.66667 15.0625 6.66667H11.9375Z" fill="black" fill-opacity="0.6"/>
    <path fill-rule="evenodd" clip-rule="evenodd" d="M11.1765 8C10.5267 8 10 8.52672 10 9.17647V16.8235C10 17.4733 10.5267 18 11.1765 18H18.8235C19.4733 18 20 17.4733 20 16.8235V11.6135C20 11.3017 19.8762 11.0026 19.6558 10.782L18.4375 9.5625L17.2196 8.34458C16.9989 8.12395 16.6997 8 16.3877 8H11.1765ZM16.3333 10L13 13.9H14.3333L13.6667 16.5L17 12.6H15.6667L16.3333 10Z" fill="black" fill-opacity="0.6"/>
    <path d="M35.1533 17H33.4238L28.9873 9.93848V17H27.2578V7.04688H28.9873L33.4375 14.1357V7.04688H35.1533V17ZM40.79 17.1367C39.7373 17.1367 38.8828 16.8063 38.2266 16.1455C37.5749 15.4801 37.249 14.596 37.249 13.4932V13.2881C37.249 12.5498 37.3903 11.8913 37.6729 11.3125C37.96 10.7292 38.361 10.2757 38.876 9.95215C39.391 9.62858 39.9652 9.4668 40.5986 9.4668C41.6058 9.4668 42.3828 9.78809 42.9297 10.4307C43.4811 11.0732 43.7568 11.9824 43.7568 13.1582V13.8281H38.9238C38.974 14.4388 39.1768 14.9219 39.5322 15.2773C39.8923 15.6328 40.3434 15.8105 40.8857 15.8105C41.6468 15.8105 42.2666 15.5029 42.7451 14.8877L43.6406 15.7422C43.3444 16.1842 42.9479 16.5283 42.4512 16.7744C41.959 17.016 41.4053 17.1367 40.79 17.1367ZM40.5918 10.7998C40.1361 10.7998 39.7669 10.9593 39.4844 11.2783C39.2064 11.5973 39.0286 12.0417 38.9512 12.6113H42.1162V12.4883C42.0798 11.9323 41.9316 11.513 41.6719 11.2305C41.4121 10.9434 41.0521 10.7998 40.5918 10.7998ZM49.4482 14.9902C49.4482 14.694 49.3252 14.4684 49.0791 14.3135C48.8376 14.1585 48.4342 14.0218 47.8691 13.9033C47.304 13.7848 46.8324 13.6344 46.4541 13.4521C45.6247 13.0511 45.21 12.4701 45.21 11.709C45.21 11.071 45.4788 10.5378 46.0166 10.1094C46.5544 9.68099 47.238 9.4668 48.0674 9.4668C48.9515 9.4668 49.6647 9.68555 50.207 10.123C50.7539 10.5605 51.0273 11.1279 51.0273 11.8252H49.3662C49.3662 11.5062 49.2477 11.2419 49.0107 11.0322C48.7738 10.818 48.4593 10.7109 48.0674 10.7109C47.7028 10.7109 47.4043 10.7952 47.1719 10.9639C46.944 11.1325 46.8301 11.3581 46.8301 11.6406C46.8301 11.8958 46.9372 12.0941 47.1514 12.2354C47.3656 12.3766 47.7985 12.5202 48.4502 12.666C49.1019 12.8073 49.6123 12.9782 49.9814 13.1787C50.3551 13.3747 50.6309 13.6117 50.8086 13.8896C50.9909 14.1676 51.082 14.5049 51.082 14.9014C51.082 15.5667 50.8063 16.1068 50.2549 16.5215C49.7035 16.9316 48.9811 17.1367 48.0879 17.1367C47.4818 17.1367 46.9417 17.0273 46.4678 16.8086C45.9938 16.5898 45.6247 16.2891 45.3604 15.9062C45.096 15.5234 44.9639 15.111 44.9639 14.6689H46.5771C46.5999 15.0609 46.748 15.3639 47.0215 15.5781C47.2949 15.7878 47.6572 15.8926 48.1084 15.8926C48.5459 15.8926 48.8786 15.8105 49.1064 15.6465C49.3343 15.4779 49.4482 15.2591 49.4482 14.9902ZM52.4736 13.2334C52.4736 12.5088 52.6172 11.8571 52.9043 11.2783C53.1914 10.695 53.5947 10.2484 54.1143 9.93848C54.6338 9.62402 55.2308 9.4668 55.9053 9.4668C56.9033 9.4668 57.7122 9.78809 58.332 10.4307C58.9564 11.0732 59.2936 11.9255 59.3438 12.9873L59.3506 13.377C59.3506 14.1061 59.2093 14.7578 58.9268 15.332C58.6488 15.9062 58.2477 16.3506 57.7236 16.665C57.2041 16.9795 56.6025 17.1367 55.9189 17.1367C54.8753 17.1367 54.0391 16.7904 53.4102 16.0977C52.7858 15.4004 52.4736 14.473 52.4736 13.3154V13.2334ZM54.1348 13.377C54.1348 14.138 54.292 14.735 54.6064 15.168C54.9209 15.5964 55.3584 15.8105 55.9189 15.8105C56.4795 15.8105 56.9147 15.5918 57.2246 15.1543C57.5391 14.7168 57.6963 14.0765 57.6963 13.2334C57.6963 12.486 57.5345 11.8936 57.2109 11.4561C56.8919 11.0186 56.4567 10.7998 55.9053 10.7998C55.363 10.7998 54.9323 11.0163 54.6133 11.4492C54.2943 11.8776 54.1348 12.5202 54.1348 13.377ZM70.8838 12.7822H66.8779V17H65.1484V7.04688H71.4717V8.44141H66.8779V11.4014H70.8838V12.7822ZM77.5117 16.2754C77.0241 16.8496 76.3314 17.1367 75.4336 17.1367C74.6315 17.1367 74.0231 16.902 73.6084 16.4326C73.1982 15.9632 72.9932 15.2842 72.9932 14.3955V9.60352H74.6543V14.375C74.6543 15.3138 75.0439 15.7832 75.8232 15.7832C76.6299 15.7832 77.1745 15.4938 77.457 14.915V9.60352H79.1182V17H77.5527L77.5117 16.2754ZM84.3174 17.1367C83.2646 17.1367 82.4102 16.8063 81.7539 16.1455C81.1022 15.4801 80.7764 14.596 80.7764 13.4932V13.2881C80.7764 12.5498 80.9176 11.8913 81.2002 11.3125C81.4873 10.7292 81.8883 10.2757 82.4033 9.95215C82.9183 9.62858 83.4925 9.4668 84.126 9.4668C85.1331 9.4668 85.9102 9.78809 86.457 10.4307C87.0085 11.0732 87.2842 11.9824 87.2842 13.1582V13.8281H82.4512C82.5013 14.4388 82.7041 14.9219 83.0596 15.2773C83.4196 15.6328 83.8708 15.8105 84.4131 15.8105C85.1742 15.8105 85.7939 15.5029 86.2725 14.8877L87.168 15.7422C86.8717 16.1842 86.4753 16.5283 85.9785 16.7744C85.4863 17.016 84.9326 17.1367 84.3174 17.1367ZM84.1191 10.7998C83.6634 10.7998 83.2943 10.9593 83.0117 11.2783C82.7337 11.5973 82.556 12.0417 82.4785 12.6113H85.6436V12.4883C85.6071 11.9323 85.459 11.513 85.1992 11.2305C84.9395 10.9434 84.5794 10.7998 84.1191 10.7998ZM90.5967 17H88.9355V6.5H90.5967V17Z" fill="black" fill-opacity="0.6"/>
</svg>
