<svg width="36" height="72" viewBox="0 0 36 72" fill="none" xmlns="http://www.w3.org/2000/svg">
    <g clip-path="url(#clip0)">
        <path d="M34.4321 35.9373C34.4321 54.9536 19.0163 70.3694 0 70.3694C0 70.3694 3.25379e-05 56.3334 3.25379e-05 37.3171C3.25379e-05 18.3008 0 1.50525 0 1.50525C19.0163 1.50525 34.4321 16.921 34.4321 35.9373Z" fill="#873422"/>
        <path fill-rule="evenodd" clip-rule="evenodd" d="M0 71.8746L3.82799e-06 70.3693H1.50523C2.00958 70.3693 1.00618 70.3585 1.50524 70.337C19.8232 69.5491 34.4321 54.4492 34.4321 35.9373C34.4321 17.4254 19.8232 2.32547 1.50524 1.53754C1.00618 1.51606 2.00958 1.50523 1.50523 1.50523H3.82799e-06L9.56997e-07 0H1.50523C21.3529 0 35.9373 16.0896 35.9373 35.9373C35.9373 55.7849 21.3529 71.8746 1.50523 71.8746H0Z" fill="#F2994A"/>
        <path d="M20.6293 26.7227L25.2667 31.3601L22.8332 33.7938L18.1956 29.1564L20.6293 26.7227Z" fill="#FED100" fill-opacity="0.65"/>
        <path d="M4.39014 29.885C4.39014 28.7765 5.28868 27.8781 6.3971 27.8781H17.1196C17.6518 27.8781 18.1623 28.0895 18.5388 28.4658L21.0329 30.96L23.5277 33.4574C23.9036 33.8337 24.1149 34.3439 24.1149 34.8758V45.5958C24.1149 46.7043 23.2164 47.6028 22.1079 47.6028H6.3971C5.28868 47.6028 4.39014 46.7043 4.39014 45.5958V29.885Z" fill="url(#paint0_radial)"/>
        <path d="M10.1917 39.4808L15.993 32.5192L14.8328 37.1603H17.1533L11.3519 44.122L12.5122 39.4808H10.1917Z" fill="white"/>
        <path d="M20.2795 24.7519C20.4754 24.556 20.793 24.556 20.9889 24.7519L27.2412 31.0041C27.4371 31.2001 27.4371 31.5177 27.2412 31.7136L26.3098 32.6449C26.1139 32.8409 25.7961 32.8409 25.6002 32.6449L19.3481 26.3929C19.1522 26.1969 19.1522 25.8792 19.3481 25.6833L20.2795 24.7519Z" fill="url(#paint1_radial)"/>
        <path fill-rule="evenodd" clip-rule="evenodd" d="M8.45111 25.5575C8.13071 25.5575 7.87097 25.8173 7.87097 26.1376V27.878H6.71069V26.1376C6.71069 25.1764 7.4899 24.3972 8.45111 24.3972H14.2525C15.2137 24.3972 15.9929 25.1764 15.9929 26.1376V27.878H14.8326V26.1376C14.8326 25.8173 14.5729 25.5575 14.2525 25.5575H8.45111Z" fill="#FED100" fill-opacity="0.65"/>
    </g>
    <defs>
        <radialGradient id="paint0_radial" cx="0" cy="0" r="1" gradientUnits="userSpaceOnUse" gradientTransform="translate(16.2725 35.6101) rotate(129.037) scale(15.4702 13.2195)">
            <stop stop-color="#FFC700"/>
            <stop offset="1" stop-color="#FF7A00"/>
        </radialGradient>
        <radialGradient id="paint1_radial" cx="0" cy="0" r="1" gradientUnits="userSpaceOnUse" gradientTransform="translate(24.1848 29.2342) rotate(-151.208) scale(5.06463 2.37114)">
            <stop stop-color="#FFC700"/>
            <stop offset="1" stop-color="#FF7A00"/>
        </radialGradient>
        <clipPath id="clip0">
            <rect width="36" height="71.8746" fill="white"/>
        </clipPath>
    </defs>
</svg>
