<svg width="123" height="24" viewBox="0 0 123 24" fill="none" xmlns="http://www.w3.org/2000/svg">
    <path d="M15.3196 4.68054L19.3165 8.67745L18.5719 9.42203L14.575 5.42513L15.3196 4.68054Z" fill="#F2C94C"/>
    <path d="M15.6464 2.35355C15.8417 2.15829 16.1583 2.15829 16.3536 2.35355L21.6464 7.64645C21.8417 7.84171 21.8417 8.15829 21.6464 8.35355L20.9393 9.06066C20.7441 9.25592 20.4275 9.25592 20.2322 9.06066L14.9393 3.76777C14.7441 3.5725 14.7441 3.25592 14.9393 3.06066L15.6464 2.35355Z" fill="#F2994A"/>
    <path fill-rule="evenodd" clip-rule="evenodd" d="M5.5 3C5.22386 3 5 3.22386 5 3.5V5H4V3.5C4 2.67157 4.67157 2 5.5 2H10.5C11.3284 2 12 2.67157 12 3.5V5H11V3.5C11 3.22386 10.7761 3 10.5 3H5.5Z" fill="#F2994A"/>
    <path fill-rule="evenodd" clip-rule="evenodd" d="M4 5C2.89543 5 2 5.89543 2 7V20C2 21.1046 2.89543 22 4 22H17C18.1046 22 19 21.1046 19 20V11.143C19 10.6129 18.7896 10.1045 18.4149 9.72946L16.3438 7.65625L14.2733 5.58579C13.8982 5.21071 13.3895 5 12.8591 5H4ZM12 9L7 15H9L8 19L13 13H11L12 9Z" fill="url(#paint0_radial)"/>
    <path d="M44.7246 22H42.2539L35.916 11.9121V22H33.4453V7.78125H35.916L42.2734 17.9082V7.78125H44.7246V22ZM52.2184 22.1953C50.7145 22.1953 49.4937 21.7233 48.5562 20.7793C47.6253 19.8288 47.1598 18.5658 47.1598 16.9902V16.6973C47.1598 15.6426 47.3616 14.7018 47.7652 13.875C48.1754 13.0417 48.7483 12.3939 49.484 11.9316C50.2197 11.4694 51.04 11.2383 51.9449 11.2383C53.3837 11.2383 54.4937 11.6973 55.275 12.6152C56.0628 13.5332 56.4566 14.832 56.4566 16.5117V17.4688H49.5523C49.624 18.3411 49.9137 19.0312 50.4215 19.5391C50.9358 20.0469 51.5803 20.3008 52.3551 20.3008C53.4423 20.3008 54.3277 19.8613 55.0113 18.9824L56.2906 20.2031C55.8674 20.8346 55.301 21.3262 54.5914 21.6777C53.8883 22.0228 53.0973 22.1953 52.2184 22.1953ZM51.9352 13.1426C51.2841 13.1426 50.7568 13.3704 50.3531 13.8262C49.956 14.2819 49.7021 14.9167 49.5914 15.7305H54.1129V15.5547C54.0608 14.7604 53.8492 14.1615 53.4781 13.7578C53.107 13.3477 52.5927 13.1426 51.9352 13.1426ZM64.3801 19.1289C64.3801 18.7057 64.2043 18.3835 63.8527 18.1621C63.5077 17.9408 62.9315 17.7454 62.1242 17.5762C61.3169 17.4069 60.6431 17.1921 60.1027 16.9316C58.9178 16.3587 58.3254 15.5286 58.3254 14.4414C58.3254 13.5299 58.7095 12.7682 59.4777 12.1562C60.246 11.5443 61.2225 11.2383 62.4074 11.2383C63.6704 11.2383 64.6893 11.5508 65.4641 12.1758C66.2453 12.8008 66.6359 13.6113 66.6359 14.6074H64.2629C64.2629 14.1517 64.0936 13.7741 63.7551 13.4746C63.4165 13.1686 62.9673 13.0156 62.4074 13.0156C61.8866 13.0156 61.4602 13.1361 61.1281 13.377C60.8026 13.6178 60.6398 13.9401 60.6398 14.3438C60.6398 14.7083 60.7928 14.9915 61.0988 15.1934C61.4048 15.3952 62.0233 15.6003 62.9543 15.8086C63.8853 16.0104 64.6145 16.2546 65.1418 16.541C65.6757 16.821 66.0695 17.1595 66.3234 17.5566C66.5839 17.9538 66.7141 18.4355 66.7141 19.002C66.7141 19.9525 66.3202 20.724 65.5324 21.3164C64.7447 21.9023 63.7128 22.1953 62.4367 22.1953C61.5708 22.1953 60.7993 22.0391 60.1223 21.7266C59.4452 21.4141 58.9178 20.9844 58.5402 20.4375C58.1626 19.8906 57.9738 19.3014 57.9738 18.6699H60.2785C60.3111 19.2298 60.5227 19.6628 60.9133 19.9688C61.3039 20.2682 61.8215 20.418 62.466 20.418C63.091 20.418 63.5663 20.3008 63.8918 20.0664C64.2173 19.8255 64.3801 19.513 64.3801 19.1289ZM68.4949 16.6191C68.4949 15.584 68.7 14.653 69.1102 13.8262C69.5203 12.9928 70.0965 12.3548 70.8387 11.9121C71.5809 11.4629 72.4337 11.2383 73.3973 11.2383C74.823 11.2383 75.9786 11.6973 76.8641 12.6152C77.756 13.5332 78.2378 14.7507 78.3094 16.2676L78.3191 16.8242C78.3191 17.8659 78.1173 18.7969 77.7137 19.6172C77.3165 20.4375 76.7436 21.0723 75.9949 21.5215C75.2527 21.9707 74.3934 22.1953 73.4168 22.1953C71.9259 22.1953 70.7313 21.7005 69.8328 20.7109C68.9409 19.7148 68.4949 18.39 68.4949 16.7363V16.6191ZM70.868 16.8242C70.868 17.9115 71.0926 18.7643 71.5418 19.3828C71.991 19.9948 72.616 20.3008 73.4168 20.3008C74.2176 20.3008 74.8393 19.9883 75.282 19.3633C75.7313 18.7383 75.9559 17.8236 75.9559 16.6191C75.9559 15.5514 75.7247 14.7051 75.2625 14.0801C74.8068 13.4551 74.185 13.1426 73.3973 13.1426C72.6225 13.1426 72.0073 13.4518 71.5516 14.0703C71.0958 14.6823 70.868 15.6003 70.868 16.8242ZM94.0293 15.9746H88.3066V22H85.8359V7.78125H94.8691V9.77344H88.3066V14.002H94.0293V15.9746ZM102.939 20.9648C102.242 21.7852 101.253 22.1953 99.9703 22.1953C98.8245 22.1953 97.9553 21.86 97.3629 21.1895C96.777 20.5189 96.484 19.5488 96.484 18.2793V11.4336H98.857V18.25C98.857 19.5911 99.4137 20.2617 100.527 20.2617C101.679 20.2617 102.457 19.8483 102.861 19.0215V11.4336H105.234V22H102.998L102.939 20.9648ZM112.454 22.1953C110.95 22.1953 109.73 21.7233 108.792 20.7793C107.861 19.8288 107.396 18.5658 107.396 16.9902V16.6973C107.396 15.6426 107.598 14.7018 108.001 13.875C108.411 13.0417 108.984 12.3939 109.72 11.9316C110.456 11.4694 111.276 11.2383 112.181 11.2383C113.62 11.2383 114.73 11.6973 115.511 12.6152C116.299 13.5332 116.693 14.832 116.693 16.5117V17.4688H109.788C109.86 18.3411 110.15 19.0312 110.657 19.5391C111.172 20.0469 111.816 20.3008 112.591 20.3008C113.678 20.3008 114.564 19.8613 115.247 18.9824L116.527 20.2031C116.103 20.8346 115.537 21.3262 114.827 21.6777C114.124 22.0228 113.333 22.1953 112.454 22.1953ZM112.171 13.1426C111.52 13.1426 110.993 13.3704 110.589 13.8262C110.192 14.2819 109.938 14.9167 109.827 15.7305H114.349V15.5547C114.297 14.7604 114.085 14.1615 113.714 13.7578C113.343 13.3477 112.829 13.1426 112.171 13.1426ZM121.218 22H118.845V7H121.218V22Z" fill="black" fill-opacity="0.87"/>
    <defs>
        <radialGradient id="paint0_radial" cx="0" cy="0" r="1" gradientUnits="userSpaceOnUse" gradientTransform="translate(12.241 11.664) rotate(129.037) scale(13.3332 11.3934)">
            <stop stop-color="#FFC700"/>
            <stop offset="1" stop-color="#FF7A00"/>
        </radialGradient>
    </defs>
</svg>
