<svg width="24" height="16" viewBox="0 0 24 16" fill="none" xmlns="http://www.w3.org/2000/svg">
    <rect width="24" height="16" rx="2" fill="#FFC634"/>
    <path d="M9.64258 10.0137H6.33789L5.64648 12H4.10547L7.32812 3.46875H8.6582L11.8867 12H10.3398L9.64258 10.0137ZM6.75391 8.81836H9.22656L7.99023 5.2793L6.75391 8.81836ZM12.8551 8.7832C12.8551 7.80664 13.0816 7.02344 13.5348 6.43359C13.9879 5.83984 14.5953 5.54297 15.357 5.54297C16.0289 5.54297 16.5719 5.77734 16.9859 6.24609V3H18.4098V12H17.1207L17.0504 11.3438C16.6246 11.8594 16.0562 12.1172 15.3453 12.1172C14.6031 12.1172 14.0016 11.8184 13.5406 11.2207C13.0836 10.623 12.8551 9.81055 12.8551 8.7832ZM14.2789 8.90625C14.2789 9.55078 14.402 10.0547 14.648 10.418C14.898 10.7773 15.2516 10.957 15.7086 10.957C16.2906 10.957 16.7164 10.6973 16.9859 10.1777V7.4707C16.7242 6.96289 16.3023 6.70898 15.7203 6.70898C15.2594 6.70898 14.9039 6.89258 14.6539 7.25977C14.4039 7.62305 14.2789 8.17188 14.2789 8.90625Z" fill="white"/>
</svg>
