<svg width="36" height="36" viewBox="0 0 36 36" fill="none" xmlns="http://www.w3.org/2000/svg">
<path d="M8.36523 9.85714L9.30436 13.6484L8.36523 17.4231L11.8609 19.467L14 22.7802L18 21.8901L22 22.7802L24.1391 19.467L27.6348 17.4231L26.6957 13.6484L27.6348 9.85714L24.1565 7.81319L22 4.5L18 5.40659L14.0174 4.51648L11.8435 7.81319L8.36523 9.85714ZM18.0174 20.3077C16.1724 20.3077 14.403 19.613 13.0984 18.3765C11.7938 17.14 11.0609 15.463 11.0609 13.7143C11.0609 11.9656 11.7938 10.2885 13.0984 9.05204C14.403 7.81554 16.1724 7.12088 18.0174 7.12088C21.8435 7.12088 24.9565 10.0714 24.9565 13.6978C24.9565 17.3571 21.8435 20.3077 18.0174 20.3077ZM17.9826 18.6593C15.0957 18.6593 12.7826 16.4505 12.7826 13.7143C12.7826 10.9945 15.0957 8.76923 17.9826 8.76923C20.8696 8.76923 23.2174 10.9945 23.2174 13.7143C23.2174 16.4505 20.8696 18.6593 17.9826 18.6593Z" fill="url(#paint0_radial)"/>
<path d="M22.4348 24.1648L24.6609 20.4725L30 29.3736H25.6522L23.2174 33L18.8174 23.3901L22.4348 24.1648Z" fill="#094466"/>
<path d="M13.4435 24.2967L11.2696 20.5879L6 29.3736H10.3478L12.7826 33L14.9652 28.228L17.1478 23.4561L13.4435 24.2967Z" fill="#094466"/>
<defs>
<radialGradient id="paint0_radial" cx="0" cy="0" r="1" gradientUnits="userSpaceOnUse" gradientTransform="translate(18 14) rotate(90) scale(16 13.4737)">
<stop stop-color="#B3511B"/>
<stop offset="1" stop-color="#69361A"/>
</radialGradient>
</defs>
</svg>
