<svg width="36" height="36" viewBox="0 0 36 36"  xmlns="http://www.w3.org/2000/svg">
<path d="M29.25 5.625C29.2491 4.73018 28.8932 3.87228 28.2605 3.23954C27.6277 2.60681 26.7698 2.25093 25.875 2.25H10.125C9.23018 2.25093 8.37228 2.60681 7.73954 3.23954C7.10681 3.87228 6.75093 4.73018 6.75 5.625V30.375C6.75093 31.2698 7.10681 32.1277 7.73954 32.7605C8.37228 33.3932 9.23018 33.7491 10.125 33.75H25.875C26.7698 33.7491 27.6277 33.3932 28.2605 32.7605C28.8932 32.1277 29.2491 31.2698 29.25 30.375V5.625ZM11.8125 30.375C11.4787 30.375 11.1525 30.276 10.875 30.0906C10.5975 29.9052 10.3812 29.6416 10.2535 29.3333C10.1257 29.0249 10.0923 28.6856 10.1574 28.3583C10.2225 28.0309 10.3833 27.7303 10.6193 27.4943C10.8553 27.2583 11.1559 27.0975 11.4833 27.0324C11.8106 26.9673 12.1499 27.0007 12.4583 27.1285C12.7666 27.2562 13.0302 27.4725 13.2156 27.75C13.401 28.0275 13.5 28.3537 13.5 28.6875C13.5 29.1351 13.3222 29.5643 13.0057 29.8807C12.6893 30.1972 12.2601 30.375 11.8125 30.375ZM11.8125 24.75C11.4787 24.75 11.1525 24.651 10.875 24.4656C10.5975 24.2802 10.3812 24.0166 10.2535 23.7083C10.1257 23.3999 10.0923 23.0606 10.1574 22.7333C10.2225 22.4059 10.3833 22.1053 10.6193 21.8693C10.8553 21.6333 11.1559 21.4725 11.4833 21.4074C11.8106 21.3423 12.1499 21.3757 12.4583 21.5035C12.7666 21.6312 13.0302 21.8475 13.2156 22.125C13.401 22.4025 13.5 22.7287 13.5 23.0625C13.5 23.5101 13.3222 23.9393 13.0057 24.2557C12.6893 24.5722 12.2601 24.75 11.8125 24.75ZM11.8125 19.125C11.4787 19.125 11.1525 19.026 10.875 18.8406C10.5975 18.6552 10.3812 18.3916 10.2535 18.0833C10.1257 17.7749 10.0923 17.4356 10.1574 17.1083C10.2225 16.7809 10.3833 16.4803 10.6193 16.2443C10.8553 16.0083 11.1559 15.8475 11.4833 15.7824C11.8106 15.7173 12.1499 15.7507 12.4583 15.8785C12.7666 16.0062 13.0302 16.2225 13.2156 16.5C13.401 16.7775 13.5 17.1037 13.5 17.4375C13.5 17.8851 13.3222 18.3143 13.0057 18.6307C12.6893 18.9472 12.2601 19.125 11.8125 19.125ZM18 30.375C17.6662 30.375 17.34 30.276 17.0625 30.0906C16.785 29.9052 16.5687 29.6416 16.441 29.3333C16.3132 29.0249 16.2798 28.6856 16.3449 28.3583C16.41 28.0309 16.5708 27.7303 16.8068 27.4943C17.0428 27.2583 17.3434 27.0975 17.6708 27.0324C17.9981 26.9673 18.3374 27.0007 18.6458 27.1285C18.9541 27.2562 19.2177 27.4725 19.4031 27.75C19.5885 28.0275 19.6875 28.3537 19.6875 28.6875C19.6875 29.1351 19.5097 29.5643 19.1932 29.8807C18.8768 30.1972 18.4476 30.375 18 30.375ZM18 24.75C17.6662 24.75 17.34 24.651 17.0625 24.4656C16.785 24.2802 16.5687 24.0166 16.441 23.7083C16.3132 23.3999 16.2798 23.0606 16.3449 22.7333C16.41 22.4059 16.5708 22.1053 16.8068 21.8693C17.0428 21.6333 17.3434 21.4725 17.6708 21.4074C17.9981 21.3423 18.3374 21.3757 18.6458 21.5035C18.9541 21.6312 19.2177 21.8475 19.4031 22.125C19.5885 22.4025 19.6875 22.7287 19.6875 23.0625C19.6875 23.5101 19.5097 23.9393 19.1932 24.2557C18.8768 24.5722 18.4476 24.75 18 24.75ZM18 19.125C17.6662 19.125 17.34 19.026 17.0625 18.8406C16.785 18.6552 16.5687 18.3916 16.441 18.0833C16.3132 17.7749 16.2798 17.4356 16.3449 17.1083C16.41 16.7809 16.5708 16.4803 16.8068 16.2443C17.0428 16.0083 17.3434 15.8475 17.6708 15.7824C17.9981 15.7173 18.3374 15.7507 18.6458 15.8785C18.9541 16.0062 19.2177 16.2225 19.4031 16.5C19.5885 16.7775 19.6875 17.1037 19.6875 17.4375C19.6875 17.8851 19.5097 18.3143 19.1932 18.6307C18.8768 18.9472 18.4476 19.125 18 19.125ZM25.875 28.6875C25.875 29.1351 25.6972 29.5643 25.3807 29.8807C25.0643 30.1972 24.6351 30.375 24.1875 30.375C23.7399 30.375 23.3107 30.1972 22.9943 29.8807C22.6778 29.5643 22.5 29.1351 22.5 28.6875V23.0625C22.5 22.6149 22.6778 22.1857 22.9943 21.8693C23.3107 21.5528 23.7399 21.375 24.1875 21.375C24.6351 21.375 25.0643 21.5528 25.3807 21.8693C25.6972 22.1857 25.875 22.6149 25.875 23.0625V28.6875ZM24.1875 19.125C23.8537 19.125 23.5275 19.026 23.25 18.8406C22.9725 18.6552 22.7562 18.3916 22.6285 18.0833C22.5007 17.7749 22.4673 17.4356 22.5324 17.1083C22.5975 16.7809 22.7583 16.4803 22.9943 16.2443C23.2303 16.0083 23.5309 15.8475 23.8583 15.7824C24.1856 15.7173 24.5249 15.7507 24.8333 15.8785C25.1416 16.0062 25.4052 16.2225 25.5906 16.5C25.776 16.7775 25.875 17.1037 25.875 17.4375C25.875 17.8851 25.6972 18.3143 25.3807 18.6307C25.0643 18.9472 24.6351 19.125 24.1875 19.125ZM25.5452 12.0452C25.3344 12.2562 25.0483 12.3749 24.75 12.375H11.25C10.9516 12.375 10.6655 12.2565 10.4545 12.0455C10.2435 11.8345 10.125 11.5484 10.125 11.25V6.75C10.125 6.45163 10.2435 6.16548 10.4545 5.9545C10.6655 5.74353 10.9516 5.625 11.25 5.625H24.75C25.0484 5.625 25.3345 5.74353 25.5455 5.9545C25.7565 6.16548 25.875 6.45163 25.875 6.75V11.25C25.8749 11.5483 25.7562 11.8344 25.5452 12.0452Z"/>
</svg>
