<svg width="56" height="56" viewBox="0 0 56 56" fill="none" xmlns="http://www.w3.org/2000/svg">
<path d="M6 8C6 5.79086 7.79086 4 10 4H46C48.2091 4 50 5.79086 50 8V41L44.5 46.5L39 52H10C7.79086 52 6 50.2091 6 48V8Z" fill="#109D57"/>
<path d="M39 52L29 52L34.5 46.5L40 41L39 52Z" fill="#1B6B44"/>
<path d="M39 42C39 41.4477 39.4477 41 40 41H50L44.5 46.5L39 52V42Z" fill="#89DFB4"/>
<rect x="19" y="19" width="23" height="17" stroke="#17A960" stroke-width="3" stroke-linejoin="round"/>
<rect x="14" y="14" width="23" height="17" fill="#109D57" stroke="#17A960" stroke-width="3" stroke-linejoin="round"/>
</svg>
