<svg width="56" height="56" viewBox="0 0 56 56" fill="none" xmlns="http://www.w3.org/2000/svg">
<path d="M6 8C6 5.79086 7.79086 4 10 4H46C48.2091 4 50 5.79086 50 8V41L44.5 46.5L39 52H10C7.79086 52 6 50.2091 6 48V8Z" fill="#FCC83A"/>
<g clip-path="url(#clip0)">
<path d="M44.1589 14.4323L43.1466 13.7284C42.2254 13.0887 41.0879 12.841 39.9841 13.0396C38.8804 13.2383 37.9006 13.8671 37.2603 14.7878L23.0451 35.2444L21.2263 44.8467C21.0145 45.9826 21.6493 46.4212 22.6363 45.8253L31.0038 40.7756L45.2184 20.3186C46.5528 18.4015 46.0765 15.7666 44.1589 14.4323ZM34.0927 20.956L35.5165 21.9451L25.7462 36.0055L24.3223 35.0155L34.0927 20.956ZM36.2694 22.4687L38.3673 23.927L28.5974 37.9869L26.4996 36.5291L36.2694 22.4687ZM25.2693 43.1668L22.8038 41.4517L23.8776 35.8238L30.1674 40.1939L25.2693 43.1668ZM30.7742 39.5001L29.3512 38.5099L39.1206 24.4501L40.5446 25.4401L30.7742 39.5001ZM41.1147 24.6197L34.6625 20.1367L35.7778 18.5312L42.2299 23.0142L41.1147 24.6197Z" fill="#FBD97B"/>
</g>
<path d="M39 52L29 52L34.5 46.5L40 41L39 52Z" fill="#9B7714"/>
<path d="M39 42C39 41.4477 39.4477 41 40 41H50L44.5 46.5L39 52V42Z" fill="#FFE9BD"/>
<defs>
<clipPath id="clip0">
<rect width="31.2878" height="31.2878" fill="white" transform="translate(15 16.5425) rotate(-10.2032)"/>
</clipPath>
</defs>
</svg>
