<svg width="48" height="48" viewBox="0 0 48 48" fill="none" xmlns="http://www.w3.org/2000/svg">
<path d="M5.14258 6.8563C5.14258 4.96276 6.6776 3.42773 8.57115 3.42773H39.4283C41.3218 3.42773 42.8569 4.96276 42.8569 6.85631V35.142L38.1426 39.8563L33.4283 44.5706H8.57115C6.6776 44.5706 5.14258 43.0356 5.14258 41.142V6.8563Z" stroke="#018786" stroke-width="2"/>
<path d="M33.4287 35.9997C33.4287 35.5263 33.8125 35.1426 34.2859 35.1426H42.8573L38.143 39.8569L33.4287 44.5711V35.9997Z" fill="#018786"/>
<path fill-rule="evenodd" clip-rule="evenodd" d="M15 26.5714V30.8571C15 31.5672 15.5756 32.1429 16.2857 32.1429H36C36.7101 32.1429 37.2857 31.5672 37.2857 30.8571V16.2857C37.2857 15.5756 36.7101 15 36 15H31.7143V17.5714H34.7143V29.5714H17.5714V26.5714H15Z" fill="#018786"/>
<path fill-rule="evenodd" clip-rule="evenodd" d="M10.7139 12.0006C10.7139 11.2905 11.2895 10.7148 11.9996 10.7148H31.7139C32.4239 10.7148 32.9996 11.2905 32.9996 12.0006V26.572C32.9996 27.2821 32.4239 27.8577 31.7139 27.8577H11.9996C11.2895 27.8577 10.7139 27.2821 10.7139 26.572V12.0006ZM13.2853 13.2863V25.2863H30.4282V13.2863H13.2853Z" fill="#018786"/>
</svg>
