<svg width="45" height="63" viewBox="0 0 45 63" fill="none" xmlns="http://www.w3.org/2000/svg">
<path d="M12.3668 24.72V13.5C12.3668 11.5109 13.1569 9.60322 14.5635 8.1967C15.97 6.79018 17.8776 6 19.8668 6C21.8559 6 23.7635 6.79018 25.1701 8.1967C26.5766 9.60322 27.3668 11.5109 27.3668 13.5V24.72C30.9968 22.29 33.3668 18.18 33.3668 13.5C33.3668 6.03 27.3368 0 19.8668 0C12.3968 0 6.36676 6.03 6.36676 13.5C6.36676 18.18 8.73676 22.29 12.3668 24.72ZM28.8668 32.13C28.0268 31.71 27.1268 31.5 26.1968 31.5H24.3668V13.5C24.3668 11.01 22.3568 9 19.8668 9C17.3768 9 15.3668 11.01 15.3668 13.5V45.72L5.04676 43.56C3.93676 43.32 2.76676 43.68 1.95676 44.49C0.666758 45.81 0.666758 47.91 1.95676 49.23L13.9868 61.26C15.1268 62.37 16.6568 63 18.2468 63H36.5468C39.5468 63 42.0668 60.81 42.4868 57.84L44.3768 44.43C44.7368 41.88 43.4168 39.36 41.1068 38.22L28.8668 32.13Z" fill="#018786"/>
</svg>
