<svg width="24" height="24" viewBox="0 0 24 24" fill="none" xmlns="http://www.w3.org/2000/svg">
<path d="M12 7.19249C9.33986 7.19249 7.19299 9.33937 7.19299 11.9995C7.19299 14.6597 9.33986 16.8066 12 16.8066C14.6602 16.8066 16.8071 14.6597 16.8071 11.9995C16.8071 9.33937 14.6602 7.19249 12 7.19249ZM12 15.1237C10.2797 15.1237 8.8758 13.7198 8.8758 11.9995C8.8758 10.2792 10.2797 8.87531 12 8.87531C13.7203 8.87531 15.1242 10.2792 15.1242 11.9995C15.1242 13.7198 13.7203 15.1237 12 15.1237ZM17.0039 5.87531C16.3828 5.87531 15.8813 6.37687 15.8813 6.99796C15.8813 7.61906 16.3828 8.12062 17.0039 8.12062C17.625 8.12062 18.1266 7.6214 18.1266 6.99796C18.1268 6.85048 18.0979 6.70441 18.0415 6.56812C17.9851 6.43183 17.9025 6.308 17.7982 6.20371C17.6939 6.09943 17.5701 6.01674 17.4338 5.96039C17.2975 5.90403 17.1514 5.87512 17.0039 5.87531ZM21.3703 11.9995C21.3703 10.7058 21.3821 9.42374 21.3094 8.13234C21.2367 6.63234 20.8946 5.30109 19.7977 4.20421C18.6985 3.10499 17.3696 2.76515 15.8696 2.69249C14.5758 2.61984 13.2938 2.63156 12.0024 2.63156C10.7086 2.63156 9.42658 2.61984 8.13518 2.69249C6.63518 2.76515 5.30393 3.10734 4.20705 4.20421C3.10783 5.30343 2.76799 6.63234 2.69533 8.13234C2.62268 9.42609 2.63439 10.7081 2.63439 11.9995C2.63439 13.2909 2.62268 14.5753 2.69533 15.8667C2.76799 17.3667 3.11018 18.698 4.20705 19.7948C5.30627 20.8941 6.63518 21.2339 8.13518 21.3066C9.42893 21.3792 10.711 21.3675 12.0024 21.3675C13.2961 21.3675 14.5781 21.3792 15.8696 21.3066C17.3696 21.2339 18.7008 20.8917 19.7977 19.7948C20.8969 18.6956 21.2367 17.3667 21.3094 15.8667C21.3844 14.5753 21.3703 13.2933 21.3703 11.9995ZM19.3078 17.5261C19.1367 17.9526 18.9305 18.2714 18.6 18.5995C18.2696 18.93 17.9531 19.1362 17.5266 19.3073C16.2938 19.7972 13.3664 19.687 12 19.687C10.6336 19.687 7.70393 19.7972 6.47111 19.3097C6.04455 19.1386 5.7258 18.9323 5.39768 18.6019C5.06721 18.2714 4.86096 17.955 4.68986 17.5284C4.20236 16.2933 4.31252 13.3659 4.31252 11.9995C4.31252 10.6331 4.20236 7.70343 4.68986 6.47062C4.86096 6.04406 5.06721 5.72531 5.39768 5.39718C5.72814 5.06906 6.04455 4.86046 6.47111 4.68937C7.70393 4.20187 10.6336 4.31202 12 4.31202C13.3664 4.31202 16.2961 4.20187 17.5289 4.68937C17.9555 4.86046 18.2742 5.06671 18.6024 5.39718C18.9328 5.72765 19.1391 6.04406 19.3102 6.47062C19.7977 7.70343 19.6875 10.6331 19.6875 11.9995C19.6875 13.3659 19.7977 16.2933 19.3078 17.5261Z" fill="#018786"/>
</svg>
