<svg width="48" height="48" viewBox="0 0 48 48" fill="none" xmlns="http://www.w3.org/2000/svg">
<path d="M5.14258 7.42774C5.14258 5.2186 6.93344 3.42773 9.14258 3.42773H38.8569C41.066 3.42773 42.8569 5.2186 42.8569 7.42773V35.142L38.1426 39.8563L33.4283 44.5706H9.14258C6.93344 44.5706 5.14258 42.7797 5.14258 40.5706V7.42774Z" stroke="#018786" stroke-width="2"/>
<g clip-path="url(#clip0)">
<path d="M37.8509 12.37L36.9832 11.7666C36.1936 11.2183 35.2186 11.006 34.2725 11.1763C33.3264 11.3466 32.4867 11.8855 31.9378 12.6747L19.7534 30.2089L18.1944 38.4394C18.0128 39.4131 18.5569 39.789 19.403 39.2782L26.5751 34.9499L38.759 17.4154C39.9028 15.7721 39.4946 13.5137 37.8509 12.37ZM29.2227 17.9618L30.4431 18.8095L22.0686 30.8613L20.8481 30.0128L29.2227 17.9618ZM31.0885 19.2583L32.8867 20.5083L24.5125 32.5597L22.7144 31.3101L31.0885 19.2583ZM21.6598 36.9995L19.5466 35.5295L20.4669 30.7055L25.8582 34.4514L21.6598 36.9995ZM26.3783 33.8566L25.1586 33.0079L33.5323 20.9567L34.7529 21.8052L26.3783 33.8566ZM35.2416 21.1021L29.7111 17.2595L30.6671 15.8834L36.1975 19.7259L35.2416 21.1021Z" fill="#018786"/>
</g>
<path d="M33.4287 36.1426C33.4287 35.5903 33.8764 35.1426 34.4287 35.1426H42.8573L38.143 39.8569L33.4287 44.5711V36.1426Z" fill="#018786"/>
<defs>
<clipPath id="clip0">
<rect width="26.8181" height="26.8181" fill="white" transform="translate(12.8574 14.1797) rotate(-10.2032)"/>
</clipPath>
</defs>
</svg>
