<svg width="24" height="24" viewBox="0 0 24 24"  xmlns="http://www.w3.org/2000/svg">
    <path d="M12.0001 7.19292C9.33995 7.19292 7.19308 9.33979 7.19308 12C7.19308 14.6601 9.33995 16.807 12.0001 16.807C14.6603 16.807 16.8071 14.6601 16.8071 12C16.8071 9.33979 14.6603 7.19292 12.0001 7.19292ZM12.0001 15.1242C10.2798 15.1242 8.87589 13.7203 8.87589 12C8.87589 10.2796 10.2798 8.87573 12.0001 8.87573C13.7204 8.87573 15.1243 10.2796 15.1243 12C15.1243 13.7203 13.7204 15.1242 12.0001 15.1242ZM17.004 5.87573C16.3829 5.87573 15.8814 6.3773 15.8814 6.99839C15.8814 7.61948 16.3829 8.12104 17.004 8.12104C17.6251 8.12104 18.1267 7.62183 18.1267 6.99839C18.1269 6.85091 18.0979 6.70484 18.0416 6.56855C17.9852 6.43226 17.9026 6.30842 17.7983 6.20414C17.694 6.09985 17.5701 6.01717 17.4339 5.96081C17.2976 5.90446 17.1515 5.87555 17.004 5.87573ZM21.3704 12C21.3704 10.7062 21.3821 9.42417 21.3095 8.13276C21.2368 6.63276 20.8946 5.30151 19.7978 4.20464C18.6985 3.10542 17.3696 2.76558 15.8696 2.69292C14.5759 2.62026 13.2939 2.63198 12.0025 2.63198C10.7087 2.63198 9.42667 2.62026 8.13527 2.69292C6.63527 2.76558 5.30402 3.10776 4.20714 4.20464C3.10792 5.30386 2.76808 6.63276 2.69542 8.13276C2.62277 9.42651 2.63449 10.7085 2.63449 12C2.63449 13.2914 2.62277 14.5757 2.69542 15.8671C2.76808 17.3671 3.11027 18.6984 4.20714 19.7953C5.30636 20.8945 6.63527 21.2343 8.13527 21.307C9.42902 21.3796 10.711 21.3679 12.0025 21.3679C13.2962 21.3679 14.5782 21.3796 15.8696 21.307C17.3696 21.2343 18.7009 20.8921 19.7978 19.7953C20.897 18.696 21.2368 17.3671 21.3095 15.8671C21.3845 14.5757 21.3704 13.2937 21.3704 12ZM19.3079 17.5265C19.1368 17.9531 18.9306 18.2718 18.6001 18.5999C18.2696 18.9304 17.9532 19.1367 17.5267 19.3078C16.2939 19.7976 13.3665 19.6874 12.0001 19.6874C10.6337 19.6874 7.70402 19.7976 6.47121 19.3101C6.04464 19.139 5.72589 18.9328 5.39777 18.6023C5.0673 18.2718 4.86105 17.9554 4.68996 17.5289C4.20246 16.2937 4.31261 13.3664 4.31261 12C4.31261 10.6335 4.20246 7.70386 4.68996 6.47105C4.86105 6.04448 5.0673 5.72573 5.39777 5.39761C5.72824 5.06948 6.04464 4.86089 6.47121 4.6898C7.70402 4.2023 10.6337 4.31245 12.0001 4.31245C13.3665 4.31245 16.2962 4.2023 17.529 4.6898C17.9556 4.86089 18.2743 5.06714 18.6025 5.39761C18.9329 5.72808 19.1392 6.04448 19.3103 6.47105C19.7978 7.70386 19.6876 10.6335 19.6876 12C19.6876 13.3664 19.7978 16.2937 19.3079 17.5265Z" />
</svg>
