<svg width="24" height="24" viewBox="0 0 24 24" xmlns="http://www.w3.org/2000/svg">
<path d="M11.9998 8.87726C10.2795 8.87726 8.87556 10.2812 8.87556 12.0015C8.87556 13.7218 10.2795 15.1257 11.9998 15.1257C13.7201 15.1257 15.124 13.7218 15.124 12.0015C15.124 10.2812 13.7201 8.87726 11.9998 8.87726ZM21.3701 12.0015C21.3701 10.7077 21.3818 9.4257 21.3092 8.13429C21.2365 6.63429 20.8943 5.30304 19.7974 4.20617C18.6982 3.10695 17.3693 2.7671 15.8693 2.69445C14.5756 2.62179 13.2935 2.63351 12.0021 2.63351C10.7084 2.63351 9.42634 2.62179 8.13493 2.69445C6.63493 2.7671 5.30368 3.10929 4.20681 4.20617C3.10759 5.30538 2.76774 6.63429 2.69509 8.13429C2.62243 9.42804 2.63415 10.7101 2.63415 12.0015C2.63415 13.2929 2.62243 14.5773 2.69509 15.8687C2.76774 17.3687 3.10993 18.6999 4.20681 19.7968C5.30603 20.896 6.63493 21.2359 8.13493 21.3085C9.42868 21.3812 10.7107 21.3694 12.0021 21.3694C13.2959 21.3694 14.5779 21.3812 15.8693 21.3085C17.3693 21.2359 18.7006 20.8937 19.7974 19.7968C20.8967 18.6976 21.2365 17.3687 21.3092 15.8687C21.3842 14.5773 21.3701 13.2952 21.3701 12.0015ZM11.9998 16.8085C9.33962 16.8085 7.19274 14.6616 7.19274 12.0015C7.19274 9.34132 9.33962 7.19445 11.9998 7.19445C14.6599 7.19445 16.8068 9.34132 16.8068 12.0015C16.8068 14.6616 14.6599 16.8085 11.9998 16.8085ZM17.0037 8.12023C16.3826 8.12023 15.881 7.61867 15.881 6.99757C15.881 6.37648 16.3826 5.87492 17.0037 5.87492C17.6248 5.87492 18.1263 6.37648 18.1263 6.99757C18.1265 7.14505 18.0976 7.29112 18.0413 7.42741C17.9849 7.5637 17.9022 7.68754 17.7979 7.79182C17.6936 7.89611 17.5698 7.97879 17.4335 8.03515C17.2972 8.0915 17.1512 8.12041 17.0037 8.12023Z" />
</svg>
