<svg width="24" height="24" viewBox="0 0 24 24"  xmlns="http://www.w3.org/2000/svg">
    <path d="M21.7499 5.96014C21.0327 6.26951 20.2522 6.49217 19.4483 6.57889C20.283 6.08303 20.908 5.29967 21.2061 4.37576C20.4229 4.84167 19.5649 5.16838 18.6702 5.34139C18.2962 4.9416 17.844 4.62312 17.3415 4.40578C16.8391 4.18844 16.2973 4.07689 15.7499 4.0781C13.5351 4.0781 11.7538 5.87342 11.7538 8.07654C11.7538 8.38592 11.7913 8.69529 11.8522 8.99295C8.53584 8.81951 5.57803 7.23513 3.61162 4.80935C3.25332 5.42134 3.06556 6.11816 3.06787 6.82732C3.06787 8.21482 3.77334 9.43826 4.84912 10.1578C4.21515 10.1328 3.59602 9.95857 3.04209 9.6492V9.69842C3.04209 11.6414 4.41553 13.2515 6.24599 13.6219C5.9023 13.7111 5.54875 13.7568 5.19365 13.7578C4.93349 13.7578 4.6874 13.732 4.43896 13.6969C4.94521 15.2812 6.41943 16.432 8.1749 16.4695C6.80146 17.5453 5.08115 18.1781 3.21318 18.1781C2.87803 18.1781 2.56865 18.1664 2.24756 18.1289C4.01943 19.2656 6.12178 19.9219 8.38584 19.9219C15.7358 19.9219 19.7577 13.8328 19.7577 8.54764C19.7577 8.3742 19.7577 8.20076 19.746 8.02732C20.5241 7.45779 21.2061 6.75232 21.7499 5.96014Z" />
</svg>
