<svg width="24" height="24" viewBox="0 0 24 24"  xmlns="http://www.w3.org/2000/svg">
<path fill-rule="evenodd" clip-rule="evenodd" d="M17.6825 11.0476C17.6825 14.712 14.712 17.6825 11.0476 17.6825C7.38325 17.6825 4.4127 14.712 4.4127 11.0476C4.4127 7.38325 7.38325 4.4127 11.0476 4.4127C14.712 4.4127 17.6825 7.38325 17.6825 11.0476ZM16.6682 18.1381C15.1246 19.3634 13.1715 20.0952 11.0476 20.0952C6.05075 20.0952 2 16.0444 2 11.0476C2 6.05075 6.05075 2 11.0476 2C16.0444 2 20.0952 6.05075 20.0952 11.0476C20.0952 13.1715 19.3634 15.1245 18.1381 16.6682L22 20.5301L20.5301 22L16.6682 18.1381Z" />
</svg>
