<svg width="133" height="24" xmlns="http://www.w3.org/2000/svg" fill="none" viewBox="0 0 133 24"><path d="M23 12.016a11.05 11.05 0 0 1-.125 1.625c-.058.422-.142.839-.25 1.25a10.92 10.92 0 0 1-.877 2.234A11 11 0 0 1 11.25 22.99a11 11 0 0 1-9.874-8.099 10.866 10.866 0 0 1-.25-1.247A11 11 0 0 1 11.456 1.03c.18-.013.362-.013.545-.013.25 0 .5.01.75.027.056 0 .11 0 .166.012A11 11 0 0 1 23 12.016z" fill="#840015"/><path d="M22.875 13.622c-.059.42-.142.838-.25 1.248H1.375c-.108-.41-.191-.827-.25-1.248h21.75z" fill="#fff" stroke="#fff" stroke-miterlimit="10" stroke-width=".25"/><path d="M12.75 1.041v21.916a10.737 10.737 0 0 1-1.5 0V1.041c.069-.006.137-.01.206-.014.18-.012.362-.012.544-.012.25 0 .5.01.75.026z" fill="#fff" stroke="#fff" stroke-miterlimit="10" stroke-width=".25"/><path d="M22.335 15.769c-.167.457-.365.902-.593 1.332l-1.427-2.23-.799-1.246L12.75 3.05l-1.294-2.023c.18-.012.361-.012.544-.012.25 0 .5.01.75.026.056 0 .111 0 .166.013l8.045 12.568.799 1.248.575.9z" fill="#fff" stroke="#fff" stroke-miterlimit="10" stroke-width=".25"/><path d="M39.645 11h-2.002l-4.916-7.964h-.054l.034.444c.064.848.096 1.623.096 2.325V11h-1.484V1.006h1.983l4.9 7.923h.042c-.01-.105-.027-.486-.054-1.142a39.738 39.738 0 0 1-.042-1.545V1.006h1.497V11zm5.52.137c-1.176 0-2.096-.342-2.762-1.026-.66-.688-.99-1.633-.99-2.837 0-1.235.307-2.205.922-2.912.615-.706 1.46-1.06 2.536-1.06.998 0 1.787.304 2.365.91.58.606.87 1.44.87 2.502v.868h-5.04c.023.734.221 1.3.595 1.695.374.392.9.588 1.58.588.446 0 .86-.04 1.243-.123a6.704 6.704 0 0 0 1.244-.424v1.306a4.931 4.931 0 0 1-1.189.396c-.401.078-.86.117-1.374.117zm-.294-6.617c-.51 0-.92.161-1.23.485-.306.323-.488.795-.547 1.415h3.431c-.009-.624-.16-1.096-.45-1.415-.292-.324-.694-.485-1.204-.485zm9.888 4.327c0 .738-.27 1.305-.807 1.702-.538.392-1.308.588-2.31.588-1.008 0-1.817-.153-2.427-.458v-1.39c.888.41 1.716.616 2.481.616.99 0 1.484-.298 1.484-.895a.71.71 0 0 0-.164-.479c-.11-.127-.29-.26-.54-.396a9.3 9.3 0 0 0-1.046-.465c-.87-.336-1.46-.674-1.77-1.01-.306-.338-.459-.776-.459-1.313.003-.647.26-1.149.78-1.504.527-.36 1.238-.54 2.135-.54.89 0 1.73.18 2.523.54l-.52 1.21c-.816-.338-1.5-.506-2.057-.506-.848 0-1.272.241-1.272.724 0 .237.11.438.328.602.224.164.707.39 1.45.677.624.241 1.077.462 1.36.663.282.2.492.433.63.697.135.26.204.572.204.937zm8.2-1.64c0 1.234-.318 2.198-.95 2.89-.635.693-1.517 1.04-2.647 1.04-.706 0-1.33-.16-1.873-.479a3.158 3.158 0 0 1-1.254-1.374c-.29-.597-.437-1.29-.437-2.078 0-1.226.314-2.183.943-2.87.63-.689 1.515-1.033 2.66-1.033 1.093 0 1.96.353 2.597 1.06.638.701.957 1.65.957 2.843zm-5.504 0c0 1.744.645 2.617 1.935 2.617 1.276 0 1.914-.873 1.914-2.618 0-1.727-.643-2.59-1.928-2.59-.674 0-1.164.223-1.47.67-.3.446-.45 1.086-.45 1.92zM74.318 11l-.998-2.775H69.5L68.521 11h-1.723L70.538.965h1.777L76.055 11h-1.737zM72.89 6.816l-.937-2.72a20.663 20.663 0 0 1-.533-1.723c-.123.56-.303 1.174-.54 1.839l-.902 2.604h2.912zm7.112 4.32c-1.144 0-2.014-.332-2.611-.997-.59-.67-.886-1.63-.886-2.878 0-1.27.31-2.246.93-2.93.624-.683 1.524-1.025 2.7-1.025.797 0 1.515.148 2.153.444L81.8 5.04c-.68-.264-1.24-.396-1.682-.396-1.308 0-1.962.868-1.962 2.604 0 .848.162 1.486.486 1.914.328.424.806.636 1.435.636.716 0 1.392-.178 2.03-.533v1.4c-.287.17-.594.29-.922.363-.324.073-.718.11-1.183.11zM88.365 11l-.321-1.053h-.055c-.364.46-.731.775-1.1.944-.372.167-.846.249-1.425.249-.743-.001-1.324-.201-1.743-.603-.415-.4-.622-.968-.622-1.702 0-.78.29-1.367.868-1.764.579-.396 1.46-.613 2.645-.65l1.306-.04v-.402c0-.483-.113-.844-.34-1.08-.224-.242-.573-.363-1.047-.363-.387 0-.76.057-1.114.17a8.41 8.41 0 0 0-1.025.404l-.52-1.148c.41-.215.86-.377 1.347-.486a6.08 6.08 0 0 1 1.383-.171c.96 0 1.686.21 2.173.629.493.419.739 1.077.739 1.975V11h-1.15zm-2.392-1.094c.583 0 1.05-.162 1.4-.485.356-.328.534-.786.534-1.374V7.39l-.97.04c-.757.028-1.308.156-1.655.383-.342.224-.513.568-.513 1.033 0 .337.1.599.301.786.2.182.502.273.903.273zm8.083 1.23c-.944 0-1.68-.34-2.208-1.025-.529-.679-.793-1.639-.793-2.875 0-1.24.266-2.203.8-2.89.537-.694 1.28-1.04 2.228-1.04.993 0 1.75.367 2.27 1.1h.082a9.625 9.625 0 0 1-.117-1.285V.363h1.614V11h-1.258l-.28-.991h-.076c-.515.752-1.27 1.128-2.262 1.128zm.43-1.298c.661 0 1.142-.185 1.443-.554.3-.374.455-.977.465-1.811v-.226c0-.952-.155-1.63-.465-2.03-.31-.4-.796-.602-1.456-.602-.565 0-1 .23-1.306.69-.305.456-.458 1.108-.458 1.956 0 .84.148 1.48.444 1.924.296.437.74.656 1.333.656zm8.794 1.3c-1.176 0-2.096-.343-2.76-1.027-.662-.688-.993-1.633-.993-2.837 0-1.235.308-2.205.923-2.912.615-.706 1.46-1.06 2.536-1.06.998 0 1.787.304 2.366.91.578.606.868 1.44.868 2.502v.868h-5.038c.022.734.221 1.3.594 1.695.374.392.9.588 1.58.588.446 0 .861-.04 1.244-.123a6.71 6.71 0 0 0 1.244-.424v1.306a4.937 4.937 0 0 1-1.19.396 7.29 7.29 0 0 1-1.374.117zm-.294-6.618c-.51 0-.92.161-1.23.485-.305.323-.488.795-.547 1.415h3.432c-.01-.624-.16-1.096-.452-1.415-.294-.324-.695-.485-1.206-.485zm11.18 6.48h-1.613V6.338c0-.579-.11-1.01-.328-1.292-.219-.287-.56-.43-1.026-.43-.62 0-1.075.202-1.367.608-.287.4-.43 1.07-.43 2.01V11h-1.607V3.44h1.258l.225.99h.082a2.1 2.1 0 0 1 .91-.833c.4-.196.84-.294 1.32-.294 1.16 0 1.93.396 2.309 1.19h.11c.223-.375.538-.666.943-.876.406-.21.87-.314 1.395-.314.902 0 1.558.228 1.968.683.415.456.623 1.15.623 2.085V11h-1.607V6.338c0-.579-.112-1.01-.335-1.292-.22-.287-.56-.43-1.025-.43-.622 0-1.08.195-1.371.587-.287.387-.43.984-.43 1.791V11zm5.615-7.56h1.753l1.538 4.286a8.07 8.07 0 0 1 .465 1.722h.055c.04-.25.115-.553.224-.909.11-.36.69-2.06 1.737-5.1h1.738l-3.233 8.566c-.588 1.572-1.568 2.358-2.94 2.358-.355 0-.702-.038-1.04-.116v-1.27c.243.053.518.081.828.081.775 0 1.32-.45 1.634-1.347l.28-.71-3.035-7.56z" fill="#000"/><path d="M31.201 21.523v-5.806a.48.48 0 0 1 .147-.352.473.473 0 0 1 .691-.006.473.473 0 0 1 .146.346v5.818c0 .13.05.243.147.34.098.094.213.14.346.14h2.015a.47.47 0 0 0 .346-.14.454.454 0 0 0 .146-.34v-5.806a.5.5 0 0 1 .14-.358.48.48 0 0 1 .353-.146.46.46 0 0 1 .345.146.486.486 0 0 1 .147.358v5.795c0 .406-.147.756-.44 1.049-.29.293-.634.44-1.037.44h-2.015a1.428 1.428 0 0 1-1.043-.435 1.422 1.422 0 0 1-.434-1.043zm7.016.985v-4.67a.49.49 0 0 1 .14-.352.47.47 0 0 1 .352-.152.46.46 0 0 1 .346.146.486.486 0 0 1 .146.358v.615l.803-.685c.332-.282.656-.422.973-.422h.72c.406 0 .754.144 1.043.433.29.29.434.637.434 1.043v.264c0 .14-.05.26-.147.357a.46.46 0 0 1-.345.147.49.49 0 0 1-.352-.14.49.49 0 0 1-.14-.352v-.276a.46.46 0 0 0-.147-.345.46.46 0 0 0-.346-.147h-.638c-.141 0-.292.072-.461.217l-1.401 1.213v2.748a.48.48 0 0 1-.146.351.483.483 0 0 1-.346.14.49.49 0 0 1-.352-.142.49.49 0 0 1-.14-.352zm8.468-3.059h1.928c.106 0 .258.024.457.07l-.011-.701a.46.46 0 0 0-.147-.344.46.46 0 0 0-.346-.147h-1.869a.473.473 0 0 1-.345-.146.473.473 0 0 1-.147-.346.47.47 0 0 1 .14-.346.48.48 0 0 1 .352-.146h1.87c.406 0 .751.142 1.036.427.29.286.44.635.452 1.05l.123 3.685a.48.48 0 0 1-.147.35.483.483 0 0 1-.346.14.497.497 0 0 1-.357-.14.48.48 0 0 1-.146-.351L48.35 23h-1.665c-.413 0-.765-.145-1.054-.434a1.43 1.43 0 0 1-.434-1.054v-.575c0-.41.145-.76.434-1.048a1.43 1.43 0 0 1 1.054-.44zm2.462 1.916-.03-.416a.497.497 0 0 0-.146-.351.47.47 0 0 0-.346-.14h-1.94a.48.48 0 0 0-.35.146.47.47 0 0 0-.142.345v.55c0 .13.05.246.147.344a.473.473 0 0 0 .345.146h1.39l1.072-.627zm5.404-2.877-1.342.873v3.147a.473.473 0 0 1-.147.346.473.473 0 0 1-.345.146.473.473 0 0 1-.346-.146.473.473 0 0 1-.146-.346v-4.67a.49.49 0 0 1 .14-.352.47.47 0 0 1 .352-.152c.133 0 .248.05.346.152a.48.48 0 0 1 .146.352v.328l.896-.545a1.864 1.864 0 0 1 1.02-.287h.457c.39 0 .728.139 1.014.416.285.277.435.62.45 1.025l.136 3.733a.452.452 0 0 1-.14.346.48.48 0 0 1-.352.146.499.499 0 0 1-.34-.129.488.488 0 0 1-.153-.363l-.146-3.674c-.012-.344-.192-.516-.54-.516h-.48c-.148 0-.308.057-.48.17zm6.646-3.709h.516a.46.46 0 0 1 .346.147.46.46 0 0 1 .146.345v.422a.5.5 0 0 1-.146.358.46.46 0 0 1-.346.146h-.528c-.14 0-.26-.05-.357-.152a.466.466 0 0 1-.135-.34l.012-.434a.47.47 0 0 1 .14-.345.48.48 0 0 1 .352-.147zm2.004 8.21h-3a.49.49 0 0 1-.351-.141.49.49 0 0 1-.14-.352c0-.133.046-.248.14-.346a.48.48 0 0 1 .351-.146h1.008V18.33h-.996a.48.48 0 0 1-.352-.146.483.483 0 0 1-.14-.346.49.49 0 0 1 .14-.352.47.47 0 0 1 .352-.152h1.5a.45.45 0 0 1 .346.152.48.48 0 0 1 .146.352v4.166h.985a.48.48 0 0 1 .35.146.452.452 0 0 1 .153.346.48.48 0 0 1-.146.352.483.483 0 0 1-.346.14zm5.37-.985 1.657-1.055v-3.111a.49.49 0 0 1 .141-.352.47.47 0 0 1 .352-.152c.136 0 .252.05.345.152a.48.48 0 0 1 .147.352v4.67a.473.473 0 0 1-.147.346.473.473 0 0 1-.345.146.473.473 0 0 1-.346-.146.473.473 0 0 1-.147-.346v-.387l-.855.557c-.336.215-.676.322-1.02.322h-.456c-.403 0-.75-.14-1.038-.422a1.489 1.489 0 0 1-.465-1.031l-.141-3.71a.427.427 0 0 1 .135-.339.49.49 0 0 1 .356-.152c.133 0 .246.049.34.146a.495.495 0 0 1 .152.346l.13 3.639c.01.351.212.527.603.527h.598zm4.542.504v-4.67a.47.47 0 0 1 .14-.346.48.48 0 0 1 .353-.146c.253 0 .413.125.48.375.273-.258.578-.387.914-.387.394 0 .719.168.973.504.312-.336.656-.504 1.03-.504.306 0 .57.11.792.328.227.215.348.49.363.826l.14 4.02a.473.473 0 0 1-.146.346.472.472 0 0 1-.345.146.48.48 0 0 1-.352-.146.494.494 0 0 1-.152-.346l-.117-3.861c-.008-.211-.073-.317-.194-.317a.325.325 0 0 0-.205.088l-.586.492v3.598a.454.454 0 0 1-.146.34.47.47 0 0 1-.346.14.483.483 0 0 1-.346-.14.48.48 0 0 1-.146-.352v-3.914c0-.168-.073-.252-.217-.252a.29.29 0 0 0-.193.076l-.71.598v3.504a.482.482 0 0 1-.14.346.454.454 0 0 1-.34.146.499.499 0 0 1-.357-.146.473.473 0 0 1-.147-.346z" fill="#7000FF"/></svg>