<svg width="172" height="24"  xmlns="http://www.w3.org/2000/svg" fill="none" viewBox="0 0 172 24"><path d="M23 12.016a11.05 11.05 0 0 1-.125 1.625c-.058.422-.142.839-.25 1.25a10.92 10.92 0 0 1-.877 2.234A11 11 0 0 1 11.25 22.99a11 11 0 0 1-9.874-8.099 10.866 10.866 0 0 1-.25-1.24 11 11 0 0 1 10.33-12.62c.18-.013.362-.013.545-.013.25 0 .5.01.75.027.056 0 .11 0 .166.012A11 11 0 0 1 23 12.016z" fill="#840015"/><path d="M22.875 13.622c-.059.42-.142.838-.25 1.248H1.375c-.108-.41-.191-.827-.25-1.248h21.75z" fill="#fff"/><path d="M.981 13.497H23.02l-.021.142c-.06.426-.144.847-.253 1.263l-.025.093H1.278l-.024-.093A10.96 10.96 0 0 1 1 13.639l-.02-.142zm.289.25c.051.336.119.669.202.998h21.056c.083-.33.15-.662.202-.998H1.27z" fill="#fff" fill-rule="evenodd" clip-rule="evenodd"/><path d="M12.75 1.041v21.916a10.737 10.737 0 0 1-1.5 0V1.041c.069-.006.137-.01.206-.014.18-.012.362-.012.544-.012.25 0 .5.01.75.026z" fill="#fff"/><path d="M12 1.14c-.183 0-.36 0-.535.012h-.002l-.088.005V22.84a10.602 10.602 0 0 0 1.25 0V1.158A10.62 10.62 0 0 0 12 1.14zm-.002-.25H12c.253 0 .506.009.759.026l.116.009v22.15l-.116.007a10.864 10.864 0 0 1-1.518 0l-.116-.008V.927l.114-.01c.07-.007.141-.01.21-.014v.124l-.01-.124c.186-.013.371-.013.551-.013z" fill="#fff" fill-rule="evenodd" clip-rule="evenodd"/><path d="M22.335 15.769c-.167.457-.365.902-.593 1.332l-1.427-2.23-.799-1.24L12.75 3.05l-1.294-2.023c.18-.012.361-.012.544-.012.25 0 .5.01.75.026.056 0 .111 0 .166.013l8.045 12.568.799 1.248.575.9z" fill="#fff"/><path d="m11.678 1.143 1.177 1.84 6.766 10.572 2.11 3.296a9.64 9.64 0 0 0 .476-1.067l-.54-.846-.8-1.25-8.016-12.52a1.142 1.142 0 0 0-.09-.003h-.01a10.624 10.624 0 0 0-1.063-.023zm.32-.253H12c.251 0 .503.009.754.026.053 0 .121 0 .19.016l.05.011 8.072 12.612.8 1.248.608.95-.022.059c-.169.462-.369.912-.6 1.347l-.1.19-1.542-2.411-7.565-11.821-1.408-2.2.21-.014c.185-.013.37-.013.55-.013z" fill="#fff" fill-rule="evenodd" clip-rule="evenodd"/><path d="M44.78 19h-2.862L34.897 7.623h-.079l.05.635c.09 1.21.136 2.318.136 3.32V19h-2.12V4.723h2.833l7.002 11.318h.058c-.013-.15-.039-.693-.078-1.63a57.02 57.02 0 0 1-.058-2.208v-7.48h2.138V19zm7.992.195c-1.68 0-2.995-.488-3.946-1.465-.944-.983-1.416-2.334-1.416-4.052 0-1.765.44-3.151 1.32-4.16.877-1.01 2.085-1.514 3.622-1.514 1.425 0 2.552.433 3.38 1.3.826.865 1.24 2.056 1.24 3.573v1.24h-7.198c.033 1.048.316 1.856.85 2.422.534.56 1.286.84 2.256.84a8.49 8.49 0 0 0 1.777-.176 9.58 9.58 0 0 0 1.778-.605v1.865a7.049 7.049 0 0 1-1.7.566c-.573.111-1.227.166-1.962.166zm-.42-9.453c-.73 0-1.316.231-1.758.693-.436.463-.697 1.137-.782 2.022h4.903c-.013-.892-.228-1.566-.645-2.022-.416-.462-.99-.693-1.718-.693zm14.232 6.182c0 1.055-.384 1.865-1.152 2.431-.769.56-1.869.84-3.301.84-1.439 0-2.595-.218-3.467-.654v-1.982c1.27.585 2.451.878 3.545.878 1.413 0 2.12-.426 2.12-1.279a1.025 1.025 0 0 0-.24-.683c-.16-.183-.419-.37-.777-.567a13.284 13.284 0 0 0-1.494-.664c-1.243-.482-2.087-.963-2.53-1.445-.435-.482-.654-1.107-.654-1.875 0-.925.372-1.64 1.114-2.149.748-.514 1.764-.77 3.047-.77 1.27 0 2.47.256 3.604.77l-.742 1.73c-1.165-.483-2.145-.724-2.94-.724-1.21.001-1.817.346-1.817 1.036 0 .34.156.625.47.86.318.234 1.01.556 2.07.967.89.345 1.54.66 1.943.947.403.286.703.618.898.996.195.371.293.817.293 1.338zm11.82-2.344c0 1.764-.452 3.141-1.357 4.13-.905.99-2.165 1.485-3.78 1.485-1.008 0-1.9-.228-2.675-.683-.775-.456-1.37-1.11-1.787-1.963-.417-.853-.625-1.843-.625-2.969 0-1.751.449-3.118 1.347-4.101.899-.984 2.165-1.475 3.8-1.475 1.562 0 2.799.504 3.71 1.514.912 1.002 1.367 2.356 1.367 4.062zm-7.86 0c0 2.494.92 3.74 2.763 3.74 1.823 0 2.734-1.246 2.734-3.74 0-2.467-.918-3.701-2.754-3.701-.963 0-1.663.319-2.1.957-.43.638-.644 1.553-.644 2.744zM94.847 19l-1.426-3.965h-5.46L86.577 19h-2.46l5.34-14.336h2.54L97.327 19h-2.48zm-2.041-5.977-1.338-3.886a29.437 29.437 0 0 1-.762-2.46 21.88 21.88 0 0 1-.772 2.626l-1.29 3.72h4.16zm10.267 6.172c-1.634 0-2.877-.475-3.73-1.425-.847-.957-1.27-2.328-1.27-4.112 0-1.816.443-3.213 1.328-4.19.892-.976 2.178-1.464 3.858-1.464 1.139 0 2.164.211 3.076.635l-.693 1.845c-.97-.377-1.771-.566-2.403-.566-1.868 0-2.802 1.24-2.802 3.72 0 1.212.23 2.123.693 2.735.469.605 1.152.908 2.05.908a5.88 5.88 0 0 0 2.9-.76v2.011a4.58 4.58 0 0 1-1.317.516c-.463.104-1.026.156-1.69.156zM115.129 19l-.46-1.504h-.08c-.52.658-1.05 1.107-1.579 1.348-.528.234-1.205.35-2.032.35-1.06 0-1.89-.285-2.49-.86-.592-.571-.89-1.382-.89-2.43 0-1.113.415-1.953 1.242-2.52.826-.566 2.086-.875 3.78-.927l1.864-.06v-.575c0-.69-.163-1.204-.488-1.543-.32-.345-.817-.517-1.494-.517-.554 0-1.084.08-1.592.244-.508.163-.996.355-1.465.576l-.742-1.64a7.84 7.84 0 0 1 1.924-.694 8.679 8.679 0 0 1 1.972-.244c1.374 0 2.41.3 3.106.898.703.6 1.055 1.54 1.055 2.823V19h-1.64zm-3.418-1.563c.833 0 1.501-.23 2.002-.693.508-.469.762-1.123.762-1.963v-.93l-1.387.06c-1.08.04-1.869.223-2.363.548-.489.32-.733.81-.733 1.475 0 .482.143.856.43 1.123.286.26.716.39 1.29.39zm11.654 1.758c-1.347 0-2.4-.488-3.154-1.465-.755-.976-1.133-2.347-1.133-4.11 0-1.772.381-3.149 1.143-4.132.768-.99 1.829-1.484 3.183-1.484 1.42 0 2.5.524 3.242 1.572h.118c-.11-.775-.166-1.387-.166-1.836V3.805h2.304V19h-1.797l-.4-1.416h-.107c-.736 1.074-1.813 1.611-3.233 1.611zm.615-1.855c.944 0 1.63-.264 2.06-.791.43-.534.652-1.397.665-2.588v-.32c0-1.36-.221-2.33-.664-2.9-.443-.57-1.136-.86-2.08-.86-.807 0-1.43.33-1.865.99-.436.65-.655 1.58-.655 2.794 0 1.198.212 2.113.635 2.744.423.625 1.058.938 1.904.938zm12.67 1.855c-1.68 0-2.994-.488-3.945-1.465-.944-.983-1.416-2.334-1.416-4.052-.011-1.765.43-3.151 1.307-4.16.88-1.01 2.088-1.514 3.624-1.514 1.426 0 2.553.433 3.38 1.3.826.865 1.24 2.056 1.24 3.573v1.24h-7.2c.034 1.048.317 1.856.85 2.422.536.56 1.288.84 2.258.84a8.49 8.49 0 0 0 1.777-.176 9.549 9.549 0 0 0 1.778-.605v1.865a7.033 7.033 0 0 1-1.7.566c-.571.111-1.225.166-1.961.166zm-.42-9.453c-.729 0-1.315.231-1.757.693-.437.463-.697 1.137-.782 2.022h4.903c-.013-.892-.228-1.566-.645-2.022-.416-.462-.99-.693-1.72-.693zM152.31 19h-2.306v-6.66c0-.827-.156-1.442-.469-1.846-.312-.41-.8-.615-1.465-.615-.885 0-1.536.29-1.953.869-.41.573-.615 1.53-.615 2.871V19h-2.295V8.2h1.797l.322 1.415h.117c.3-.514.733-.911 1.299-1.191a4.235 4.235 0 0 1 1.885-.42c1.66 0 2.76.566 3.3 1.7h.157a3.29 3.29 0 0 1 1.348-1.25c.58-.3 1.243-.45 1.992-.45 1.289 0 2.226.325 2.812.976.593.652.89 1.644.89 2.979V19h-2.296v-6.66c0-.827-.16-1.442-.478-1.846-.313-.41-.801-.615-1.465-.615-.892 0-1.547.28-1.963.84-.41.553-.615 1.406-.615 2.558V19zm8.128-10.8h2.5l2.197 6.122c.332.873.553 1.693.664 2.461h.078c.059-.358.166-.79.322-1.3.156-.513.983-2.941 2.48-7.284h2.48l-4.62 12.227c-.84 2.246-2.24 3.369-4.2 3.369a6.619 6.619 0 0 1-1.483-.166v-1.81c.345.078.74.117 1.182.117 1.107 0 1.885-.64 2.334-1.923l.4-1.016-4.335-10.8z" fill="#000"/></svg>