<svg width="208" height="112" xmlns="http://www.w3.org/2000/svg" fill="none" viewBox="0 0 208 112"><path d="M104.5 33a2.5 2.5 0 1 0 0-5 2.5 2.5 0 0 0 0 5zm0 51a2.5 2.5 0 1 0 0-5 2.5 2.5 0 0 0 0 5zm15.33-44.697a2.5 2.5 0 1 0 3.536-3.536 2.5 2.5 0 0 0-3.536 3.536zM83.768 75.366a2.5 2.5 0 1 0 3.535-3.535 2.5 2.5 0 0 0-3.535 3.535zM127 55.5a2.5 2.5 0 1 0 5 0 2.5 2.5 0 0 0-5 0zm-51 0a2.5 2.5 0 1 0 5 0 2.5 2.5 0 0 0-5 0zm43.696 16.33a2.5 2.5 0 1 0 3.537 3.536 2.5 2.5 0 0 0-3.537-3.536zM83.634 35.768a2.5 2.5 0 1 0 3.536 3.535 2.5 2.5 0 0 0-3.536-3.535z" fill="#0A459E"/><path d="M104 81.5c14.083 0 25.5-11.417 25.5-25.5S118.083 30.5 104 30.5 78.5 41.917 78.5 56 89.917 81.5 104 81.5z" stroke="#0A459E"/><path d="M104 92.5c20.158 0 36.5-16.342 36.5-36.5S124.158 19.5 104 19.5 67.5 35.842 67.5 56 83.842 92.5 104 92.5z" stroke="#5C9DFF"/><path d="M104.5 90a2.5 2.5 0 1 0 0 5 2.5 2.5 0 0 0 0-5zm0-73a2.5 2.5 0 1 0 0 5 2.5 2.5 0 0 0 0-5zM79.303 79.387a2.5 2.5 0 1 0-3.535 3.535 2.5 2.5 0 0 0 3.535-3.535zm51.62-51.62a2.5 2.5 0 1 0-3.536 3.538 2.5 2.5 0 0 0 3.536-3.537zm-50.62 4.536a2.5 2.5 0 1 0-3.535-3.535 2.5 2.5 0 0 0 3.535 3.535zm51.619 51.62a2.5 2.5 0 1 0-3.537-3.537 2.5 2.5 0 0 0 3.537 3.536zM70 55.5a2.5 2.5 0 1 0-5 0 2.5 2.5 0 0 0 5 0zm73 0a2.5 2.5 0 1 0-5 0 2.5 2.5 0 0 0 5 0z" fill="#5C9DFF"/><path d="M104 100.5c24.577 0 44.5-19.923 44.5-44.5S128.577 11.5 104 11.5 59.5 31.423 59.5 56s19.923 44.5 44.5 44.5z" stroke="#C2DBFF"/><path d="M104.5 98a2.5 2.5 0 1 0 0 5 2.5 2.5 0 0 0 0-5zm0-89a2.5 2.5 0 1 0 0 5 2.5 2.5 0 0 0 0-5zm-42 47a2.5 2.5 0 1 0-5 0 2.5 2.5 0 0 0 5 0zm89 0a2.5 2.5 0 1 0-5 0 2.5 2.5 0 0 0 5 0zM74.801 26.302a2.5 2.5 0 1 0-3.535-3.536 2.5 2.5 0 0 0 3.535 3.536zm62.933 62.932a2.5 2.5 0 1 0-3.537-3.536 2.5 2.5 0 0 0 3.537 3.536zm-3.536-62.932a2.5 2.5 0 1 0 3.536-3.537 2.5 2.5 0 0 0-3.536 3.537zM71.266 89.234a2.5 2.5 0 1 0 3.535-3.536 2.5 2.5 0 0 0-3.535 3.536z" fill="#C2DBFF"/><path d="M104 109.5c29.547 0 53.5-23.953 53.5-53.5S133.547 2.5 104 2.5 50.5 26.453 50.5 56s23.953 53.5 53.5 53.5z" stroke="#E1EDFF"/><path d="M104.5 5a2.5 2.5 0 1 0 0-5 2.5 2.5 0 0 0 0 5zm0 107a2.5 2.5 0 1 0 0-5 2.5 2.5 0 0 0 0 5z" fill="#E1EDFF"/><path d="M28 78H0l12.552-17L0 44h28v34z" fill="#0A459E"/><path d="M24 73.879 28 78V44h-4v29.879z" fill="#00B2FF"/><path d="M180 44h28l-12.552 17L208 78h-28V44z" fill="#0A459E"/><path d="M184 73.879 180 78V44h4v29.879z" fill="#00B2FF"/><path d="M184 40H24v34h160V40z" fill="#0047FF"/><path d="M40.92 63.016v-14.59h6.985c.805 0 1.496.293 2.074.879.586.586.88 1.285.88 2.097v3.692c0 .812-.29 1.508-.868 2.086a2.844 2.844 0 0 1-2.086.867h-4.992v4.969a.959.959 0 0 1-.293.703.94.94 0 0 1-.69.28.994.994 0 0 1-.716-.28.96.96 0 0 1-.293-.703zm1.993-6.938h4.992a.965.965 0 0 0 .691-.281.959.959 0 0 0 .294-.703v-3.692a.921.921 0 0 0-.294-.691.946.946 0 0 0-.69-.293h-4.993v5.66zM55.609 64V49.41c0-.265.097-.496.292-.691a.945.945 0 0 1 .692-.293c.265 0 .496.097.691.293a.946.946 0 0 1 .293.69V62.03h6.961c.274 0 .508.098.703.293a.904.904 0 0 1 .305.692.94.94 0 0 1-.305.703.98.98 0 0 1-.703.28h-8.93zm14.664-2.953V49.434c0-.274.098-.508.293-.703a.928.928 0 0 1 .691-.301c.266 0 .496.097.692.293a.946.946 0 0 1 .293.69V61.05c0 .258.097.484.293.68a.965.965 0 0 0 .691.28h4.031a.94.94 0 0 0 .692-.28.908.908 0 0 0 .293-.68V49.434c0-.282.093-.52.28-.715a.959.959 0 0 1 .704-.293.92.92 0 0 1 .691.293.972.972 0 0 1 .293.715v11.59c0 .812-.293 1.511-.878 2.097-.579.586-1.27.879-2.075.879h-4.03c-.814 0-1.509-.29-2.087-.867a2.844 2.844 0 0 1-.867-2.086zm14.688-9.938v-2.66h9.937v2.684a.959.959 0 0 1-.293.703.966.966 0 0 1-.691.281.998.998 0 0 1-.715-.293.946.946 0 0 1-.293-.691v-.715h-1.992v12.598a.959.959 0 0 1-.293.703.966.966 0 0 1-.691.28.994.994 0 0 1-.715-.28.96.96 0 0 1-.293-.703V50.418H86.93v.691a.959.959 0 0 1-.294.703.94.94 0 0 1-.69.282.98.98 0 0 1-.704-.282.98.98 0 0 1-.28-.703zm22-1.242 2.168 4.418c.305.602.457 1.254.457 1.957a4.29 4.29 0 0 1-.457 1.946l-2.168 4.37c-.46.962-1.242 1.442-2.344 1.442-.523 0-.996-.137-1.418-.41a2.688 2.688 0 0 1-.937-1.031l-2.18-4.376c-.289-.57-.433-1.218-.433-1.945 0-.726.144-1.38.433-1.957l2.18-4.418c.492-.96 1.277-1.441 2.355-1.441 1.094 0 1.875.48 2.344 1.44zm-3 .985L101.92 55a2.96 2.96 0 0 0-.279 1.219c0 .43.093.84.28 1.23l2.099 4.196c.11.257.308.386.597.386.25 0 .442-.129.574-.386l2.11-4.196a2.87 2.87 0 0 0 .293-1.234c0-.43-.098-.836-.293-1.22l-2.058-4.147c-.134-.306-.34-.458-.62-.458-.283 0-.501.152-.658.457zm20.313-1.418V64h-2.65l-5.296-12.094v11.11a.957.957 0 0 1-.293.703.938.938 0 0 1-.691.28.98.98 0 0 1-.703-.28.977.977 0 0 1-.28-.703v-14.59h2.616l5.309 12.07V49.434c0-.274.097-.508.293-.703a.977.977 0 0 1 .714-.301.92.92 0 0 1 .692.293.974.974 0 0 1 .293.715zm5.734-1.008h7.969a.93.93 0 0 1 .68.293.929.929 0 0 1 .305.69 1 1 0 0 1-.293.716.947.947 0 0 1-.692.293h-2.976V62.03h2.976c.274 0 .504.098.692.293a.922.922 0 0 1 .293.692.96.96 0 0 1-.293.703.968.968 0 0 1-.692.28h-7.969a.981.981 0 0 1-.703-.28.981.981 0 0 1-.281-.703c0-.274.094-.504.281-.692a.96.96 0 0 1 .703-.293h3.024V50.418h-3.024a.96.96 0 0 1-.703-.293.967.967 0 0 1-.281-.691c0-.282.094-.52.281-.715a.96.96 0 0 1 .703-.293zm13.704 12.62v-11.61a.96.96 0 0 1 .293-.704.928.928 0 0 1 .691-.304c.266 0 .496.097.692.293a.947.947 0 0 1 .293.69v11.64a.93.93 0 0 0 .293.68.963.963 0 0 0 .691.28h4.031a.941.941 0 0 0 .692-.28.909.909 0 0 0 .293-.68V49.434c0-.282.093-.52.28-.715a.959.959 0 0 1 .704-.293.92.92 0 0 1 .691.293.97.97 0 0 1 .293.715v11.59c0 .812-.293 1.511-.879 2.097-.578.586-1.27.879-2.074.879h-4.03a2.85 2.85 0 0 1-2.087-.867 2.844 2.844 0 0 1-.867-2.086zm18.672-6.503v-.504l-2.039-2.906v11.883a.96.96 0 0 1-.293.703.94.94 0 0 1-.69.28.957.957 0 0 1-.704-.292.964.964 0 0 1-.282-.691v-14.59h2.543l2.426 3.527 2.496-3.527h2.496v14.59a.94.94 0 0 1-.304.703.982.982 0 0 1-.704.28.945.945 0 0 1-.691-.292.947.947 0 0 1-.293-.691V51.18l-1.992 2.812v.551a.947.947 0 0 1-.293.691.946.946 0 0 1-.692.293.96.96 0 0 1-.703-.293.967.967 0 0 1-.281-.691z" fill="#fff"/></svg>