<svg width="208" height="112" xmlns="http://www.w3.org/2000/svg" fill="none" viewBox="0 0 208 112"><path d="M104.5 33a2.5 2.5 0 1 0 0-5 2.5 2.5 0 0 0 0 5zm0 51a2.5 2.5 0 1 0 0-5 2.5 2.5 0 0 0 0 5zm15.33-44.697a2.5 2.5 0 1 0 3.536-3.536 2.5 2.5 0 0 0-3.536 3.536zM83.768 75.366a2.5 2.5 0 1 0 3.535-3.535 2.5 2.5 0 0 0-3.535 3.535zM127 55.5a2.5 2.5 0 1 0 5 0 2.5 2.5 0 0 0-5 0zm-51 0a2.5 2.5 0 1 0 5 0 2.5 2.5 0 0 0-5 0zm43.696 16.33a2.5 2.5 0 1 0 3.537 3.536 2.5 2.5 0 0 0-3.537-3.536zM83.634 35.768a2.5 2.5 0 1 0 3.536 3.535 2.5 2.5 0 0 0-3.536-3.535z" fill="#91D600"/><path d="M104 81.5c14.083 0 25.5-11.417 25.5-25.5S118.083 30.5 104 30.5 78.5 41.917 78.5 56 89.917 81.5 104 81.5z" stroke="#91D600"/><path d="M104 92.5c20.158 0 36.5-16.342 36.5-36.5S124.158 19.5 104 19.5 67.5 35.842 67.5 56 83.842 92.5 104 92.5z" stroke="#BEFF33"/><path d="M104.5 90a2.5 2.5 0 1 0 0 5 2.5 2.5 0 0 0 0-5zm0-73a2.5 2.5 0 1 0 0 5 2.5 2.5 0 0 0 0-5zM79.303 79.387a2.5 2.5 0 1 0-3.535 3.535 2.5 2.5 0 0 0 3.535-3.535zm51.62-51.62a2.5 2.5 0 1 0-3.536 3.537 2.5 2.5 0 0 0 3.536-3.536zm-50.62 4.536a2.5 2.5 0 1 0-3.535-3.535 2.5 2.5 0 0 0 3.535 3.535zm51.619 51.62a2.5 2.5 0 1 0-3.537-3.537 2.5 2.5 0 0 0 3.537 3.536zM70 55.5a2.5 2.5 0 1 0-5 0 2.5 2.5 0 0 0 5 0zm73 0a2.5 2.5 0 1 0-5 0 2.5 2.5 0 0 0 5 0z" fill="#BEFF33"/><path d="M104 100.5c24.577 0 44.5-19.923 44.5-44.5S128.577 11.5 104 11.5 59.5 31.423 59.5 56s19.923 44.5 44.5 44.5z" stroke="#D3FF75"/><path d="M104.5 98a2.5 2.5 0 1 0 0 5 2.5 2.5 0 0 0 0-5zm0-89a2.5 2.5 0 1 0 0 5 2.5 2.5 0 0 0 0-5zm-42 47a2.5 2.5 0 1 0-5 0 2.5 2.5 0 0 0 5 0zm89 0a2.5 2.5 0 1 0-5 0 2.5 2.5 0 0 0 5 0zM74.801 26.302a2.5 2.5 0 1 0-3.535-3.536 2.5 2.5 0 0 0 3.535 3.536zm62.933 62.932a2.5 2.5 0 1 0-3.537-3.536 2.5 2.5 0 0 0 3.537 3.536zm-3.536-62.932a2.5 2.5 0 1 0 3.536-3.537 2.5 2.5 0 0 0-3.536 3.537zM71.266 89.234a2.5 2.5 0 1 0 3.535-3.536 2.5 2.5 0 0 0-3.535 3.536z" fill="#D3FF75"/><path d="M104 109.5c29.547 0 53.5-23.953 53.5-53.5S133.547 2.5 104 2.5 50.5 26.453 50.5 56s23.953 53.5 53.5 53.5z" stroke="#F1FFD5"/><path d="M104.5 5a2.5 2.5 0 1 0 0-5 2.5 2.5 0 0 0 0 5zm0 107a2.5 2.5 0 1 0 0-5 2.5 2.5 0 0 0 0 5z" fill="#F1FFD5"/><path d="M28 78H0l12.552-17L0 44h28v34z" fill="#91D600"/><path d="m24 74 4 4V44h-4v30z" fill="#FFF500"/><path d="M180 44h28l-12.552 17L208 78h-28V44z" fill="#91D600"/><path d="m184 74-4 4V44h4v30z" fill="#FFF500"/><path d="M184 40H24v34h160V40z" fill="#ADFF00"/><path d="M62.476 63.016v-14.59h6.96c.805 0 1.497.293 2.075.879.586.586.879 1.285.879 2.097v1.125c0 .82-.29 1.524-.867 2.11a2.844 2.844 0 0 1-2.086.867h-1.254l4.03 6.914c.126.203.19.406.19.61a.929.929 0 0 1-.306.69.992.992 0 0 1-.691.282c-.391 0-.688-.176-.891-.527l-4.63-7.97h-1.417v7.513a.941.941 0 0 1-.305.703.98.98 0 0 1-.703.28.98.98 0 0 1-.703-.28.98.98 0 0 1-.281-.703zm1.969-9.48h4.992a.94.94 0 0 0 .691-.282.959.959 0 0 0 .293-.703v-1.138a.921.921 0 0 0-.293-.689.92.92 0 0 0-.691-.295h-4.992v3.116zm12.754 9.093 3.984-13.47c.156-.497.484-.74.984-.74.485 0 .79.204.915.62l3.925 13.674a.993.993 0 0 1-.234.996.887.887 0 0 1-.645.28c-.515 0-.843-.237-.984-.714l-.797-2.672H79.86l-.867 2.86c-.024.125-.121.246-.293.363-.172.11-.36.164-.563.164a.948.948 0 0 1-.715-.293.994.994 0 0 1-.28-.715c0-.117.02-.238.059-.363zm4.945-9.65-1.687 5.632h3.316l-1.629-5.637zm10.645-4.56h3.89c.508.005 1 .17 1.477.49.484.32.84.706 1.066 1.16l1.946 3.937c.367.71.55 1.453.55 2.226 0 .72-.195 1.457-.585 2.215l-1.957 3.891c-.25.5-.61.903-1.079 1.208a2.874 2.874 0 0 1-1.57.445h-3.76a.96.96 0 0 1-.705-.293.965.965 0 0 1-.28-.69.98.98 0 0 1 .28-.704.941.941 0 0 1 .704-.305h1.03V50.41H92.79a.959.959 0 0 1-.703-.293 1.02 1.02 0 0 1-.281-.715c0-.265.093-.496.28-.69a.959.959 0 0 1 .704-.294zm2.977 1.99v11.62h.69c.438 0 .766-.216.985-.645l1.946-3.867c.242-.51.363-.94.363-1.28 0-.43-.098-.84-.293-1.22l-2.017-4.01c-.21-.4-.55-.6-1.03-.6h-.64zm11.71-1.993h7.969a.93.93 0 0 1 .68.292.929.929 0 0 1 .305.691 1 1 0 0 1-.293.714.946.946 0 0 1-.692.294h-2.976v11.62h2.976c.274 0 .504.098.692.293a.922.922 0 0 1 .293.692.96.96 0 0 1-.293.703.966.966 0 0 1-.692.28h-7.968a.978.978 0 0 1-.703-.28.978.978 0 0 1-.282-.703.94.94 0 0 1 .282-.692.957.957 0 0 1 .703-.293h3.023v-11.61h-3.023a.957.957 0 0 1-.703-.293.964.964 0 0 1-.282-.691.99.99 0 0 1 .282-.715.957.957 0 0 1 .703-.293zm13.704 12.62v-11.61a.96.96 0 0 1 .293-.703.928.928 0 0 1 .692-.303c.265 0 .496.097.69.293a.947.947 0 0 1 .294.691v11.636c0 .258.098.484.293.68a.965.965 0 0 0 .691.28h4.032a.94.94 0 0 0 .691-.28.909.909 0 0 0 .293-.68v-11.61c0-.282.094-.52.281-.715a.959.959 0 0 1 .703-.293.92.92 0 0 1 .692.293.974.974 0 0 1 .293.715v11.59c0 .812-.293 1.511-.879 2.097-.578.586-1.27.88-2.074.88h-4.032c-.812 0-1.508-.29-2.086-.868a2.844 2.844 0 0 1-.867-2.086zm18.672-6.504v-.504l-2.04-2.906V63.01a.957.957 0 0 1-.292.704.94.94 0 0 1-.691.28.957.957 0 0 1-.703-.292.963.963 0 0 1-.281-.69v-14.59h2.542l2.426 3.526 2.496-3.526h2.496v14.59a.94.94 0 0 1-.304.703.981.981 0 0 1-.703.28.947.947 0 0 1-.692-.292.947.947 0 0 1-.293-.69V51.18l-1.992 2.812v.551a.947.947 0 0 1-.293.691.945.945 0 0 1-.691.293.957.957 0 0 1-.703-.293.964.964 0 0 1-.282-.691z" fill="#000"/></svg>