<svg width="208" height="112" xmlns="http://www.w3.org/2000/svg" fill="none" viewBox="0 0 208 112"><path d="M104.5 33a2.5 2.5 0 1 0 0-5 2.5 2.5 0 0 0 0 5zm0 51a2.5 2.5 0 1 0 0-5 2.5 2.5 0 0 0 0 5zm15.33-44.697a2.5 2.5 0 1 0 3.536-3.536 2.5 2.5 0 0 0-3.536 3.536zM83.768 75.366a2.5 2.5 0 1 0 3.535-3.535 2.5 2.5 0 0 0-3.535 3.535zM127 55.5a2.5 2.5 0 1 0 5 0 2.5 2.5 0 0 0-5 0zm-51 0a2.5 2.5 0 1 0 5 0 2.5 2.5 0 0 0-5 0zm43.696 16.33a2.5 2.5 0 1 0 3.537 3.536 2.5 2.5 0 0 0-3.537-3.536zM83.634 35.768a2.5 2.5 0 1 0 3.536 3.535 2.5 2.5 0 0 0-3.536-3.535z" fill="#5602C1"/><path d="M104 81.5c14.083 0 25.5-11.417 25.5-25.5S118.083 30.5 104 30.5 78.5 41.917 78.5 56 89.917 81.5 104 81.5z" stroke="#5602C1"/><path d="M104 92.5c20.158 0 36.5-16.342 36.5-36.5S124.158 19.5 104 19.5 67.5 35.842 67.5 56 83.842 92.5 104 92.5z" stroke="#A055FF"/><path d="M104.5 90a2.5 2.5 0 1 0 0 5 2.5 2.5 0 0 0 0-5zm0-73a2.5 2.5 0 1 0 0 5 2.5 2.5 0 0 0 0-5zM79.303 79.387a2.5 2.5 0 1 0-3.535 3.535 2.5 2.5 0 0 0 3.535-3.535zm51.62-51.62a2.5 2.5 0 1 0-3.536 3.537 2.5 2.5 0 0 0 3.536-3.536zm-50.62 4.536a2.5 2.5 0 1 0-3.535-3.535 2.5 2.5 0 0 0 3.535 3.535zm51.619 51.62a2.5 2.5 0 1 0-3.537-3.537 2.5 2.5 0 0 0 3.537 3.536zM70 55.5a2.5 2.5 0 1 0-5 0 2.5 2.5 0 0 0 5 0zm73 0a2.5 2.5 0 1 0-5 0 2.5 2.5 0 0 0 5 0z" fill="#A055FF"/><path d="M104 100.5c24.577 0 44.5-19.923 44.5-44.5S128.577 11.5 104 11.5 59.5 31.423 59.5 56s19.923 44.5 44.5 44.5z" stroke="#D4B1FF"/><path d="M104.5 98a2.5 2.5 0 1 0 0 5 2.5 2.5 0 0 0 0-5zm0-89a2.5 2.5 0 1 0 0 5 2.5 2.5 0 0 0 0-5zm-42 47a2.5 2.5 0 1 0-5 0 2.5 2.5 0 0 0 5 0zm89 0a2.5 2.5 0 1 0-5 0 2.5 2.5 0 0 0 5 0zM74.801 26.302a2.5 2.5 0 1 0-3.535-3.536 2.5 2.5 0 0 0 3.535 3.536zm62.933 62.932a2.5 2.5 0 1 0-3.537-3.536 2.5 2.5 0 0 0 3.537 3.536zm-3.536-62.932a2.5 2.5 0 1 0 3.536-3.537 2.5 2.5 0 0 0-3.536 3.537zM71.266 89.234a2.5 2.5 0 1 0 3.535-3.536 2.5 2.5 0 0 0-3.535 3.536z" fill="#D4B1FF"/><path d="M104 109.5c29.547 0 53.5-23.953 53.5-53.5S133.547 2.5 104 2.5 50.5 26.453 50.5 56s23.953 53.5 53.5 53.5z" stroke="#EDDFFF"/><path d="M104.5 5a2.5 2.5 0 1 0 0-5 2.5 2.5 0 0 0 0 5zm0 107a2.5 2.5 0 1 0 0-5 2.5 2.5 0 0 0 0 5z" fill="#EDDFFF"/><path d="M28 78H0l12.552-17L0 44h28v34z" fill="#5602C1"/><path d="M24 73.879 28 78V44h-4v29.879z" fill="#DB00FF"/><path d="M180 44h28l-12.552 17L208 78h-28V44z" fill="#5602C1"/><path d="M184 73.879 180 78V44h4v29.879z" fill="#DB00FF"/><path d="M184 40H24v34h160V40z" fill="#7000FF"/><path d="M55.585 61.047V49.434c0-.274.098-.508.293-.703a.928.928 0 0 1 .691-.301c.266 0 .496.097.692.293a.945.945 0 0 1 .293.69V61.05c0 .258.097.484.293.68a.965.965 0 0 0 .691.28h4.031a.94.94 0 0 0 .692-.28.908.908 0 0 0 .293-.68V49.434c0-.282.093-.52.28-.715a.959.959 0 0 1 .704-.293.92.92 0 0 1 .692.293.972.972 0 0 1 .292.715v11.59c0 .812-.293 1.511-.878 2.097-.58.586-1.27.879-2.075.879h-4.03a2.85 2.85 0 0 1-2.087-.867 2.844 2.844 0 0 1-.867-2.086zm14.735 1.969v-14.59h6.96c.805 0 1.497.293 2.075.879.586.586.879 1.285.879 2.097v1.125c0 .82-.29 1.524-.867 2.11a2.844 2.844 0 0 1-2.086.867h-1.254l4.03 6.914c.126.203.189.406.189.61a.929.929 0 0 1-.305.69.992.992 0 0 1-.69.282c-.39 0-.685-.176-.89-.527l-4.63-7.97h-1.415v7.513a.941.941 0 0 1-.305.703.98.98 0 0 1-.703.28.98.98 0 0 1-.703-.28.98.98 0 0 1-.281-.703zm1.968-9.48h4.993a.94.94 0 0 0 .695-.282.959.959 0 0 0 .293-.703v-1.145a.921.921 0 0 0-.293-.691.92.92 0 0 0-.691-.293H72.29v3.116zm12.755 9.093 3.984-13.469c.156-.492.484-.738.984-.738.485 0 .79.207.915.62L94.85 62.72a.993.993 0 0 1-.234.996.887.887 0 0 1-.645.28c-.515 0-.843-.237-.984-.714l-.797-2.672h-4.488l-.867 2.86c-.024.125-.121.246-.293.363-.172.11-.36.164-.563.164a.948.948 0 0 1-.715-.293.994.994 0 0 1-.28-.715c0-.117.019-.238.058-.363zm4.945-9.649-1.688 5.64h3.317l-1.63-5.637zm19.598-3.55v14.57h-2.648l-5.297-12.095v11.11a.96.96 0 0 1-.293.703.941.941 0 0 1-.692.28.98.98 0 0 1-.703-.28.98.98 0 0 1-.281-.703v-14.59h2.613l5.309 12.07V49.434c0-.274.097-.508.293-.703a.978.978 0 0 1 .715-.301.92.92 0 0 1 .691.293.974.974 0 0 1 .293.715zm5.735-1.008h7.968a.93.93 0 0 1 .68.293.929.929 0 0 1 .301.691 1 1 0 0 1-.293.714.947.947 0 0 1-.692.294h-2.976V62.03h2.976c.274 0 .504.098.692.293a.922.922 0 0 1 .293.692.96.96 0 0 1-.293.703.968.968 0 0 1-.692.28h-7.968a.978.978 0 0 1-.703-.28.978.978 0 0 1-.282-.703.94.94 0 0 1 .282-.692.957.957 0 0 1 .703-.293h3.023V50.418h-3.023a.957.957 0 0 1-.703-.293.964.964 0 0 1-.282-.691.99.99 0 0 1 .282-.715.957.957 0 0 1 .703-.293zm13.703 12.62v-11.61a.96.96 0 0 1 .293-.703.928.928 0 0 1 .691-.303c.266 0 .497.097.692.293a.947.947 0 0 1 .293.691v11.637a.93.93 0 0 0 .293.68.965.965 0 0 0 .691.28h4.031a.941.941 0 0 0 .692-.28.909.909 0 0 0 .293-.68V49.434c0-.282.094-.52.281-.715a.959.959 0 0 1 .703-.293.92.92 0 0 1 .692.293.974.974 0 0 1 .293.715v11.59c0 .812-.293 1.511-.879 2.097-.578.586-1.27.879-2.075.879h-4.03a2.85 2.85 0 0 1-2.087-.867 2.844 2.844 0 0 1-.867-2.086zm18.672-6.503v-.504l-2.039-2.906v11.883a.957.957 0 0 1-.293.703.94.94 0 0 1-.691.28.957.957 0 0 1-.703-.292.964.964 0 0 1-.282-.69v-14.59h2.543l2.426 3.526 2.496-3.526h2.496v14.59a.94.94 0 0 1-.304.703.981.981 0 0 1-.703.28.946.946 0 0 1-.692-.292.947.947 0 0 1-.293-.69V51.18l-1.992 2.812v.551a.947.947 0 0 1-.293.691.945.945 0 0 1-.691.293.957.957 0 0 1-.703-.293.964.964 0 0 1-.282-.691z" fill="#fff"/></svg>