<svg width="20" height="20" viewBox="0 0 20 20" fill="none" xmlns="http://www.w3.org/2000/svg">
<path d="M18.1713 8.36922H17.5V8.33464H10V11.668H14.7096C14.0225 13.6084 12.1763 15.0013 10 15.0013C7.23877 15.0013 5.00002 12.7626 5.00002 10.0013C5.00002 7.24005 7.23877 5.0013 10 5.0013C11.2746 5.0013 12.4342 5.48214 13.3171 6.26755L15.6742 3.91047C14.1859 2.52339 12.195 1.66797 10 1.66797C5.39794 1.66797 1.66669 5.39922 1.66669 10.0013C1.66669 14.6034 5.39794 18.3346 10 18.3346C14.6021 18.3346 18.3334 14.6034 18.3334 10.0013C18.3334 9.44255 18.2759 8.89714 18.1713 8.36922Z" fill="#FFC107"/>
<path d="M2.6275 6.12255L5.36542 8.13047C6.10625 6.2963 7.90042 5.0013 10 5.0013C11.2746 5.0013 12.4342 5.48213 13.3171 6.26755L15.6742 3.91047C14.1858 2.52339 12.195 1.66797 10 1.66797C6.79917 1.66797 4.02334 3.47505 2.6275 6.12255Z" fill="#FF3D00"/>
<path d="M9.99999 18.3356C12.1525 18.3356 14.1083 17.5118 15.5871 16.1722L13.0079 13.9897C12.1431 14.6474 11.0864 15.0031 9.99999 15.0022C7.83249 15.0022 5.99207 13.6202 5.29874 11.6914L2.58124 13.7852C3.9604 16.4839 6.76124 18.3356 9.99999 18.3356Z" fill="#4CAF50"/>
<path d="M18.1713 8.36661H17.5V8.33203H10V11.6654H14.7096C14.3809 12.5889 13.7889 13.3959 13.0067 13.9866L13.0079 13.9858L15.5871 16.1683C15.4046 16.3341 18.3333 14.1654 18.3333 9.9987C18.3333 9.43995 18.2758 8.89453 18.1713 8.36661Z" fill="#1976D2"/>
</svg>
