<svg width="20" height="20" viewBox="0 0 20 20" fill="none" xmlns="http://www.w3.org/2000/svg">
<circle cx="10" cy="10.0013" r="8.33333" fill="#4D54FF"/>
<path d="M7.01111 9.32778C7.81111 10.9 9.1 12.1833 10.6722 12.9889L11.8944 11.7667C12.0444 11.6167 12.2667 11.5667 12.4611 11.6333C13.0833 11.8389 13.7556 11.95 14.4444 11.95C14.75 11.95 15 12.2 15 12.5056V14.4444C15 14.75 14.75 15 14.4444 15C9.22778 15 5 10.7722 5 5.55556C5 5.25 5.25 5 5.55556 5H7.5C7.80556 5 8.05556 5.25 8.05556 5.55556C8.05556 6.25 8.16667 6.91667 8.37222 7.53889C8.43333 7.73333 8.38889 7.95 8.23333 8.10556L7.01111 9.32778Z" fill="white"/>
</svg>
