<svg width="36" height="36" viewBox="0 0 36 36" fill="none" xmlns="http://www.w3.org/2000/svg">
    <path d="M22.9791 7.02087L28.9744 13.0162L27.8577 14.1331L21.8623 8.13776L22.9791 7.02087Z" fill="#F2C94C"/>
    <path d="M23.4697 3.53028C23.7627 3.23739 24.2376 3.23739 24.5305 3.53028L32.4697 11.4696C32.7627 11.7625 32.7627 12.2374 32.4697 12.5303L31.4091 13.5909C31.1163 13.8838 30.6414 13.8838 30.3484 13.5909L22.4091 5.65161C22.1163 5.3587 22.1163 4.88383 22.4091 4.59094L23.4697 3.53028Z" fill="#F2994A"/>
    <path fill-rule="evenodd" clip-rule="evenodd" d="M8.25 4.5C7.83579 4.5 7.5 4.83579 7.5 5.25V7.5H6V5.25C6 4.00735 7.00735 3 8.25 3H15.75C16.9926 3 18 4.00735 18 5.25V7.5H16.5V5.25C16.5 4.83579 16.1642 4.5 15.75 4.5H8.25Z" fill="#F2994A"/>
    <path fill-rule="evenodd" clip-rule="evenodd" d="M6 7.5C4.34314 7.5 3 8.84314 3 10.5V30C3 31.6569 4.34314 33 6 33H25.5C27.1569 33 28.5 31.6569 28.5 30V16.7145C28.5 15.9193 28.1844 15.1567 27.6223 14.5942L24.5157 11.4844L21.41 8.37869C20.8473 7.81607 20.0843 7.5 19.2887 7.5H6ZM18 13.5L10.5 22.5H13.5L12 28.5L19.5 19.5H16.5L18 13.5Z" fill="url(#paint0_radial)"/>
    <defs>
        <radialGradient id="paint0_radial" cx="0" cy="0" r="1" gradientUnits="userSpaceOnUse" gradientTransform="translate(18.3614 17.496) rotate(129.037) scale(19.9997 17.09)">
            <stop stop-color="#FFC700"/>
            <stop offset="1" stop-color="#FF7A00"/>
        </radialGradient>
    </defs>
</svg>
