<svg width="53" height="24" viewBox="0 0 53 24" fill="none" xmlns="http://www.w3.org/2000/svg">
<path d="M40.5076 7.45884C40.7134 7.2952 40.8162 7.21339 40.9191 7.13157C42.3489 5.92475 44.1799 6.05771 45.404 7.48952C45.5274 7.6327 45.5892 7.64293 45.7126 7.5202C45.7949 7.42816 45.8875 7.35657 45.9698 7.26452C46.9264 6.33384 48.1916 6.05771 49.3746 6.5793C50.6192 7.13157 51.2879 8.10316 51.2981 9.46338C51.3187 12.3986 51.3084 15.3236 51.3084 18.2588C51.3084 19.302 50.6604 19.9565 49.6214 19.9565C49.21 19.9565 48.7985 19.9259 48.3871 19.9668C47.9653 20.0077 47.8419 19.8747 47.8419 19.4349C47.8625 16.5713 47.8522 13.7077 47.8522 10.8441C47.8522 10.7213 47.8522 10.6088 47.8522 10.4861C47.8419 9.82133 47.5744 9.5452 46.9367 9.51452C46.3606 9.48384 45.9595 9.83156 45.8977 10.4145C45.8875 10.5475 45.8977 10.6907 45.8977 10.8236C45.8977 13.2986 45.8977 15.7634 45.8977 18.2384C45.8977 19.3224 45.2703 19.9565 44.1799 19.9463C43.6244 19.9361 42.8735 20.1918 42.5546 19.8338C42.2769 19.527 42.4621 18.8009 42.4621 18.2588C42.4621 15.7225 42.4621 13.1759 42.4621 10.6395C42.4621 9.73952 41.8757 9.27929 41.1145 9.58611C40.6414 9.78043 40.4871 10.1588 40.4871 10.6497C40.4974 13.0225 40.4871 15.385 40.4871 17.7577C40.4871 17.9418 40.4871 18.1361 40.4871 18.3202C40.4562 19.3122 39.8184 19.9361 38.8309 19.9463C38.4195 19.9565 38.008 19.9156 37.5966 19.9565C37.1543 19.9974 37.0205 19.8747 37.0308 19.4043C37.0514 15.385 37.0411 11.3656 37.0411 7.33611C37.0411 7.16225 37.0514 6.99861 37.0411 6.82475C37.0205 6.59975 37.1131 6.52816 37.3394 6.52816C38.2858 6.53839 39.2218 6.53839 40.1682 6.52816C40.4048 6.52816 40.5179 6.58952 40.4974 6.8452C40.4768 7.02929 40.4974 7.19293 40.5076 7.45884Z" fill="#02B9EF"/>
<path d="M18.701 12.9998C18.701 14.4009 18.701 15.7918 18.701 17.193C18.6907 19.0134 17.734 19.9543 15.9031 19.9646C15.1007 19.9646 14.2881 19.9748 13.4857 19.9646C11.8605 19.9441 10.6672 18.8703 10.585 17.2543C10.5232 16.0987 10.513 14.9328 10.5747 13.7771C10.657 12.1203 11.9325 10.9543 13.6195 10.9339C14.0618 10.9237 14.5144 10.9339 14.9567 10.9339C15.3887 10.9237 15.5533 10.6782 15.543 10.2691C15.543 9.86003 15.3579 9.67594 14.9464 9.69639C14.4835 9.70662 14.0206 9.70662 13.5577 9.69639C12.4262 9.67594 11.7988 9.0623 11.809 7.95776C11.809 7.50776 11.6033 6.90435 11.9016 6.63844C12.1588 6.41344 12.7451 6.55662 13.1874 6.55662C14.3395 6.54639 15.4813 6.55662 16.6334 6.55662C17.8575 6.55662 18.6907 7.38503 18.701 8.6123C18.7113 10.0646 18.701 11.5373 18.701 12.9998ZM15.5533 15.3214C15.5533 15.1475 15.5533 14.9839 15.5533 14.81C15.5533 13.7668 15.5533 13.7668 14.5041 13.8078C13.9795 13.8282 13.6915 14.0941 13.6812 14.6362C13.6709 15.0657 13.6709 15.485 13.6812 15.9146C13.6915 16.6509 14.0206 16.8453 15.0904 16.8759C15.8825 16.8964 15.4813 16.3441 15.5533 16.0373C15.5945 15.8123 15.543 15.5566 15.5533 15.3214Z" fill="#06306F"/>
<path d="M27.855 11.8849C27.855 13.4497 27.8756 15.0246 27.8448 16.5894C27.8242 17.7962 27.5362 18.8905 26.3635 19.5349C25.8903 19.7905 25.376 19.9337 24.8411 19.944C23.6582 19.9644 22.4752 19.944 21.2923 19.9644C21.0042 19.9644 20.9425 19.8621 20.9528 19.6065C20.9734 19.1769 20.9425 18.7576 20.9631 18.3281C20.9837 17.5099 21.6111 16.886 22.4341 16.8553C22.969 16.8349 23.4936 16.8451 24.0285 16.8553C24.4605 16.8553 24.6971 16.6815 24.6971 16.2212C24.6971 15.7508 24.4708 15.5871 24.0388 15.5769C23.3187 15.5565 22.5986 15.6587 21.8889 15.4542C20.6648 15.0962 19.7699 14.0837 19.739 12.8258C19.6773 10.8315 19.7184 8.83716 19.7081 6.84285C19.7081 6.61785 19.7801 6.54626 20.0064 6.55649C20.8499 6.56671 21.6831 6.57694 22.5266 6.55649C22.897 6.54626 22.8455 6.7508 22.8455 6.9758C22.8455 8.47921 22.8455 9.97239 22.8455 11.4758C22.8455 12.1303 23.1541 12.4781 23.7302 12.4985C24.4091 12.519 24.7074 12.2428 24.7074 11.5576C24.7074 10.044 24.7177 8.52012 24.6971 7.00648C24.6971 6.64853 24.7897 6.54626 25.1497 6.55649C25.9006 6.58717 26.6618 6.5974 27.4127 6.55649C27.8242 6.53603 27.8859 6.68944 27.8756 7.04739C27.8448 8.65307 27.855 10.269 27.855 11.8849Z" fill="#06306F"/>
<path d="M1.64561 14.2026C1.64561 12.5356 1.64561 10.8583 1.64561 9.19128C1.64561 7.55491 2.65368 6.53219 4.3098 6.55264C5.38988 6.56287 6.46996 6.42991 7.53975 6.63446C8.90785 6.90037 9.77192 7.95378 9.7822 9.35492C9.79249 10.8379 9.7822 12.3208 9.7822 13.8038C9.7822 15.6651 8.68155 16.8004 6.80941 16.8515C6.24366 16.872 5.6779 16.8617 5.11215 16.8515C4.85499 16.8413 4.74184 16.9231 4.75212 17.1992C4.7727 17.6083 4.76241 18.0174 4.75212 18.4265C4.73155 19.3061 4.10408 19.9401 3.22973 19.9504C2.7154 19.9606 2.06736 20.1651 1.73819 19.8686C1.4296 19.5924 1.6559 18.9379 1.64561 18.447C1.63532 17.0356 1.64561 15.614 1.64561 14.2026ZM4.75212 11.697C4.75212 12.0242 4.75212 12.3413 4.75212 12.6686C4.75212 13.8242 4.75212 13.8242 5.91449 13.722C6.41853 13.6811 6.65512 13.4356 6.6654 12.9345C6.67569 12.3617 6.64483 11.7788 6.67569 11.2061C6.73741 9.54923 6.42882 9.71287 5.071 9.70264C4.82413 9.70264 4.74184 9.77423 4.74184 10.0197C4.76241 10.572 4.75212 11.1345 4.75212 11.697Z" fill="#06306F"/>
<path d="M30.767 14.2275C30.767 12.8673 30.7567 11.4968 30.7773 10.1366C30.7773 9.81954 30.7053 9.68658 30.3555 9.69681C29.8927 9.71727 29.2755 9.85022 29.0183 9.62522C28.6994 9.32863 28.9463 8.69454 28.9052 8.20363C28.9052 8.17295 28.9052 8.13204 28.9052 8.10136C28.9052 7.62067 28.7509 7.05817 28.9566 6.70022C29.1623 6.34226 29.7898 6.56727 30.2321 6.45477C31.1065 6.22977 31.7648 5.72863 32.2997 5.03317C32.67 4.56272 33.1329 4.22522 33.7295 4.11272C34.0484 4.05136 34.2438 4.09226 34.2233 4.50136C34.1924 5.07408 34.2233 5.65704 34.213 6.23999C34.2027 6.48545 34.2953 6.56727 34.5421 6.55704C34.9536 6.54681 35.365 6.56727 35.7765 6.54681C36.0234 6.53658 36.1057 6.62863 36.0954 6.87408C36.0851 7.71272 36.0851 8.54113 36.0954 9.37976C36.0954 9.61499 36.0337 9.73772 35.7765 9.70704C35.7251 9.69681 35.6736 9.70704 35.6222 9.70704C35.1696 9.74795 34.5421 9.50249 34.3055 9.80931C34.0792 10.0957 34.2233 10.6889 34.2233 11.1491C34.2233 13.9309 34.213 16.7025 34.2335 19.4843C34.2335 19.8729 34.1307 19.9957 33.7398 19.965C33.3695 19.9343 32.9889 19.965 32.6083 19.9548C31.4973 19.9139 30.767 19.1673 30.767 18.0627C30.767 16.7843 30.767 15.5059 30.767 14.2275Z" fill="#02B9EF"/>
</svg>
