<svg width="24" height="24" viewBox="0 0 24 24" fill="none" xmlns="http://www.w3.org/2000/svg">
<path d="M10.2059 9.94093H13.1549V14.6329C12.7529 14.8339 12.2169 14.9009 11.8149 14.9009C10.7429 14.9009 10.2059 14.3649 10.2059 13.1579V9.94093ZM23.6759 14.7569C22.1529 21.2059 15.6909 25.1989 9.24293 23.6759C2.79393 22.1539 -1.19907 15.6909 0.323934 9.24293C1.84693 2.79393 8.30893 -1.19907 14.7569 0.323934C21.2059 1.84693 25.1989 8.30893 23.6759 14.7569ZM17.4449 8.86893C17.4408 8.63922 17.3477 8.42005 17.1853 8.25759C17.0228 8.09513 16.8037 8.00204 16.5739 7.99793H14.9649L11.2789 3.77593C10.9439 3.37393 10.4079 3.23993 9.87193 3.37393L8.59793 3.77493C8.39693 3.84193 8.32993 4.10993 8.46393 4.24393L12.4849 8.06393H6.38593C6.18493 8.06393 6.05093 8.19793 6.05093 8.39893V9.06893C6.05093 9.53793 6.45293 9.93993 6.92193 9.93993H7.85993V13.1569C7.85993 15.5699 9.13293 16.9769 11.2779 16.9769C11.9479 16.9769 12.4839 16.9099 13.1549 16.6419V18.7869C13.1549 19.3899 13.6239 19.8589 14.2269 19.8589H15.1649C15.2692 19.8519 15.3675 19.8073 15.4414 19.7334C15.5153 19.6595 15.5599 19.5612 15.5669 19.4569V9.87393H17.1089C17.3099 9.87393 17.4439 9.73993 17.4439 9.53893V8.86893H17.4449Z" fill="#673AB7"/>
</svg>
