<svg width="76" height="76" viewBox="0 0 76 76" fill="none" xmlns="http://www.w3.org/2000/svg">
<path d="M32.3188 31.4796H41.6573V46.3376C40.3843 46.9741 38.687 47.1863 37.414 47.1863C34.0193 47.1863 32.3188 45.489 32.3188 41.6668V31.4796ZM74.9738 46.7303C70.151 67.1521 49.688 79.7966 29.2693 74.9738C8.84746 70.1541 -3.79704 49.688 1.02579 29.2693C5.84863 8.84746 26.3116 -3.79704 46.7303 1.02579C67.1521 5.84863 79.7966 26.3116 74.9738 46.7303ZM55.2423 28.085C55.2293 27.3575 54.9345 26.6635 54.4201 26.149C53.9056 25.6346 53.2116 25.3398 52.4841 25.3268H47.389L35.7166 11.9571C34.6558 10.6841 32.9585 10.2598 31.2611 10.6841L27.2268 11.954C26.5903 12.1661 26.3781 13.0148 26.8025 13.4391L39.5356 25.5358H20.2221C19.5856 25.5358 19.1613 25.9601 19.1613 26.5966V28.7183C19.1613 30.2035 20.4343 31.4765 21.9195 31.4765H24.8898V41.6636C24.8898 49.3048 28.921 53.7603 35.7135 53.7603C37.8351 53.7603 39.5325 53.5481 41.6573 52.6995V59.492C41.6573 61.4015 43.1425 62.8866 45.052 62.8866H48.0223C48.3526 62.8644 48.6636 62.7231 48.8977 62.489C49.1318 62.255 49.273 61.9439 49.2953 61.6136V31.2675H54.1783C54.8148 31.2675 55.2391 30.8431 55.2391 30.2066V28.085H55.2423Z" fill="black"/>
</svg>
